<svg xmlns="http://www.w3.org/2000/svg" width="10" height="9" viewBox="0 0 10 9"><g><g><g/><g><path fill="#494ecc" d="M2.067 8.086a.542.542 0 0 1-.399.164.542.542 0 0 1-.398-.164l-.516-.54a.542.542 0 0 1-.164-.398c0-.156.055-.289.164-.398l2.25-2.25-2.25-2.25a.542.542 0 0 1-.164-.398c0-.157.055-.29.164-.399L1.27.914A.542.542 0 0 1 1.668.75c.156 0 .29.055.399.164l3.187 3.188c.11.109.164.242.164.398 0 .156-.055.29-.164.398zm7.687-3.984c.11.109.164.242.164.398 0 .156-.055.29-.164.398L6.567 8.086a.542.542 0 0 1-.399.164.542.542 0 0 1-.398-.164l-.516-.54a.542.542 0 0 1-.164-.398c0-.156.055-.289.164-.398l2.25-2.25-2.25-2.25a.542.542 0 0 1-.164-.398c0-.157.055-.29.164-.399L5.77.914c.062-.047.125-.086.187-.117A.576.576 0 0 1 6.168.75c.078 0 .149.016.211.047a.55.55 0 0 1 .188.117z"/></g></g></g></svg>