<svg xmlns="http://www.w3.org/2000/svg" width="40" height="40" viewBox="0 0 40 40"><defs><clipPath id="vvt2a"><path fill="#fff" d="M40 20c0 11.046-8.954 20-20 20S0 31.046 0 20 8.954 0 20 0s20 8.954 20 20z"/></clipPath></defs><g><g><path fill="#fff" d="M40 20c0 11.046-8.954 20-20 20S0 31.046 0 20 8.954 0 20 0s20 8.954 20 20z"/><path fill="none" stroke="#999" stroke-miterlimit="20" stroke-width="2" d="M40 20c0 11.046-8.954 20-20 20S0 31.046 0 20 8.954 0 20 0s20 8.954 20 20z" clip-path="url(&quot;#vvt2a&quot;)"/></g><g><g/><g><path fill="#999" d="M17.159 18.578a3.729 3.729 0 0 1-1.129-2.724c0-1.06.38-1.976 1.129-2.725A3.729 3.729 0 0 1 19.884 12a3.73 3.73 0 0 1 2.724 1.129 3.73 3.73 0 0 1 1.13 2.725 3.73 3.73 0 0 1-1.13 2.724 3.729 3.729 0 0 1-2.724 1.13 3.73 3.73 0 0 1-2.725-1.13zm-.191-2.724c0 .812.28 1.486.854 2.061.575.575 1.25.855 2.062.855.812 0 1.487-.28 2.062-.855.574-.575.854-1.249.854-2.061 0-.813-.28-1.487-.854-2.062a2.786 2.786 0 0 0-2.062-.854c-.813 0-1.487.279-2.062.854a2.786 2.786 0 0 0-.854 2.062z"/></g><g><path fill="#999" d="M26.659 25.25c0 .835-.266 1.511-.79 2.01-.517.492-1.2.741-2.033.741h-7.704c-.832 0-1.516-.25-2.033-.741-.524-.499-.789-1.175-.789-2.01 0-.322.01-.64.032-.945.022-.313.065-.653.13-1.011.065-.362.148-.704.248-1.017a5.03 5.03 0 0 1 .418-.948c.18-.317.392-.593.63-.82.249-.24.553-.43.905-.57.35-.139.74-.209 1.156-.209.163 0 .32.067.626.266.19.124.41.265.653.42.209.134.493.26.843.372.343.111.69.167 1.033.167.343 0 .69-.056 1.033-.167.35-.113.634-.238.844-.372.245-.156.464-.298.652-.42.305-.199.463-.266.627-.266.415 0 .804.07 1.155.21.352.139.657.33.905.568.238.227.45.504.63.821.174.306.315.625.418.948.1.313.184.655.249 1.017.064.359.108.699.13 1.01.02.305.032.623.032.946zm-.938 0c0-.3-.01-.597-.03-.88a8.589 8.589 0 0 0-.117-.91 7.027 7.027 0 0 0-.219-.897 4.09 4.09 0 0 0-.34-.77 2.645 2.645 0 0 0-.463-.608 1.846 1.846 0 0 0-.602-.374 2.159 2.159 0 0 0-.739-.142c-.032.017-.09.05-.186.112-.192.126-.408.265-.66.426a4.65 4.65 0 0 1-1.06.474c-.435.14-.88.212-1.32.212a4.29 4.29 0 0 1-1.322-.213 4.646 4.646 0 0 1-1.06-.473c-.245-.157-.467-.3-.66-.426a2.496 2.496 0 0 0-.186-.112c-.27.007-.518.055-.739.142-.238.095-.441.22-.602.374a2.65 2.65 0 0 0-.463.607c-.142.25-.256.51-.34.771-.087.273-.16.575-.219.896a8.528 8.528 0 0 0-.117.91c-.02.285-.03.581-.03.88 0 .577.163 1.013.499 1.332.341.325.795.483 1.386.483h7.704c.592 0 1.046-.158 1.387-.484.335-.318.498-.754.498-1.33z"/></g></g></g></svg>