<svg width="1057" height="188" viewBox="0 0 1057 188" fill="none" xmlns="http://www.w3.org/2000/svg">
<path d="M728.276 38.4727H622.051V220.458H728.276V38.4727Z" fill="#E6E6E6" fill-opacity="0.38"/>
<path d="M708.965 38.4727H622.051V220.458H708.965V38.4727Z" fill="#E8E8E8" fill-opacity="0.41"/>
<path d="M729.54 38.4727H619.773V41.4389H729.54V38.4727Z" fill="#E0E0E0" fill-opacity="0.22"/>
<path d="M729.54 32.5293H619.773V35.4955H729.54V32.5293Z" fill="#E0E0E0" fill-opacity="0.22"/>
<path d="M727.224 35.4951H622.051V38.4614H727.224V35.4951Z" fill="#E8E8E8" fill-opacity="0.41"/>
<path d="M646.63 49.1836H630.311V63.5094H646.63V49.1836Z" fill="#E6E6E6" fill-opacity="0.38"/>
<path d="M646.63 49.1836H631.75V63.5094H646.63V49.1836Z" fill="#E8E8E8" fill-opacity="0.41"/>
<path d="M671.346 49.1836H655.027V63.5094H671.346V49.1836Z" fill="#E6E6E6" fill-opacity="0.38"/>
<path d="M671.347 49.1836H656.467V63.5094H671.347V49.1836Z" fill="#E8E8E8" fill-opacity="0.41"/>
<path d="M696.063 49.1836H679.744V63.5094H696.063V49.1836Z" fill="#E6E6E6" fill-opacity="0.38"/>
<path d="M696.062 49.1836H681.182V63.5094H696.062V49.1836Z" fill="#E8E8E8" fill-opacity="0.41"/>
<path d="M646.63 70.2881H630.311V84.6139H646.63V70.2881Z" fill="#E6E6E6" fill-opacity="0.38"/>
<path d="M646.63 70.2881H631.75V84.6139H646.63V70.2881Z" fill="#E8E8E8" fill-opacity="0.41"/>
<path d="M671.346 70.2881H655.027V84.6139H671.346V70.2881Z" fill="#E6E6E6" fill-opacity="0.38"/>
<path d="M671.347 70.2881H656.467V84.6139H671.347V70.2881Z" fill="#E8E8E8" fill-opacity="0.41"/>
<path d="M696.063 70.2881H679.744V84.6139H696.063V70.2881Z" fill="#E6E6E6" fill-opacity="0.38"/>
<path d="M696.062 70.2881H681.182V84.6139H696.062V70.2881Z" fill="#E8E8E8" fill-opacity="0.41"/>
<path d="M646.63 108.927H630.311V123.253H646.63V108.927Z" fill="#E6E6E6" fill-opacity="0.38"/>
<path d="M646.63 108.927H631.75V123.253H646.63V108.927Z" fill="#E8E8E8" fill-opacity="0.41"/>
<path d="M671.346 108.927H655.027V123.253H671.346V108.927Z" fill="#E6E6E6" fill-opacity="0.38"/>
<path d="M671.347 108.927H656.467V123.253H671.347V108.927Z" fill="#E8E8E8" fill-opacity="0.41"/>
<path d="M696.063 108.927H679.744V123.253H696.063V108.927Z" fill="#E6E6E6" fill-opacity="0.38"/>
<path d="M696.062 108.927H681.182V123.253H696.062V108.927Z" fill="#E8E8E8" fill-opacity="0.41"/>
<path d="M646.63 130.03H630.311V144.356H646.63V130.03Z" fill="#E6E6E6" fill-opacity="0.38"/>
<path d="M646.63 130.03H631.75V144.356H646.63V130.03Z" fill="#E8E8E8" fill-opacity="0.41"/>
<path d="M671.346 130.03H655.027V144.356H671.346V130.03Z" fill="#E6E6E6" fill-opacity="0.38"/>
<path d="M671.347 130.03H656.467V144.356H671.347V130.03Z" fill="#E8E8E8" fill-opacity="0.41"/>
<path d="M696.063 130.03H679.744V144.356H696.063V130.03Z" fill="#E6E6E6" fill-opacity="0.38"/>
<path d="M696.062 130.03H681.182V144.356H696.062V130.03Z" fill="#E8E8E8" fill-opacity="0.41"/>
<path d="M646.63 172.976H630.311V187.301H646.63V172.976Z" fill="#E6E6E6" fill-opacity="0.38"/>
<path d="M646.63 172.976H631.75V187.301H646.63V172.976Z" fill="#E8E8E8" fill-opacity="0.41"/>
<path d="M671.346 172.976H655.027V187.301H671.346V172.976Z" fill="#E6E6E6" fill-opacity="0.38"/>
<path d="M671.347 172.976H656.467V187.301H671.347V172.976Z" fill="#E8E8E8" fill-opacity="0.41"/>
<path d="M696.063 172.976H679.744V187.301H696.063V172.976Z" fill="#E6E6E6" fill-opacity="0.38"/>
<path d="M696.062 172.976H681.182V187.301H696.062V172.976Z" fill="#E8E8E8" fill-opacity="0.41"/>
<path d="M728.276 94.6885H622.051V96.0187H728.276V94.6885Z" fill="#E0E0E0" fill-opacity="0.22"/>
<path d="M728.276 160.748H622.051V162.079H728.276V160.748Z" fill="#E0E0E0" fill-opacity="0.22"/>
<path d="M604.118 92.9639H530.645V249.911H604.118V92.9639Z" fill="#E0E0E0" fill-opacity="0.22"/>
<path d="M583.194 92.9639H530.645V249.911H583.194V92.9639Z" fill="#E8E8E8" fill-opacity="0.41"/>
<path d="M555.623 105.861H536.062V114.2H555.623V105.861Z" fill="#E6E6E6" fill-opacity="0.38"/>
<path d="M555.622 105.861H537.363V114.2H555.622V105.861Z" fill="#E8E8E8" fill-opacity="0.41"/>
<path d="M578.236 105.861H558.676V114.2H578.236V105.861Z" fill="#E6E6E6" fill-opacity="0.38"/>
<path d="M578.225 105.861H559.979V114.2H578.225V105.861Z" fill="#E8E8E8" fill-opacity="0.41"/>
<path d="M555.623 121.549H536.062V129.887H555.623V121.549Z" fill="#E6E6E6" fill-opacity="0.38"/>
<path d="M555.622 121.549H537.363V129.887H555.622V121.549Z" fill="#E8E8E8" fill-opacity="0.41"/>
<path d="M578.236 121.549H558.676V129.887H578.236V121.549Z" fill="#E6E6E6" fill-opacity="0.38"/>
<path d="M578.225 121.549H559.979V129.887H578.225V121.549Z" fill="#E8E8E8" fill-opacity="0.41"/>
<path d="M555.623 141.599H536.062V149.937H555.623V141.599Z" fill="#E6E6E6" fill-opacity="0.38"/>
<path d="M555.622 141.599H537.363V149.937H555.622V141.599Z" fill="#E8E8E8" fill-opacity="0.41"/>
<path d="M578.236 141.599H558.676V149.937H578.236V141.599Z" fill="#E6E6E6" fill-opacity="0.38"/>
<path d="M578.225 141.599H559.979V149.937H578.225V141.599Z" fill="#E8E8E8" fill-opacity="0.41"/>
<path d="M555.623 153.112H536.062V161.451H555.623V153.112Z" fill="#E6E6E6" fill-opacity="0.38"/>
<path d="M555.622 153.112H537.363V161.451H555.622V153.112Z" fill="#E8E8E8" fill-opacity="0.41"/>
<path d="M578.236 153.112H558.676V161.451H578.236V153.112Z" fill="#E6E6E6" fill-opacity="0.38"/>
<path d="M578.225 153.112H559.979V161.451H578.225V153.112Z" fill="#E8E8E8" fill-opacity="0.41"/>
<path d="M555.623 172.041H536.062V180.379H555.623V172.041Z" fill="#E6E6E6" fill-opacity="0.38"/>
<path d="M555.622 172.041H537.363V180.379H555.622V172.041Z" fill="#E8E8E8" fill-opacity="0.41"/>
<path d="M578.236 172.041H558.676V180.379H578.236V172.041Z" fill="#E6E6E6" fill-opacity="0.38"/>
<path d="M578.225 172.041H559.979V180.379H578.225V172.041Z" fill="#E8E8E8" fill-opacity="0.41"/>
<path d="M555.623 183.555H536.062V191.893H555.623V183.555Z" fill="#E6E6E6" fill-opacity="0.38"/>
<path d="M555.622 183.555H537.363V191.893H555.622V183.555Z" fill="#E8E8E8" fill-opacity="0.41"/>
<path d="M578.236 183.555H558.676V191.893H578.236V183.555Z" fill="#E6E6E6" fill-opacity="0.38"/>
<path d="M578.225 183.555H559.979V191.893H578.225V183.555Z" fill="#E8E8E8" fill-opacity="0.41"/>
<path opacity="0.05" d="M604.118 135.019H530.645V136.458H604.118V135.019Z" fill="black" fill-opacity="0.94"/>
<path opacity="0.05" d="M604.118 166.021H530.645V167.46H604.118V166.021Z" fill="black" fill-opacity="0.94"/>
<path d="M604.117 88.3164H527.189V93.326H604.117V88.3164Z" fill="#E0E0E0" fill-opacity="0.22"/>
<path opacity="0.05" d="M604.116 88.3164H586.533V93.326H604.116V88.3164Z" fill="black" fill-opacity="0.94"/>
<path d="M858.466 11.2158H772.189V208.054H858.466V11.2158Z" fill="#E6E6E6" fill-opacity="0.38"/>
<path d="M826.528 11.2158H740.252V208.054H826.528V11.2158Z" fill="#E8E8E8" fill-opacity="0.41"/>
<path d="M818.995 24.5859H747.773V34.6162H818.995V24.5859Z" fill="#E6E6E6" fill-opacity="0.38"/>
<path d="M818.994 24.5859H750.539V34.6162H818.994V24.5859Z" fill="#E8E8E8" fill-opacity="0.41"/>
<path d="M818.995 41.4609H747.773V51.4912H818.995V41.4609Z" fill="#E6E6E6" fill-opacity="0.38"/>
<path d="M818.994 41.4609H750.539V51.4912H818.994V41.4609Z" fill="#E8E8E8" fill-opacity="0.41"/>
<path d="M818.995 58.9941H747.773V69.0244H818.995V58.9941Z" fill="#E6E6E6" fill-opacity="0.38"/>
<path d="M818.994 58.9941H750.539V69.0244H818.994V58.9941Z" fill="#E8E8E8" fill-opacity="0.41"/>
<path d="M818.995 76.5391H747.773V86.5694H818.995V76.5391Z" fill="#E6E6E6" fill-opacity="0.38"/>
<path d="M818.994 76.5391H750.539V86.5694H818.994V76.5391Z" fill="#E8E8E8" fill-opacity="0.41"/>
<path d="M818.995 94.0732H747.773V104.104H818.995V94.0732Z" fill="#E6E6E6" fill-opacity="0.38"/>
<path d="M818.994 94.0732H750.539V104.104H818.994V94.0732Z" fill="#E8E8E8" fill-opacity="0.41"/>
<path d="M818.995 111.618H747.773V121.649H818.995V111.618Z" fill="#E6E6E6" fill-opacity="0.38"/>
<path d="M818.994 111.618H750.539V121.649H818.994V111.618Z" fill="#E8E8E8" fill-opacity="0.41"/>
<path d="M818.995 130.953H747.773V140.983H818.995V130.953Z" fill="#E6E6E6" fill-opacity="0.38"/>
<path d="M818.994 130.953H750.539V140.983H818.994V130.953Z" fill="#E8E8E8" fill-opacity="0.41"/>
<path d="M818.995 150.278H747.773V160.309H818.995V150.278Z" fill="#E6E6E6" fill-opacity="0.38"/>
<path d="M818.994 150.278H750.539V160.309H818.994V150.278Z" fill="#E8E8E8" fill-opacity="0.41"/>
<path d="M818.995 169.613H747.773V179.644H818.995V169.613Z" fill="#E6E6E6" fill-opacity="0.38"/>
<path d="M818.994 169.613H750.539V179.644H818.994V169.613Z" fill="#E8E8E8" fill-opacity="0.41"/>
<path d="M860.693 9.23828H737.799V14.0392H860.693V9.23828Z" fill="#E0E0E0" fill-opacity="0.22"/>
<path d="M860.693 0.570312H737.799V5.37123H860.693V0.570312Z" fill="#E0E0E0" fill-opacity="0.22"/>
<path d="M856.626 4.4375H740.252V9.23842H856.626V4.4375Z" fill="#E8E8E8" fill-opacity="0.41"/>
<path d="M858.465 24.5752H834.424V34.6055H858.465V24.5752Z" fill="#E0E0E0" fill-opacity="0.22"/>
<path d="M858.465 41.0762H834.424V51.1065H858.465V41.0762Z" fill="#E0E0E0" fill-opacity="0.22"/>
<path d="M858.465 57.5879H834.424V67.6182H858.465V57.5879Z" fill="#E0E0E0" fill-opacity="0.22"/>
<path d="M858.465 76.5391H834.424V86.5694H858.465V76.5391Z" fill="#E0E0E0" fill-opacity="0.22"/>
<path d="M858.465 94.0732H834.424V104.104H858.465V94.0732Z" fill="#E0E0E0" fill-opacity="0.22"/>
<path d="M858.465 111.618H834.424V121.649H858.465V111.618Z" fill="#E0E0E0" fill-opacity="0.22"/>
<path d="M858.465 130.942H834.424V140.973H858.465V130.942Z" fill="#E0E0E0" fill-opacity="0.22"/>
<path d="M858.465 150.278H834.424V160.309H858.465V150.278Z" fill="#E0E0E0" fill-opacity="0.22"/>
<path d="M858.465 169.603H834.424V179.633H858.465V169.603Z" fill="#E0E0E0" fill-opacity="0.22"/>
<path d="M1053.74 162.198H1046.82V171.701H1053.74V162.198Z" fill="#E0E0E0" fill-opacity="0.22"/>
<path d="M1053.74 177.754H1046.82V187.257H1053.74V177.754Z" fill="#E0E0E0" fill-opacity="0.22"/>
<path d="M1053.75 152.65H980.947V249.844H1053.75V152.65Z" fill="#E6E6E6" fill-opacity="0.38"/>
<path d="M1041.44 152.65H980.947V249.844H1041.44V152.65Z" fill="#E8E8E8" fill-opacity="0.41"/>
<path d="M1035.59 162.209H986.391V171.712H1035.59V162.209Z" fill="#EBEBEB" fill-opacity="0.26"/>
<path d="M1035.59 177.754H986.391V187.257H1035.59V177.754Z" fill="#EBEBEB" fill-opacity="0.26"/>
<path d="M1035.59 162.209H988.205V171.712H1035.59V162.209Z" fill="#E8E8E8" fill-opacity="0.41"/>
<path d="M1035.59 177.754H988.205V187.257H1035.59V177.754Z" fill="#E8E8E8" fill-opacity="0.41"/>
<path d="M745.822 70.8262H621.889V283.144H745.822V70.8262Z" fill="#407BFF"/>
<path opacity="0.4" d="M723.295 70.8262H621.889V283.144H723.295V70.8262Z" fill="white"/>
<path d="M747.287 70.8262H619.225V74.2868H747.287V70.8262Z" fill="#407BFF"/>
<path d="M747.287 63.8945H619.225V67.3661H747.287V63.8945Z" fill="#407BFF"/>
<path d="M744.607 67.3662H621.9V70.8268H744.607V67.3662Z" fill="#E8E8E8"/>
<path d="M650.573 83.3291H631.525V100.05H650.573V83.3291Z" fill="#407BFF"/>
<path opacity="0.2" d="M650.573 83.3291H633.203V100.05H650.573V83.3291Z" fill="white"/>
<path d="M679.407 83.3291H660.359V100.05H679.407V83.3291Z" fill="#407BFF"/>
<path opacity="0.2" d="M679.406 83.3291H662.035V100.05H679.406V83.3291Z" fill="white"/>
<path d="M708.254 83.3291H689.207V100.05H708.254V83.3291Z" fill="#407BFF"/>
<path opacity="0.2" d="M708.253 83.3291H690.883V100.05H708.253V83.3291Z" fill="white"/>
<path d="M650.573 107.948H631.525V124.669H650.573V107.948Z" fill="#407BFF"/>
<path opacity="0.2" d="M650.573 107.948H633.203V124.669H650.573V107.948Z" fill="white"/>
<path d="M679.407 107.948H660.359V124.669H679.407V107.948Z" fill="#407BFF"/>
<path opacity="0.2" d="M679.406 107.948H662.035V124.669H679.406V107.948Z" fill="white"/>
<path d="M708.254 107.948H689.207V124.669H708.254V107.948Z" fill="#407BFF"/>
<path opacity="0.2" d="M708.253 107.948H690.883V124.669H708.253V107.948Z" fill="white"/>
<path d="M650.573 153.035H631.525V169.756H650.573V153.035Z" fill="#407BFF"/>
<path opacity="0.2" d="M650.573 153.035H633.203V169.756H650.573V153.035Z" fill="white"/>
<path d="M679.407 153.035H660.359V169.756H679.407V153.035Z" fill="#407BFF"/>
<path opacity="0.2" d="M679.406 153.035H662.035V169.756H679.406V153.035Z" fill="white"/>
<path d="M708.254 153.035H689.207V169.756H708.254V153.035Z" fill="#407BFF"/>
<path opacity="0.2" d="M708.253 153.035H690.883V169.756H708.253V153.035Z" fill="white"/>
<path d="M650.573 177.655H631.525V194.376H650.573V177.655Z" fill="#407BFF"/>
<path opacity="0.2" d="M650.573 177.655H633.203V194.376H650.573V177.655Z" fill="white"/>
<path d="M679.407 177.655H660.359V194.376H679.407V177.655Z" fill="#407BFF"/>
<path opacity="0.2" d="M679.406 177.655H662.035V194.376H679.406V177.655Z" fill="white"/>
<path d="M708.254 177.655H689.207V194.376H708.254V177.655Z" fill="#407BFF"/>
<path opacity="0.2" d="M708.253 177.655H690.883V194.376H708.253V177.655Z" fill="white"/>
<path opacity="0.2" d="M745.822 136.425H621.889V137.974H745.822V136.425Z" fill="white"/>
<path d="M916.473 100.05H830.76V283.144H916.473V100.05Z" fill="#407BFF"/>
<path opacity="0.4" d="M895.961 100.05H830.76V283.144H895.961V100.05Z" fill="white"/>
<path d="M859.881 115.09H837.066V124.813H859.881V115.09Z" fill="#407BFF"/>
<path opacity="0.2" d="M859.894 115.09H838.594V124.813H859.894V115.09Z" fill="white"/>
<path d="M886.275 115.09H863.461V124.813H886.275V115.09Z" fill="#407BFF"/>
<path opacity="0.2" d="M886.275 115.09H864.975V124.813H886.275V115.09Z" fill="white"/>
<path d="M859.881 133.393H837.066V143.115H859.881V133.393Z" fill="#407BFF"/>
<path opacity="0.2" d="M859.894 133.393H838.594V143.115H859.894V133.393Z" fill="white"/>
<path d="M886.275 133.393H863.461V143.115H886.275V133.393Z" fill="#407BFF"/>
<path opacity="0.2" d="M886.275 133.393H864.975V143.115H886.275V133.393Z" fill="white"/>
<path d="M859.881 156.782H837.066V166.505H859.881V156.782Z" fill="#407BFF"/>
<path opacity="0.2" d="M859.894 156.782H838.594V166.505H859.894V156.782Z" fill="white"/>
<path d="M886.275 156.782H863.461V166.505H886.275V156.782Z" fill="#407BFF"/>
<path opacity="0.2" d="M886.275 156.782H864.975V166.505H886.275V156.782Z" fill="white"/>
<path d="M859.881 170.218H837.066V179.94H859.881V170.218Z" fill="#407BFF"/>
<path opacity="0.2" d="M859.894 170.218H838.594V179.94H859.894V170.218Z" fill="white"/>
<path d="M886.275 170.218H863.461V179.94H886.275V170.218Z" fill="#407BFF"/>
<path opacity="0.2" d="M886.275 170.218H864.975V179.94H886.275V170.218Z" fill="white"/>
<path d="M916.472 94.6338H826.717V100.479H916.472V94.6338Z" fill="#407BFF"/>
<path opacity="0.2" d="M916.473 94.6338H895.961V100.479H916.473V94.6338Z" fill="black"/>
<path d="M830.746 180.896H822.674V191.981H830.746V180.896Z" fill="#E0E0E0"/>
<path d="M830.747 169.757H745.822V283.144H830.747V169.757Z" fill="#407BFF"/>
<path opacity="0.3" d="M816.405 169.745H745.822V283.144H816.405V169.745Z" fill="white"/>
<path d="M809.572 180.896H752.18V191.981H809.572V180.896Z" fill="#407BFF"/>
<g opacity="0.1">
<path opacity="0.1" d="M809.572 180.896H754.295V191.981H809.572V180.896Z" fill="white"/>
</g>
<path d="M570.979 204.583H514V283.144H604.919V204.583V169.757L570.979 204.583Z" fill="#407BFF"/>
<path d="M621.89 169.745H604.92V283.144H621.89V169.745Z" fill="#407BFF"/>
<path opacity="0.7" d="M621.89 169.745H604.92V283.144H621.89V169.745Z" fill="white"/>
<path opacity="0.7" d="M745.834 74.2871H723.295V283.144H745.834V74.2871Z" fill="white"/>
<path opacity="0.6" d="M830.746 169.745H816.404V283.144H830.746V169.745Z" fill="white"/>
<path opacity="0.7" d="M916.473 100.479H895.961V283.144H916.473V100.479Z" fill="white"/>
<path opacity="0.5" d="M928.487 69.0908H925.258V80.791H928.487V69.0908Z" fill="white"/>
<path opacity="0.5" d="M928.487 88.7783H925.258V100.479H928.487V88.7783Z" fill="white"/>
<path opacity="0.5" d="M928.487 109.245H925.258V120.945H928.487V109.245Z" fill="white"/>
<path opacity="0.5" d="M928.487 129.712H925.258V141.412H928.487V129.712Z" fill="white"/>
<path opacity="0.5" d="M928.487 150.168H925.258V161.868H928.487V150.168Z" fill="white"/>
<path opacity="0.5" d="M928.487 170.636H925.258V182.336H928.487V170.636Z" fill="white"/>
<path d="M1054.38 53.502H953.729V283.144H1054.38V53.502Z" fill="#407BFF"/>
<path d="M1017.13 53.502H916.473V283.144H1017.13V53.502Z" fill="#407BFF"/>
<path opacity="0.7" d="M1054.39 56.7969H1017.13V283.144H1054.39V56.7969Z" fill="white"/>
<path d="M1054.39 69.0908H1026.34V80.791H1054.39V69.0908Z" fill="#407BFF"/>
<path d="M1054.39 88.3379H1026.34V100.038H1054.39V88.3379Z" fill="#407BFF"/>
<path d="M1054.39 107.597H1026.34V119.297H1054.39V107.597Z" fill="#407BFF"/>
<path d="M1054.39 129.701H1026.34V141.401H1054.39V129.701Z" fill="#407BFF"/>
<path d="M1054.39 150.168H1026.34V161.868H1054.39V150.168Z" fill="#407BFF"/>
<path d="M1054.39 170.636H1026.34V182.336H1054.39V170.636Z" fill="#407BFF"/>
<path opacity="0.3" d="M1054.39 69.0908H1026.34V80.791H1054.39V69.0908Z" fill="white"/>
<path opacity="0.3" d="M1054.39 88.3379H1026.34V100.038H1054.39V88.3379Z" fill="white"/>
<path opacity="0.3" d="M1054.39 107.597H1026.34V119.297H1054.39V107.597Z" fill="white"/>
<path opacity="0.3" d="M1054.39 129.701H1026.34V141.401H1054.39V129.701Z" fill="white"/>
<path opacity="0.3" d="M1054.39 150.168H1026.34V161.868H1054.39V150.168Z" fill="white"/>
<path opacity="0.3" d="M1054.39 170.636H1026.34V182.336H1054.39V170.636Z" fill="white"/>
<path opacity="0.4" d="M1017.13 53.502H916.473V283.144H1017.13V53.502Z" fill="white"/>
<path d="M1008.36 69.0908H925.258V80.791H1008.36V69.0908Z" fill="#407BFF"/>
<path opacity="0.2" d="M1008.34 69.0908H928.475V80.791H1008.34V69.0908Z" fill="white"/>
<path d="M1008.36 88.7783H925.258V100.479H1008.36V88.7783Z" fill="#407BFF"/>
<path opacity="0.2" d="M1008.34 88.7783H928.475V100.479H1008.34V88.7783Z" fill="white"/>
<path d="M1008.36 109.245H925.258V120.945H1008.36V109.245Z" fill="#407BFF"/>
<path opacity="0.2" d="M1008.34 109.245H928.475V120.945H1008.34V109.245Z" fill="white"/>
<path d="M1008.36 129.712H925.258V141.412H1008.36V129.712Z" fill="#407BFF"/>
<path opacity="0.2" d="M1008.34 129.712H928.475V141.412H1008.34V129.712Z" fill="white"/>
<path d="M1008.36 150.168H925.258V161.868H1008.36V150.168Z" fill="#407BFF"/>
<path opacity="0.2" d="M1008.34 150.168H928.475V161.868H1008.34V150.168Z" fill="white"/>
<path d="M1008.36 170.636H925.258V182.336H1008.36V170.636Z" fill="#407BFF"/>
<path opacity="0.2" d="M1008.34 170.636H928.475V182.336H1008.34V170.636Z" fill="white"/>
<path d="M1052.23 46.6904H1017.13V51.1947H1052.23V46.6904Z" fill="#407BFF"/>
<path d="M1052.24 45.5918H916.473V51.1947H1052.24V45.5918Z" fill="#E8E8E8"/>
<path d="M1057 51.1943H913.619V56.7972H1057V51.1943Z" fill="#407BFF"/>
<path d="M1057 41.0762H913.619V46.6791H1057V41.0762Z" fill="#407BFF"/>
<path opacity="0.05" d="M1057 51.1943H913.619V56.7972H1057V51.1943Z" fill="black"/>
<path opacity="0.05" d="M1057 41.0762H913.619V46.6791H1057V41.0762Z" fill="black"/>
<path opacity="0.2" d="M916.473 148.839H830.76V150.509H916.473V148.839Z" fill="white"/>
<path opacity="0.2" d="M916.473 185.017H830.76V186.687H916.473V185.017Z" fill="white"/>
<path opacity="0.2" d="M747.286 70.8262H723.295V74.2868H747.286V70.8262Z" fill="black"/>
<path opacity="0.2" d="M747.286 63.8945H723.295V67.3551H747.286V63.8945Z" fill="black"/>
<path opacity="0.2" d="M1057 51.1943H1017.13V56.7972H1057V51.1943Z" fill="black"/>
<path opacity="0.2" d="M1057 41.0762H1017.13V46.6791H1057V41.0762Z" fill="black"/>
<path opacity="0.4" d="M570.979 204.583H514V283.144H604.919V204.583V169.757L570.979 204.583Z" fill="white"/>
<path d="M214.276 38.4727H108.051V220.458H214.276V38.4727Z" fill="#E6E6E6" fill-opacity="0.38"/>
<path d="M194.965 38.4727H108.051V220.458H194.965V38.4727Z" fill="#E8E8E8" fill-opacity="0.41"/>
<path d="M215.54 38.4727H105.773V41.4389H215.54V38.4727Z" fill="#E0E0E0" fill-opacity="0.22"/>
<path d="M215.54 32.5293H105.773V35.4955H215.54V32.5293Z" fill="#E0E0E0" fill-opacity="0.22"/>
<path d="M213.224 35.4951H108.051V38.4614H213.224V35.4951Z" fill="#E8E8E8" fill-opacity="0.41"/>
<path d="M132.63 49.1836H116.311V63.5094H132.63V49.1836Z" fill="#E6E6E6" fill-opacity="0.38"/>
<path d="M132.63 49.1836H117.75V63.5094H132.63V49.1836Z" fill="#E8E8E8" fill-opacity="0.41"/>
<path d="M157.346 49.1836H141.027V63.5094H157.346V49.1836Z" fill="#E6E6E6" fill-opacity="0.38"/>
<path d="M157.347 49.1836H142.467V63.5094H157.347V49.1836Z" fill="#E8E8E8" fill-opacity="0.41"/>
<path d="M182.063 49.1836H165.744V63.5094H182.063V49.1836Z" fill="#E6E6E6" fill-opacity="0.38"/>
<path d="M182.062 49.1836H167.182V63.5094H182.062V49.1836Z" fill="#E8E8E8" fill-opacity="0.41"/>
<path d="M132.63 70.2881H116.311V84.6139H132.63V70.2881Z" fill="#E6E6E6" fill-opacity="0.38"/>
<path d="M132.63 70.2881H117.75V84.6139H132.63V70.2881Z" fill="#E8E8E8" fill-opacity="0.41"/>
<path d="M157.346 70.2881H141.027V84.6139H157.346V70.2881Z" fill="#E6E6E6" fill-opacity="0.38"/>
<path d="M157.347 70.2881H142.467V84.6139H157.347V70.2881Z" fill="#E8E8E8" fill-opacity="0.41"/>
<path d="M182.063 70.2881H165.744V84.6139H182.063V70.2881Z" fill="#E6E6E6" fill-opacity="0.38"/>
<path d="M182.062 70.2881H167.182V84.6139H182.062V70.2881Z" fill="#E8E8E8" fill-opacity="0.41"/>
<path d="M132.63 108.927H116.311V123.253H132.63V108.927Z" fill="#E6E6E6" fill-opacity="0.38"/>
<path d="M132.63 108.927H117.75V123.253H132.63V108.927Z" fill="#E8E8E8" fill-opacity="0.41"/>
<path d="M157.346 108.927H141.027V123.253H157.346V108.927Z" fill="#E6E6E6" fill-opacity="0.38"/>
<path d="M157.347 108.927H142.467V123.253H157.347V108.927Z" fill="#E8E8E8" fill-opacity="0.41"/>
<path d="M182.063 108.927H165.744V123.253H182.063V108.927Z" fill="#E6E6E6" fill-opacity="0.38"/>
<path d="M182.062 108.927H167.182V123.253H182.062V108.927Z" fill="#E8E8E8" fill-opacity="0.41"/>
<path d="M132.63 130.03H116.311V144.356H132.63V130.03Z" fill="#E6E6E6" fill-opacity="0.38"/>
<path d="M132.63 130.03H117.75V144.356H132.63V130.03Z" fill="#E8E8E8" fill-opacity="0.41"/>
<path d="M157.346 130.03H141.027V144.356H157.346V130.03Z" fill="#E6E6E6" fill-opacity="0.38"/>
<path d="M157.347 130.03H142.467V144.356H157.347V130.03Z" fill="#E8E8E8" fill-opacity="0.41"/>
<path d="M182.063 130.03H165.744V144.356H182.063V130.03Z" fill="#E6E6E6" fill-opacity="0.38"/>
<path d="M182.062 130.03H167.182V144.356H182.062V130.03Z" fill="#E8E8E8" fill-opacity="0.41"/>
<path d="M132.63 172.976H116.311V187.301H132.63V172.976Z" fill="#E6E6E6" fill-opacity="0.38"/>
<path d="M132.63 172.976H117.75V187.301H132.63V172.976Z" fill="#E8E8E8" fill-opacity="0.41"/>
<path d="M157.346 172.976H141.027V187.301H157.346V172.976Z" fill="#E6E6E6" fill-opacity="0.38"/>
<path d="M157.347 172.976H142.467V187.301H157.347V172.976Z" fill="#E8E8E8" fill-opacity="0.41"/>
<path d="M182.063 172.976H165.744V187.301H182.063V172.976Z" fill="#E6E6E6" fill-opacity="0.38"/>
<path d="M182.062 172.976H167.182V187.301H182.062V172.976Z" fill="#E8E8E8" fill-opacity="0.41"/>
<path d="M214.276 94.6885H108.051V96.0187H214.276V94.6885Z" fill="#E0E0E0" fill-opacity="0.22"/>
<path d="M214.276 160.748H108.051V162.079H214.276V160.748Z" fill="#E0E0E0" fill-opacity="0.22"/>
<path d="M90.1183 92.9639H16.6445V249.911H90.1183V92.9639Z" fill="#E0E0E0" fill-opacity="0.22"/>
<path d="M69.1937 92.9639H16.6445V249.911H69.1937V92.9639Z" fill="#E8E8E8" fill-opacity="0.41"/>
<path d="M41.623 105.861H22.0625V114.2H41.623V105.861Z" fill="#E6E6E6" fill-opacity="0.38"/>
<path d="M41.6222 105.861H23.3633V114.2H41.6222V105.861Z" fill="#E8E8E8" fill-opacity="0.41"/>
<path d="M64.2362 105.861H44.6758V114.2H64.2362V105.861Z" fill="#E6E6E6" fill-opacity="0.38"/>
<path d="M64.2249 105.861H45.9785V114.2H64.2249V105.861Z" fill="#E8E8E8" fill-opacity="0.41"/>
<path d="M41.623 121.549H22.0625V129.887H41.623V121.549Z" fill="#E6E6E6" fill-opacity="0.38"/>
<path d="M41.6222 121.549H23.3633V129.887H41.6222V121.549Z" fill="#E8E8E8" fill-opacity="0.41"/>
<path d="M64.2362 121.549H44.6758V129.887H64.2362V121.549Z" fill="#E6E6E6" fill-opacity="0.38"/>
<path d="M64.2249 121.549H45.9785V129.887H64.2249V121.549Z" fill="#E8E8E8" fill-opacity="0.41"/>
<path d="M41.623 141.599H22.0625V149.937H41.623V141.599Z" fill="#E6E6E6" fill-opacity="0.38"/>
<path d="M41.6222 141.599H23.3633V149.937H41.6222V141.599Z" fill="#E8E8E8" fill-opacity="0.41"/>
<path d="M64.2362 141.599H44.6758V149.937H64.2362V141.599Z" fill="#E6E6E6" fill-opacity="0.38"/>
<path d="M64.2249 141.599H45.9785V149.937H64.2249V141.599Z" fill="#E8E8E8" fill-opacity="0.41"/>
<path d="M41.623 153.112H22.0625V161.451H41.623V153.112Z" fill="#E6E6E6" fill-opacity="0.38"/>
<path d="M41.6222 153.112H23.3633V161.451H41.6222V153.112Z" fill="#E8E8E8" fill-opacity="0.41"/>
<path d="M64.2362 153.112H44.6758V161.451H64.2362V153.112Z" fill="#E6E6E6" fill-opacity="0.38"/>
<path d="M64.2249 153.112H45.9785V161.451H64.2249V153.112Z" fill="#E8E8E8" fill-opacity="0.41"/>
<path d="M41.623 172.041H22.0625V180.379H41.623V172.041Z" fill="#E6E6E6" fill-opacity="0.38"/>
<path d="M41.6222 172.041H23.3633V180.379H41.6222V172.041Z" fill="#E8E8E8" fill-opacity="0.41"/>
<path d="M64.2362 172.041H44.6758V180.379H64.2362V172.041Z" fill="#E6E6E6" fill-opacity="0.38"/>
<path d="M64.2249 172.041H45.9785V180.379H64.2249V172.041Z" fill="#E8E8E8" fill-opacity="0.41"/>
<path d="M41.623 183.555H22.0625V191.893H41.623V183.555Z" fill="#E6E6E6" fill-opacity="0.38"/>
<path d="M41.6222 183.555H23.3633V191.893H41.6222V183.555Z" fill="#E8E8E8" fill-opacity="0.41"/>
<path d="M64.2362 183.555H44.6758V191.893H64.2362V183.555Z" fill="#E6E6E6" fill-opacity="0.38"/>
<path d="M64.2249 183.555H45.9785V191.893H64.2249V183.555Z" fill="#E8E8E8" fill-opacity="0.41"/>
<path opacity="0.05" d="M90.1183 135.019H16.6445V136.458H90.1183V135.019Z" fill="black" fill-opacity="0.94"/>
<path opacity="0.05" d="M90.1183 166.021H16.6445V167.46H90.1183V166.021Z" fill="black" fill-opacity="0.94"/>
<path d="M90.1172 88.3164H13.1895V93.326H90.1172V88.3164Z" fill="#E0E0E0" fill-opacity="0.22"/>
<path opacity="0.05" d="M90.1163 88.3164H72.5332V93.326H90.1163V88.3164Z" fill="black" fill-opacity="0.94"/>
<path d="M344.466 11.2158H258.189V208.054H344.466V11.2158Z" fill="#E6E6E6" fill-opacity="0.38"/>
<path d="M312.528 11.2158H226.252V208.054H312.528V11.2158Z" fill="#E8E8E8" fill-opacity="0.41"/>
<path d="M304.995 24.5859H233.773V34.6162H304.995V24.5859Z" fill="#E6E6E6" fill-opacity="0.38"/>
<path d="M304.994 24.5859H236.539V34.6162H304.994V24.5859Z" fill="#E8E8E8" fill-opacity="0.41"/>
<path d="M304.995 41.4609H233.773V51.4912H304.995V41.4609Z" fill="#E6E6E6" fill-opacity="0.38"/>
<path d="M304.994 41.4609H236.539V51.4912H304.994V41.4609Z" fill="#E8E8E8" fill-opacity="0.41"/>
<path d="M304.995 58.9941H233.773V69.0244H304.995V58.9941Z" fill="#E6E6E6" fill-opacity="0.38"/>
<path d="M304.994 58.9941H236.539V69.0244H304.994V58.9941Z" fill="#E8E8E8" fill-opacity="0.41"/>
<path d="M304.995 76.5391H233.773V86.5694H304.995V76.5391Z" fill="#E6E6E6" fill-opacity="0.38"/>
<path d="M304.994 76.5391H236.539V86.5694H304.994V76.5391Z" fill="#E8E8E8" fill-opacity="0.41"/>
<path d="M304.995 94.0732H233.773V104.104H304.995V94.0732Z" fill="#E6E6E6" fill-opacity="0.38"/>
<path d="M304.994 94.0732H236.539V104.104H304.994V94.0732Z" fill="#E8E8E8" fill-opacity="0.41"/>
<path d="M304.995 111.618H233.773V121.649H304.995V111.618Z" fill="#E6E6E6" fill-opacity="0.38"/>
<path d="M304.994 111.618H236.539V121.649H304.994V111.618Z" fill="#E8E8E8" fill-opacity="0.41"/>
<path d="M304.995 130.953H233.773V140.983H304.995V130.953Z" fill="#E6E6E6" fill-opacity="0.38"/>
<path d="M304.994 130.953H236.539V140.983H304.994V130.953Z" fill="#E8E8E8" fill-opacity="0.41"/>
<path d="M304.995 150.278H233.773V160.309H304.995V150.278Z" fill="#E6E6E6" fill-opacity="0.38"/>
<path d="M304.994 150.278H236.539V160.309H304.994V150.278Z" fill="#E8E8E8" fill-opacity="0.41"/>
<path d="M304.995 169.613H233.773V179.644H304.995V169.613Z" fill="#E6E6E6" fill-opacity="0.38"/>
<path d="M304.994 169.613H236.539V179.644H304.994V169.613Z" fill="#E8E8E8" fill-opacity="0.41"/>
<path d="M346.693 9.23828H223.799V14.0392H346.693V9.23828Z" fill="#E0E0E0" fill-opacity="0.22"/>
<path d="M346.693 0.570312H223.799V5.37123H346.693V0.570312Z" fill="#E0E0E0" fill-opacity="0.22"/>
<path d="M342.626 4.4375H226.252V9.23842H342.626V4.4375Z" fill="#E8E8E8" fill-opacity="0.41"/>
<path d="M344.465 24.5752H320.424V34.6055H344.465V24.5752Z" fill="#E0E0E0" fill-opacity="0.22"/>
<path d="M344.465 41.0762H320.424V51.1065H344.465V41.0762Z" fill="#E0E0E0" fill-opacity="0.22"/>
<path d="M344.465 57.5879H320.424V67.6182H344.465V57.5879Z" fill="#E0E0E0" fill-opacity="0.22"/>
<path d="M344.465 76.5391H320.424V86.5694H344.465V76.5391Z" fill="#E0E0E0" fill-opacity="0.22"/>
<path d="M344.465 94.0732H320.424V104.104H344.465V94.0732Z" fill="#E0E0E0" fill-opacity="0.22"/>
<path d="M344.465 111.618H320.424V121.649H344.465V111.618Z" fill="#E0E0E0" fill-opacity="0.22"/>
<path d="M344.465 130.942H320.424V140.973H344.465V130.942Z" fill="#E0E0E0" fill-opacity="0.22"/>
<path d="M344.465 150.278H320.424V160.309H344.465V150.278Z" fill="#E0E0E0" fill-opacity="0.22"/>
<path d="M344.465 169.603H320.424V179.633H344.465V169.603Z" fill="#E0E0E0" fill-opacity="0.22"/>
<path d="M539.745 162.198H532.824V171.701H539.745V162.198Z" fill="#E0E0E0" fill-opacity="0.22"/>
<path d="M539.745 177.754H532.824V187.257H539.745V177.754Z" fill="#E0E0E0" fill-opacity="0.22"/>
<path d="M539.745 152.65H466.947V249.844H539.745V152.65Z" fill="#E6E6E6" fill-opacity="0.38"/>
<path d="M527.443 152.65H466.947V249.844H527.443V152.65Z" fill="#E8E8E8" fill-opacity="0.41"/>
<path d="M521.586 162.209H472.391V171.712H521.586V162.209Z" fill="#EBEBEB" fill-opacity="0.26"/>
<path d="M521.586 177.754H472.391V187.257H521.586V177.754Z" fill="#EBEBEB" fill-opacity="0.26"/>
<path d="M521.586 162.209H474.205V171.712H521.586V162.209Z" fill="#E8E8E8" fill-opacity="0.41"/>
<path d="M521.586 177.754H474.205V187.257H521.586V177.754Z" fill="#E8E8E8" fill-opacity="0.41"/>
<path d="M231.822 70.8262H107.889V283.144H231.822V70.8262Z" fill="#407BFF"/>
<path opacity="0.4" d="M209.295 70.8262H107.889V283.144H209.295V70.8262Z" fill="white"/>
<path d="M233.287 70.8262H105.225V74.2868H233.287V70.8262Z" fill="#407BFF"/>
<path d="M233.287 63.8945H105.225V67.3661H233.287V63.8945Z" fill="#407BFF"/>
<path d="M230.607 67.3662H107.9V70.8268H230.607V67.3662Z" fill="#E8E8E8"/>
<path d="M136.573 83.3291H117.525V100.05H136.573V83.3291Z" fill="#407BFF"/>
<path opacity="0.2" d="M136.573 83.3291H119.203V100.05H136.573V83.3291Z" fill="white"/>
<path d="M165.407 83.3291H146.359V100.05H165.407V83.3291Z" fill="#407BFF"/>
<path opacity="0.2" d="M165.406 83.3291H148.035V100.05H165.406V83.3291Z" fill="white"/>
<path d="M194.254 83.3291H175.207V100.05H194.254V83.3291Z" fill="#407BFF"/>
<path opacity="0.2" d="M194.253 83.3291H176.883V100.05H194.253V83.3291Z" fill="white"/>
<path d="M136.573 107.948H117.525V124.669H136.573V107.948Z" fill="#407BFF"/>
<path opacity="0.2" d="M136.573 107.948H119.203V124.669H136.573V107.948Z" fill="white"/>
<path d="M165.407 107.948H146.359V124.669H165.407V107.948Z" fill="#407BFF"/>
<path opacity="0.2" d="M165.406 107.948H148.035V124.669H165.406V107.948Z" fill="white"/>
<path d="M194.254 107.948H175.207V124.669H194.254V107.948Z" fill="#407BFF"/>
<path opacity="0.2" d="M194.253 107.948H176.883V124.669H194.253V107.948Z" fill="white"/>
<path d="M136.573 153.035H117.525V169.756H136.573V153.035Z" fill="#407BFF"/>
<path opacity="0.2" d="M136.573 153.035H119.203V169.756H136.573V153.035Z" fill="white"/>
<path d="M165.407 153.035H146.359V169.756H165.407V153.035Z" fill="#407BFF"/>
<path opacity="0.2" d="M165.406 153.035H148.035V169.756H165.406V153.035Z" fill="white"/>
<path d="M194.254 153.035H175.207V169.756H194.254V153.035Z" fill="#407BFF"/>
<path opacity="0.2" d="M194.253 153.035H176.883V169.756H194.253V153.035Z" fill="white"/>
<path d="M136.573 177.655H117.525V194.376H136.573V177.655Z" fill="#407BFF"/>
<path opacity="0.2" d="M136.573 177.655H119.203V194.376H136.573V177.655Z" fill="white"/>
<path d="M165.407 177.655H146.359V194.376H165.407V177.655Z" fill="#407BFF"/>
<path opacity="0.2" d="M165.406 177.655H148.035V194.376H165.406V177.655Z" fill="white"/>
<path d="M194.254 177.655H175.207V194.376H194.254V177.655Z" fill="#407BFF"/>
<path opacity="0.2" d="M194.253 177.655H176.883V194.376H194.253V177.655Z" fill="white"/>
<path opacity="0.2" d="M231.822 136.425H107.889V137.974H231.822V136.425Z" fill="white"/>
<path d="M402.473 100.05H316.76V283.144H402.473V100.05Z" fill="#407BFF"/>
<path opacity="0.4" d="M381.961 100.05H316.76V283.144H381.961V100.05Z" fill="white"/>
<path d="M345.881 115.09H323.066V124.813H345.881V115.09Z" fill="#407BFF"/>
<path opacity="0.2" d="M345.894 115.09H324.594V124.813H345.894V115.09Z" fill="white"/>
<path d="M372.275 115.09H349.461V124.813H372.275V115.09Z" fill="#407BFF"/>
<path opacity="0.2" d="M372.275 115.09H350.975V124.813H372.275V115.09Z" fill="white"/>
<path d="M345.881 133.393H323.066V143.115H345.881V133.393Z" fill="#407BFF"/>
<path opacity="0.2" d="M345.894 133.393H324.594V143.115H345.894V133.393Z" fill="white"/>
<path d="M372.275 133.393H349.461V143.115H372.275V133.393Z" fill="#407BFF"/>
<path opacity="0.2" d="M372.275 133.393H350.975V143.115H372.275V133.393Z" fill="white"/>
<path d="M345.881 156.782H323.066V166.505H345.881V156.782Z" fill="#407BFF"/>
<path opacity="0.2" d="M345.894 156.782H324.594V166.505H345.894V156.782Z" fill="white"/>
<path d="M372.275 156.782H349.461V166.505H372.275V156.782Z" fill="#407BFF"/>
<path opacity="0.2" d="M372.275 156.782H350.975V166.505H372.275V156.782Z" fill="white"/>
<path d="M345.881 170.218H323.066V179.94H345.881V170.218Z" fill="#407BFF"/>
<path opacity="0.2" d="M345.894 170.218H324.594V179.94H345.894V170.218Z" fill="white"/>
<path d="M372.275 170.218H349.461V179.94H372.275V170.218Z" fill="#407BFF"/>
<path opacity="0.2" d="M372.275 170.218H350.975V179.94H372.275V170.218Z" fill="white"/>
<path d="M402.472 94.6338H312.717V100.479H402.472V94.6338Z" fill="#407BFF"/>
<path opacity="0.2" d="M402.473 94.6338H381.961V100.479H402.473V94.6338Z" fill="black"/>
<path d="M316.746 180.896H308.674V191.981H316.746V180.896Z" fill="#E0E0E0"/>
<path d="M316.747 169.757H231.822V283.144H316.747V169.757Z" fill="#407BFF"/>
<path opacity="0.3" d="M302.405 169.745H231.822V283.144H302.405V169.745Z" fill="white"/>
<path d="M295.572 180.896H238.18V191.981H295.572V180.896Z" fill="#407BFF"/>
<g opacity="0.1">
<path opacity="0.1" d="M295.572 180.896H240.295V191.981H295.572V180.896Z" fill="white"/>
</g>
<path d="M56.9794 204.583H0V283.144H90.9192V204.583V169.757L56.9794 204.583Z" fill="#407BFF"/>
<path d="M107.89 169.745H90.9199V283.144H107.89V169.745Z" fill="#407BFF"/>
<path opacity="0.7" d="M107.89 169.745H90.9199V283.144H107.89V169.745Z" fill="white"/>
<path opacity="0.7" d="M231.834 74.2871H209.295V283.144H231.834V74.2871Z" fill="white"/>
<path opacity="0.6" d="M316.746 169.745H302.404V283.144H316.746V169.745Z" fill="white"/>
<path opacity="0.7" d="M402.473 100.479H381.961V283.144H402.473V100.479Z" fill="white"/>
<path opacity="0.5" d="M414.487 69.0908H411.258V80.791H414.487V69.0908Z" fill="white"/>
<path opacity="0.5" d="M414.487 88.7783H411.258V100.479H414.487V88.7783Z" fill="white"/>
<path opacity="0.5" d="M414.487 109.245H411.258V120.945H414.487V109.245Z" fill="white"/>
<path opacity="0.5" d="M414.487 129.712H411.258V141.412H414.487V129.712Z" fill="white"/>
<path opacity="0.5" d="M414.487 150.168H411.258V161.868H414.487V150.168Z" fill="white"/>
<path opacity="0.5" d="M414.487 170.636H411.258V182.336H414.487V170.636Z" fill="white"/>
<path d="M540.384 53.502H439.729V283.144H540.384V53.502Z" fill="#407BFF"/>
<path d="M503.128 53.502H402.473V283.144H503.128V53.502Z" fill="#407BFF"/>
<path opacity="0.7" d="M540.385 56.7969H503.129V283.144H540.385V56.7969Z" fill="white"/>
<path d="M540.385 69.0908H512.34V80.791H540.385V69.0908Z" fill="#407BFF"/>
<path d="M540.385 88.3379H512.34V100.038H540.385V88.3379Z" fill="#407BFF"/>
<path d="M540.385 107.597H512.34V119.297H540.385V107.597Z" fill="#407BFF"/>
<path d="M540.385 129.701H512.34V141.401H540.385V129.701Z" fill="#407BFF"/>
<path d="M540.385 150.168H512.34V161.868H540.385V150.168Z" fill="#407BFF"/>
<path d="M540.385 170.636H512.34V182.336H540.385V170.636Z" fill="#407BFF"/>
<path opacity="0.3" d="M540.385 69.0908H512.34V80.791H540.385V69.0908Z" fill="white"/>
<path opacity="0.3" d="M540.385 88.3379H512.34V100.038H540.385V88.3379Z" fill="white"/>
<path opacity="0.3" d="M540.385 107.597H512.34V119.297H540.385V107.597Z" fill="white"/>
<path opacity="0.3" d="M540.385 129.701H512.34V141.401H540.385V129.701Z" fill="white"/>
<path opacity="0.3" d="M540.385 150.168H512.34V161.868H540.385V150.168Z" fill="white"/>
<path opacity="0.3" d="M540.385 170.636H512.34V182.336H540.385V170.636Z" fill="white"/>
<path opacity="0.4" d="M503.128 53.502H402.473V283.144H503.128V53.502Z" fill="white"/>
<path d="M494.355 69.0908H411.258V80.791H494.355V69.0908Z" fill="#407BFF"/>
<path opacity="0.2" d="M494.343 69.0908H414.475V80.791H494.343V69.0908Z" fill="white"/>
<path d="M494.355 88.7783H411.258V100.479H494.355V88.7783Z" fill="#407BFF"/>
<path opacity="0.2" d="M494.343 88.7783H414.475V100.479H494.343V88.7783Z" fill="white"/>
<path d="M494.355 109.245H411.258V120.945H494.355V109.245Z" fill="#407BFF"/>
<path opacity="0.2" d="M494.343 109.245H414.475V120.945H494.343V109.245Z" fill="white"/>
<path d="M494.355 129.712H411.258V141.412H494.355V129.712Z" fill="#407BFF"/>
<path opacity="0.2" d="M494.343 129.712H414.475V141.412H494.343V129.712Z" fill="white"/>
<path d="M494.355 150.168H411.258V161.868H494.355V150.168Z" fill="#407BFF"/>
<path opacity="0.2" d="M494.343 150.168H414.475V161.868H494.343V150.168Z" fill="white"/>
<path d="M494.355 170.636H411.258V182.336H494.355V170.636Z" fill="#407BFF"/>
<path opacity="0.2" d="M494.343 170.636H414.475V182.336H494.343V170.636Z" fill="white"/>
<path d="M538.233 46.6904H503.129V51.1947H538.233V46.6904Z" fill="#407BFF"/>
<path d="M538.245 45.5918H402.473V51.1947H538.245V45.5918Z" fill="#E8E8E8"/>
<path d="M543 51.1943H399.619V56.7972H543V51.1943Z" fill="#407BFF"/>
<path d="M543 41.0762H399.619V46.6791H543V41.0762Z" fill="#407BFF"/>
<path opacity="0.05" d="M543 51.1943H399.619V56.7972H543V51.1943Z" fill="black"/>
<path opacity="0.05" d="M543 41.0762H399.619V46.6791H543V41.0762Z" fill="black"/>
<path opacity="0.2" d="M402.473 148.839H316.76V150.509H402.473V148.839Z" fill="white"/>
<path opacity="0.2" d="M402.473 185.017H316.76V186.687H402.473V185.017Z" fill="white"/>
<path opacity="0.2" d="M233.286 70.8262H209.295V74.2868H233.286V70.8262Z" fill="black"/>
<path opacity="0.2" d="M233.286 63.8945H209.295V67.3551H233.286V63.8945Z" fill="black"/>
<path opacity="0.2" d="M543.001 51.1943H503.129V56.7972H543.001V51.1943Z" fill="black"/>
<path opacity="0.2" d="M543.001 41.0762H503.129V46.6791H543.001V41.0762Z" fill="black"/>
<path opacity="0.4" d="M56.9794 204.583H0V283.144H90.9192V204.583V169.757L56.9794 204.583Z" fill="white"/>
</svg>
