<svg xmlns="http://www.w3.org/2000/svg" width="16" height="16" viewBox="0 0 16 16"><g><g><g><path fill="#999" d="M11.5 16a4.459 4.459 0 0 1-1.53-.273 16.308 16.308 0 0 1-5.922-3.775A16.308 16.308 0 0 1 .273 6.03a4.425 4.425 0 0 1-.226-2.175A4.53 4.53 0 0 1 2.38.533 4.455 4.455 0 0 1 4.513 0a.5.5 0 0 1 .489.395l.785 3.663a.5.5 0 0 1-.136.458l-1.34 1.34a13.162 13.162 0 0 0 5.832 5.834l1.341-1.341a.5.5 0 0 1 .458-.136l3.663.785a.5.5 0 0 1 .395.489c0 .758-.18 1.476-.533 2.133a4.547 4.547 0 0 1-3.322 2.333 4.437 4.437 0 0 1-.646.047zM4.113 1.022c-1 .11-1.888.634-2.477 1.475a3.445 3.445 0 0 0-.424 3.192 15.165 15.165 0 0 0 9.098 9.098 3.445 3.445 0 0 0 3.192-.424 3.463 3.463 0 0 0 1.475-2.477l-2.98-.638-1.4 1.4a.5.5 0 0 1-.566.1 14.158 14.158 0 0 1-6.78-6.78.5.5 0 0 1 .1-.566l1.4-1.4z"/></g></g></g></svg>