<svg xmlns="http://www.w3.org/2000/svg" width="53" height="43" viewBox="0 0 53 43"><g><g><g><g><g><path fill="#ddd" d="M53 11.32v25.09c0 1.612-.705 3.124-1.763 4.182-1.058 1.108-2.52 1.763-4.182 1.763H5.945c-1.612 0-3.124-.705-4.182-1.763C.655 39.534 0 38.072 0 36.41V11.32c0-1.612.705-3.123 1.763-4.18 1.058-1.11 2.52-1.764 4.182-1.764h8.313v-.101A4.61 4.61 0 0 1 15.618 2 4.64 4.64 0 0 1 18.943.64h15.114A4.61 4.61 0 0 1 37.332 2c.856.806 1.36 2.015 1.36 3.275v.1h8.363c1.663 0 3.124.656 4.182 1.764C52.345 8.197 53 9.66 53 11.321zm-2.62 0c0-.906-.352-1.712-.957-2.317a3.234 3.234 0 0 0-2.317-.957h-9.724c-.756 0-1.36-.605-1.36-1.36V5.225c0-.555-.202-1.058-.554-1.411-.353-.353-.857-.554-1.411-.554H18.993c-.554 0-1.058.201-1.41.554-.353.353-.554.856-.554 1.41v1.462c0 .755-.605 1.36-1.36 1.36H5.944c-.907 0-1.713.353-2.318.957a3.234 3.234 0 0 0-.957 2.318V36.41c0 .907.353 1.713.957 2.317.605.605 1.411.958 2.318.958h41.11c.907 0 1.713-.353 2.318-.958.604-.604.957-1.41.957-2.317h.05z"/></g><g><path fill="#ddd" d="M35.27 15.097a12.416 12.416 0 0 1 3.627 8.767c0 3.425-1.36 6.499-3.627 8.766a12.416 12.416 0 0 1-8.767 3.627c-3.425 0-6.499-1.36-8.766-3.627a12.415 12.415 0 0 1-3.627-8.767c0-3.425 1.36-6.499 3.627-8.766a12.415 12.415 0 0 1 8.767-3.627c3.425 0 6.549 1.41 8.766 3.627zm.906 8.817a9.63 9.63 0 0 0-2.82-6.852c-1.764-1.713-4.182-2.821-6.853-2.821a9.631 9.631 0 0 0-6.851 2.821c-1.713 1.764-2.821 4.182-2.821 6.852a9.631 9.631 0 0 0 2.82 6.852c1.764 1.713 4.182 2.82 6.852 2.82s5.089-1.107 6.852-2.82c1.764-1.764 2.872-4.182 2.821-6.852z"/></g><g><path fill="#ddd" d="M44.439 16.357a2.469 2.469 0 1 0 0-4.937 2.469 2.469 0 0 0 0 4.937z"/></g></g></g></g></g></svg>