<svg xmlns="http://www.w3.org/2000/svg" width="16" height="16" viewBox="0 0 16 16"><g><g><g/><g><g><g><path fill="#232323" d="M4 0c.316 0 .571.256.571.571V4A.571.571 0 0 1 4 4.571H.571A.571.571 0 0 1 0 4V.571C0 .256.256 0 .571 0zm-.571 1.143H1.143v2.286h2.286z"/></g></g></g><g><g><g><path fill="#232323" d="M4 5.71c.316 0 .571.256.571.571V9.71a.571.571 0 0 1-.571.571H.571A.571.571 0 0 1 0 9.71V6.281c0-.315.256-.571.571-.571zm-.571 1.143H1.143v2.286h2.286z"/></g></g></g><g><g><g><path fill="#232323" d="M4 11.43c.316 0 .571.256.571.571v3.429a.571.571 0 0 1-.571.571H.571A.571.571 0 0 1 0 15.43v-3.429c0-.315.256-.571.571-.571zm-.571 1.143H1.143v2.286h2.286z"/></g></g></g><g><g><g><path fill="#232323" d="M15.434 1.71H6.291a.571.571 0 1 0 0 1.143h9.143a.571.571 0 0 0 0-1.143z"/></g></g></g><g><g><g><path fill="#232323" d="M15.434 7.43H6.291a.571.571 0 1 0 0 1.143h9.143a.571.571 0 1 0 0-1.143z"/></g></g></g><g><g><g><path fill="#232323" d="M15.434 13.14H6.291a.571.571 0 1 0 0 1.143h9.143a.571.571 0 0 0 0-1.143z"/></g></g></g></g></g></svg>