<svg width="18" height="18" viewBox="0 0 18 18" fill="none" xmlns="http://www.w3.org/2000/svg">
<path d="M15.1097 1.21289H2.87469C1.59547 1.21289 0.554688 2.25347 0.554688 3.53289V11.0205C0.554688 12.297 1.59094 13.3359 2.86645 13.3405V16.7382L7.74943 13.3405H15.1097C16.3889 13.3405 17.4297 12.2997 17.4297 11.0205V3.53289C17.4297 2.25347 16.3889 1.21289 15.1097 1.21289ZM16.4409 11.0205C16.4409 11.7544 15.8437 12.3517 15.1097 12.3517H7.4392L3.85522 14.8457V12.3517H2.87469C2.14063 12.3517 1.54346 11.7544 1.54346 11.0205V3.53289C1.54346 2.79873 2.14063 2.20166 2.87469 2.20166H15.1097C15.8437 2.20166 16.4409 2.79873 16.4409 3.53289V11.0205Z" fill="#999999"/>
<path d="M5.07031 4.70679H12.9123V5.69556H5.07031V4.70679Z" fill="#999999"/>
<path d="M5.07031 6.81616H12.9123V7.80493H5.07031V6.81616Z" fill="#999999"/>
<path d="M5.07031 8.92554H12.9123V9.91431H5.07031V8.92554Z" fill="#999999"/>
</svg>
