<svg xmlns="http://www.w3.org/2000/svg" width="34" height="34" viewBox="0 0 34 34"><g><g><g/><g><g><g><path fill="#494ecc" d="M27.2 17v1.205a2.258 2.258 0 0 1 .515 4.175l4.253 4.253h1.465c.313 0 .567.254.567.567v5.1a.567.567 0 0 1-.567.567h-13.6a.567.567 0 0 1-.566-.567v-5.1c0-.313.253-.567.566-.567H21.3l4.253-4.253a2.26 2.26 0 0 1-1.185-1.98v-.567H25.5v.567a1.133 1.133 0 1 0 1.133-1.133.567.567 0 0 1-.566-.567V17h-1.134a.567.567 0 0 1-.566-.567V8.5H13.033v10.532l2.101 2.1c.106.107.166.251.166.401V30.6h1.133V34H5.1v-3.4h1.133v-9.067c0-.15.06-.294.166-.4l2.101-2.1V8.5H.567A.567.567 0 0 1 0 7.934V5.667c0-.007.004-.012.004-.019a.564.564 0 0 1 .04-.196v-.006a.567.567 0 0 1 .113-.167.554.554 0 0 1 .053-.043.547.547 0 0 1 .078-.063l9.067-5.1c.013-.007.024-.009.039-.016.014-.007.029-.012.044-.017A.562.562 0 0 1 9.633 0H11.9c.044 0 .087.004.13.014l21.533 5.1c.017.004.03.014.046.02.03.01.06.024.089.04.097.05.176.13.227.226a.542.542 0 0 1 .038.084c.013.039.02.08.025.12.005.02.01.042.012.063v2.266a.567.567 0 0 1-.567.567H28.9v7.933a.567.567 0 0 1-.567.567zm1.7-9.633h3.967V6.233H28.9zm-8.5 20.4v3.966h12.467v-3.966zm6.233-4.866l-3.732 3.732h7.464zM27.767 8.5H25.5v5.1h2.267zm0-2.267H25.5v1.134h2.267zM10.2 5.1h1.133V1.133H10.2zm-.567 2.267h2.032l.235-.235v-.899H9.633zm.235 3.4l2.032 2.032V8.735zm-.235-1.368l.9-.899h-.9zm0 6.8l2.032-2.032-2.032-2.032zm.235 1.368l2.032 2.032v-4.064zm-.235 5.432l2.032-2.032-2.032-2.032zm.235 1.368l2.032 2.032v-4.064zm-.235 5.432l2.032-2.032-2.032-2.032zm.802.801H11.9v-1.465zM2.73 5.1h6.337V1.536zM8.5 7.367V6.233H1.133v1.134zM7.367 30.6H8.5v-9.965l-1.133 1.133zm-1.134 1.133v1.134H15.3v-1.134zm6.8-11.098V30.6h1.134v-8.832zM24.367 6.233H13.033v1.134h11.334zM28.582 5.1L12.467 1.283V5.1zm-.815 10.767v-1.134H25.5v1.134z"/></g></g></g></g></g></svg>