<svg width="18" height="19" viewBox="0 0 18 19" fill="none" xmlns="http://www.w3.org/2000/svg">
<path d="M0 2.88953C0 2.65863 0.0820313 2.46236 0.246093 2.30074C0.410156 2.1391 0.609375 2.05828 0.84375 2.05828H3.65625C3.89062 2.05828 4.08984 2.1391 4.2539 2.30074C4.41797 2.46236 4.5 2.65863 4.5 2.88953V11.202C4.5 11.4329 4.41797 11.6292 4.2539 11.7908C4.08984 11.9525 3.89062 12.0333 3.65625 12.0333H0.84375C0.609375 12.0333 0.410156 11.9525 0.246093 11.7908C0.0820313 11.6292 0 11.4329 0 11.202V2.88953ZM1.65235 9.22782C1.48828 9.38945 1.40625 9.58572 1.40625 9.81662C1.40625 10.0475 1.48828 10.2438 1.65235 10.4054C1.81641 10.5671 2.01563 10.6479 2.25 10.6479C2.48437 10.6479 2.68359 10.5671 2.84765 10.4054C3.01172 10.2438 3.09375 10.0475 3.09375 9.81662C3.09375 9.58572 3.01172 9.38945 2.84765 9.22782C2.68359 9.06618 2.48437 8.98537 2.25 8.98537C2.01563 8.98537 1.81641 9.06618 1.65235 9.22782ZM10.9688 18.6833C10.5 18.6833 10.1016 18.0137 9.77343 16.6745C9.51562 15.6585 9.22266 14.9773 8.89453 14.631C8.56641 14.3308 8.23828 13.9498 7.91015 13.4879C7.58204 13.0262 7.23047 12.5528 6.85547 12.0679C6.5039 11.5599 6.14062 11.1097 5.76563 10.7171C5.67188 10.6479 5.625 10.5555 5.625 10.4401V3.02807C5.625 2.91263 5.66015 2.82026 5.73047 2.751C5.82422 2.65863 5.92969 2.61245 6.04687 2.61245C6.44531 2.61245 7.05469 2.42773 7.875 2.05828C9.5625 1.3194 10.9688 0.949951 12.0938 0.949951H12.1992C12.6914 0.949951 13.0782 0.961497 13.3593 0.984587C13.6641 0.984587 14.0274 1.01922 14.4492 1.08849C14.8711 1.13467 15.2226 1.23858 15.5039 1.40021C15.7851 1.53875 16.0195 1.73502 16.2071 1.98901C16.4883 2.40464 16.5586 2.91263 16.4179 3.51297C16.6992 3.83624 16.8984 4.24032 17.0157 4.72521C17.1328 5.18701 17.1211 5.64883 16.9804 6.11063C17.2851 6.50316 17.4609 6.96497 17.5078 7.49605C17.5546 8.02712 17.4844 8.48892 17.2968 8.88146H17.3321C17.7773 9.32017 18 9.88589 18 10.5786C18 11.1097 17.789 11.583 17.3672 11.9987C16.9687 12.3912 16.4766 12.5875 15.8907 12.5875H12.3398C12.3633 12.7491 12.5625 13.1994 12.9375 13.9382C13.3125 14.654 13.5 15.3005 13.5 15.8779C13.5 16.4551 13.4063 16.9515 13.2187 17.3671C13.0546 17.7828 12.8203 18.0714 12.5156 18.233C12.2344 18.4178 11.9648 18.5332 11.707 18.5794C11.4727 18.6487 11.2266 18.6833 10.9688 18.6833Z" fill="#F3A4A4"/>
</svg>
