<svg xmlns="http://www.w3.org/2000/svg" width="12" height="16" viewBox="0 0 12 16"><g><g><g/><g><path fill="#232323" d="M6.032 7.885a2.365 2.365 0 0 1-1.678-.694 2.376 2.376 0 0 1 0-3.356 2.357 2.357 0 0 1 1.678-.695c.634 0 1.23.247 1.678.695.925.925.925 2.43 0 3.356a2.366 2.366 0 0 1-1.678.694zm0-3.806a1.436 1.436 0 0 0 0 2.868 1.436 1.436 0 0 0 0-2.868z"/></g><g><path fill="#232323" d="M6.037 16l-.363-.426C5.462 15.324.47 9.416.47 5.562A5.568 5.568 0 0 1 6.032 0a5.568 5.568 0 0 1 5.561 5.562c0 3.664-4.987 9.749-5.2 10.006zM6.032.939a4.628 4.628 0 0 0-4.623 4.623c0 1.432.854 3.505 2.47 5.995a37.955 37.955 0 0 0 2.147 2.966 41.541 41.541 0 0 0 2.162-3.042c1.614-2.517 2.466-4.564 2.466-5.92A4.628 4.628 0 0 0 6.032.94z"/></g></g></g></svg>