<svg xmlns="http://www.w3.org/2000/svg" width="37" height="40" viewBox="0 0 37 40"><g><g><g/><g><g><path fill="#494ecc" d="M19.24 3.969h-1.48V2.646h1.48zm2.96 0h-1.48V2.646h1.48zm-5.92 0H14.8V2.646h1.48zm1.48 1.323h1.48v1.323h-1.48zm2.96 0h1.48v1.323h-1.48zm-4.44 1.323H14.8V5.292h1.48zm1.48 1.323h1.48V9.26h-1.48zm2.96 0h1.48V9.26h-1.48zm-5.92 0h1.48V9.26H14.8zM14.8 0v1.323h-1.48v11.906h1.48v-1.984c0-.176.078-.344.217-.468a.786.786 0 0 1 .523-.194h5.92c.196 0 .385.07.523.194a.628.628 0 0 1 .217.468v1.984h1.48V1.323h-7.4V0h8.14c.196 0 .384.07.523.194a.628.628 0 0 1 .217.467v1.323h2.22c.196 0 .384.07.523.194a.628.628 0 0 1 .217.468V13.81l.718 2.566c.027.098.03.2.006.298a.633.633 0 0 1-.14.27.73.73 0 0 1-.26.187.814.814 0 0 1-.324.067H8.88a.814.814 0 0 1-.324-.067.73.73 0 0 1-.26-.187.633.633 0 0 1-.14-.27.593.593 0 0 1 .006-.298l.718-2.567V2.646c0-.176.078-.344.217-.468a.787.787 0 0 1 .523-.194h2.22V.661c0-.175.078-.343.217-.467A.787.787 0 0 1 12.58 0zm-3.168 14.552h-1.434l-.37 1.323h1.434zm.208-3.307h-1.48v1.984h1.48zm0-2.646h-1.48v1.323h1.48zm0-2.646h-1.48v1.323h1.48zm0-2.646h-1.48V4.63h1.48zm14.962 11.245h-1.434l.37 1.323h1.434zM25.16 4.63h1.48V3.307h-1.48zm0 2.646h1.48V5.953h-1.48zm0 2.646h1.48V8.599h-1.48zm0 3.307h1.48v-1.984h-1.48zm-5.92 0h1.48v-1.323h-1.48zm-2.96 0h1.48v-1.323h-1.48zm-3.492 2.646h11.424l-.37-1.323H13.158zM4.71 14.773a17.8 17.8 0 0 1 1.456-1.302l.987.986c-.471.377-.919.777-1.34 1.198zm-.856.919l1.17.809c-2.757 3.195-3.982 7.237-3.406 11.24.577 4.001 2.908 7.635 6.482 10.1l-.905 1.047c-2.198-1.521-3.988-3.462-5.239-5.681C.662 30.909-.008 28.37 0 25.797c-.014-3.659 1.343-7.216 3.855-10.105zm26.208 23.014c-.428.307-.877.6-1.332.871l-.82-1.101c.42-.25.832-.52 1.226-.802zm5.47-6.422c-.978 2.05-2.413 3.902-4.218 5.44l-1.025-.954c1.747-1.5 3.116-3.316 4.015-5.326a13.778 13.778 0 0 0 1.198-6.332 13.968 13.968 0 0 0-1.831-6.21c-1.098-1.93-2.644-3.629-4.535-4.982l.925-1.032c2.17 1.546 3.92 3.51 5.121 5.745A15.035 15.035 0 0 1 37 25.797a14.91 14.91 0 0 1-1.468 6.487z"/></g></g><g><g/><g><g><g><path fill="#494ecc" d="M11.217 26.55l-.15-.048c-.553-.154-1.064-.417-1.064-1.247 0-.689.45-1.251 1.003-1.251.525 0 .966.51.994 1.167.014.277.23.52.525.473a.499.499 0 0 0 .473-.525c-.06-1.18-.942-2.109-1.996-2.109C9.895 23.01 9 24.018 9 25.26c0 .773.314 1.786 1.79 2.208l.15.042c.554.16 1.065.417 1.065 1.247 0 .689-.45 1.251-1.003 1.251-.525 0-.961-.515-.999-1.167a.48.48 0 0 0-.525-.473.499.499 0 0 0-.473.525c.06 1.181.942 2.11 1.997 2.11 1.106 0 2.001-1.009 2.001-2.246 0-1.125-.6-1.866-1.786-2.208z"/></g></g></g><g><g><g><path fill="#494ecc" d="M17.5 23h-3.998a.502.502 0 0 0 0 1.003H17.5a.502.502 0 0 0 0-1.003z"/></g></g></g><g><g><g><path fill="#494ecc" d="M15.502 23a.502.502 0 0 0-.502.502V30.5a.502.502 0 0 0 1.003 0v-6.998a.502.502 0 0 0-.501-.502z"/></g></g></g><g><g><g><path fill="#494ecc" d="M22.003 25.002V29a2.007 2.007 0 0 1-2.001 2.002A2.004 2.004 0 0 1 18 29v-3.998C18 23.9 18.895 23 20.002 23a2 2 0 0 1 2.001 2.002zm-1.003 0c0-.549-.45-.999-.998-.999a1 1 0 0 0-.999.999V29A1 1 0 0 0 21 29z"/></g></g></g><g><g><g><path fill="#494ecc" d="M25.503 23c.825 0 1.5.675 1.5 1.5v2.002c0 .825-.675 1.5-1.5 1.5h-1.5V30.5a.502.502 0 0 1-1.003 0v-6.998c0-.277.225-.502.502-.502zm.502 1.5a.502.502 0 0 0-.502-.502h-1.5v3.005h1.5a.502.502 0 0 0 .502-.501z"/></g></g></g></g></g></g></svg>