<svg xmlns="http://www.w3.org/2000/svg" width="17" height="17" viewBox="0 0 17 17"><g><g><path fill="#999" d="M14.315 2.814c1.616 1.594 2.424 3.53 2.424 5.81s-.808 4.228-2.424 5.844c-1.594 1.594-3.53 2.39-5.81 2.39s-4.228-.796-5.844-2.39C1.067 12.852.27 10.904.27 8.624c0-2.28.797-4.216 2.39-5.81C4.278 1.198 6.225.39 8.505.39c2.28 0 4.217.808 5.81 2.424zm-4.748 7.935a1.393 1.393 0 0 0-1.063-.464c-.42 0-.785.154-1.095.464a1.444 1.444 0 0 0-.432 1.063c0 .42.144.786.432 1.096.31.287.675.431 1.095.431.42 0 .775-.144 1.063-.431.31-.31.465-.676.465-1.096 0-.42-.155-.775-.465-1.063zM7.309 9.322c0 .243.133.365.398.365h1.594c.266 0 .399-.122.399-.365l.265-4.516c0-.133-.044-.232-.133-.299a.316.316 0 0 0-.265-.133H7.442c-.11 0-.21.045-.299.133-.066.067-.1.166-.1.299z"/></g></g></svg>