<svg xmlns="http://www.w3.org/2000/svg" width="23" height="23" viewBox="0 0 23 23"><g><g><g/><g><g><g><path fill="#999" d="M17.541 2.885a2.574 2.574 0 1 1-2.574 2.574 2.568 2.568 0 0 1 2.574-2.574zm0 4.236c.917 0 1.662-.746 1.662-1.662 0-.917-.745-1.662-1.662-1.662a1.661 1.661 0 1 0 0 3.324z"/></g><g><path fill="#999" d="M13.845.544l4.82-.05c1.029 0 2.013.373 2.718 1.123.75.705 1.123 1.69 1.123 2.718L22.46 9.16c-.045.655-.283 1.311-.795 1.828L10.143 22.506l-9.649-9.65L12.017 1.34a2.437 2.437 0 0 1 1.828-.795zm7.21 9.784c.328-.328.516-.75.516-1.218l.045-4.775c0-.75-.328-1.5-.844-2.062a2.98 2.98 0 0 0-2.107-.89l-4.775.046c-.467 0-.89.188-1.218.516L1.806 12.812l8.382 8.382z"/></g></g></g></g></g></svg>