<svg xmlns="http://www.w3.org/2000/svg" width="22" height="22" viewBox="0 0 22 22"><g><g><g><path fill="#999" d="M11 22a11.003 11.003 0 0 1-8.41-3.91A11.008 11.008 0 0 1 0 11c0-2.938 1.144-5.7 3.222-7.778A10.928 10.928 0 0 1 11 0c2.938 0 5.7 1.144 7.778 3.222A10.928 10.928 0 0 1 22 11a11.008 11.008 0 0 1-3.887 8.391A11.003 11.003 0 0 1 11 22zm0-20.625c-5.307 0-9.625 4.318-9.625 9.625a9.631 9.631 0 0 0 3.401 7.342 9.627 9.627 0 0 0 13.584-1.14A9.63 9.63 0 0 0 20.625 11c0-5.307-4.318-9.625-9.625-9.625z"/></g><g><path fill="#999" d="M11.005 11A4.13 4.13 0 0 1 6.88 6.875a4.13 4.13 0 0 1 4.125-4.125 4.13 4.13 0 0 1 4.125 4.125A4.13 4.13 0 0 1 11.005 11zm0-6.875a2.753 2.753 0 0 0-2.75 2.75 2.753 2.753 0 0 0 2.75 2.75 2.753 2.753 0 0 0 2.75-2.75 2.753 2.753 0 0 0-2.75-2.75z"/></g><g><path fill="#999" d="M17.671 19.56a.69.69 0 0 1-.667-.856c.123-.491.186-1 .186-1.511 0-3.364-2.735-6.14-6.097-6.188h-.181c-3.362.049-6.097 2.824-6.097 6.188 0 .511.063 1.02.186 1.511a.688.688 0 0 1-1.334.335 7.59 7.59 0 0 1-.227-1.847c0-2 .774-3.887 2.18-5.312a7.517 7.517 0 0 1 5.275-2.25H11.11a7.517 7.517 0 0 1 5.275 2.25 7.518 7.518 0 0 1 2.18 5.313 7.59 7.59 0 0 1-.227 1.846.688.688 0 0 1-.667.52z"/></g></g></g></svg>