<svg xmlns="http://www.w3.org/2000/svg" width="20" height="20" viewBox="0 0 20 20"><g><g><g/><g><path fill="#494ecc" d="M6.213 6.384C7.204 5.372 8.4 4.866 9.8 4.866c1.4 0 2.581.506 3.544 1.518.991.982 1.487 2.187 1.487 3.616 0 1.429-.496 2.649-1.487 3.66-.963.983-2.144 1.474-3.544 1.474s-2.596-.491-3.587-1.473C5.25 12.649 4.769 11.429 4.769 10c0-1.429.481-2.634 1.444-3.616zm1.268 5.982c.642.655 1.415.982 2.319.982.904 0 1.677-.327 2.319-.982A3.258 3.258 0 0 0 13.08 10c0-.923-.32-1.711-.962-2.366-.642-.655-1.415-.982-2.319-.982-.904 0-1.677.327-2.319.982A3.258 3.258 0 0 0 6.52 10c0 .923.32 1.711.962 2.366zm8.357-8.527c.233.209.35.476.35.804 0 .327-.117.61-.35.848a.99.99 0 0 1-.788.357c-.32 0-.598-.119-.831-.357a1.17 1.17 0 0 1-.35-.848c0-.328.116-.595.35-.804.233-.238.51-.357.83-.357.322 0 .584.12.789.357zm3.718 2.054c.03.803.044 2.172.044 4.107s-.015 3.304-.044 4.107c-.087 1.816-.627 3.23-1.618 4.241-.963.982-2.334 1.503-4.113 1.563-.787.06-2.13.089-4.025.089-1.896 0-3.238-.03-4.025-.09-1.78-.089-3.15-.624-4.113-1.606a4.304 4.304 0 0 1-.918-1.25 7.426 7.426 0 0 1-.525-1.384 8.208 8.208 0 0 1-.132-1.563C.03 13.304 0 11.934 0 10c0-1.935.03-3.318.087-4.152.088-1.785.613-3.17 1.575-4.152C2.625.685 3.996.134 5.775.045 6.562.015 7.905 0 9.8 0c1.896 0 3.237.015 4.025.045 1.78.089 3.15.64 4.113 1.651.991.983 1.53 2.381 1.618 4.197zm-2.1 10c.088-.238.16-.536.219-.893.058-.387.102-.833.131-1.34.03-.535.044-.967.044-1.294v-1.384V10v-.982-1.384c0-.327-.015-.744-.044-1.25-.029-.536-.073-.982-.131-1.34a4.91 4.91 0 0 0-.219-.937c-.35-.922-.977-1.562-1.881-1.92a4.658 4.658 0 0 0-.919-.223c-.35-.06-.787-.104-1.312-.134-.496-.03-.904-.044-1.225-.044H7.48c-.32 0-.743.015-1.268.044-.496.03-.934.075-1.313.134-.35.06-.642.134-.875.223-.904.358-1.531.998-1.881 1.92a4.92 4.92 0 0 0-.219.938c-.058.357-.102.803-.131 1.339-.03.506-.044.923-.044 1.25V12.99c.03.446.058.833.088 1.16a12.057 12.057 0 0 0 .306 1.742c.379.922 1.006 1.562 1.881 1.92.233.089.525.163.875.223.38.06.817.104 1.313.134.525.03.933.044 1.225.044h4.681c.32 0 .729-.015 1.225-.044.525-.03.962-.075 1.312-.134.38-.06.686-.134.919-.223.904-.387 1.531-1.027 1.881-1.92z"/></g></g></g></svg>