<svg xmlns="http://www.w3.org/2000/svg" width="17" height="17" viewBox="0 0 17 17"><g><g><path fill="#fff" d="M5.325 5.426c.85-.86 1.875-1.29 3.075-1.29 1.2 0 2.212.43 3.038 1.29.85.835 1.274 1.86 1.274 3.074 0 1.214-.424 2.252-1.274 3.112-.826.834-1.838 1.252-3.038 1.252-1.2 0-2.225-.418-3.075-1.252-.825-.86-1.238-1.898-1.238-3.112 0-1.214.413-2.239 1.238-3.074zm1.087 5.085c.55.557 1.213.835 1.988.835.775 0 1.438-.278 1.988-.835.55-.556.825-1.227.825-2.011s-.275-1.455-.825-2.011A2.693 2.693 0 0 0 8.4 5.654c-.775 0-1.438.278-1.988.835A2.758 2.758 0 0 0 5.589 8.5c0 .784.275 1.455.825 2.011zm7.163-7.248c.2.177.3.405.3.683 0 .279-.1.519-.3.721a.852.852 0 0 1-.675.304.968.968 0 0 1-.712-.304.99.99 0 0 1-.3-.72c0-.279.1-.507.3-.684a.968.968 0 0 1 .712-.303c.275 0 .5.101.675.303zm3.188 1.746c.024.683.037 1.847.037 3.491 0 1.644-.012 2.808-.037 3.491-.076 1.543-.538 2.745-1.388 3.605-.825.835-2 1.278-3.525 1.328-.675.05-1.825.076-3.45.076-1.625 0-2.775-.025-3.45-.076-1.525-.076-2.7-.531-3.525-1.366a3.657 3.657 0 0 1-.788-1.063c-.2-.404-.35-.796-.45-1.176a6.92 6.92 0 0 1-.112-1.328C.025 11.308 0 10.144 0 8.5c0-1.644.025-2.82.075-3.529C.15 3.453.6 2.277 1.425 1.442 2.25.582 3.425.114 4.95.038 5.625.013 6.775 0 8.4 0c1.625 0 2.775.013 3.45.038 1.525.076 2.7.544 3.525 1.404.85.835 1.312 2.024 1.387 3.567zm-1.8 8.5c.075-.202.137-.455.187-.759.05-.329.088-.708.113-1.138.025-.456.037-.823.037-1.1V9.334 8.5v-.835V6.49c0-.278-.012-.633-.037-1.063a10.831 10.831 0 0 0-.113-1.138 4.146 4.146 0 0 0-.187-.797c-.3-.784-.838-1.328-1.613-1.632a4.02 4.02 0 0 0-.787-.19c-.3-.05-.676-.088-1.126-.113a18.32 18.32 0 0 0-1.05-.038H6.412c-.275 0-.637.013-1.087.038-.425.025-.8.063-1.125.114-.3.05-.55.113-.75.19-.775.303-1.313.847-1.613 1.631a4.153 4.153 0 0 0-.187.797c-.05.304-.088.683-.113 1.138-.025.43-.037.785-.037 1.063V11.042c.025.38.05.709.075.987a10.172 10.172 0 0 0 .262 1.48c.325.784.863 1.328 1.613 1.632.2.075.45.139.75.19.325.05.7.088 1.125.113.45.025.8.038 1.05.038h4.013c.274 0 .624-.013 1.05-.038.45-.025.824-.063 1.124-.114.326-.05.588-.114.788-.19.775-.328 1.313-.872 1.613-1.631z"/></g></g></svg>