<svg xmlns="http://www.w3.org/2000/svg" width="42" height="39" viewBox="0 0 42 39"><g><g/><g><g><g><path fill="#be5cde" d="M17.672 38.917c-.116 0-.232 0-.232-.1a.54.54 0 0 1-.348-.495l.58-2.975-2.436-2.083c-.116-.099-.116-.297-.116-.496.116-.198.232-.297.464-.297l3.363-.496 1.508-2.677c0-.199.232-.298.464-.298s.464.1.58.298l1.392 2.677 3.247.397c.232 0 .348.198.464.297.116.1 0 .397-.116.496l-2.435 2.083.58 2.975c0 .198 0 .396-.232.496-.232.099-.464.099-.58 0l-2.9-1.29-2.9 1.389c-.115.099-.231.099-.347.099zm-.812-5.653l1.855 1.587c.116.1.232.298.116.397l-.347 2.28 2.203-.991c.116-.1.348-.1.58 0l2.204.992-.464-2.182c0-.198 0-.298.116-.397l1.856-1.587-2.436-.297c-.232 0-.348-.1-.464-.298l-1.044-1.983-1.044 1.983a.97.97 0 0 0-.58.199z"/></g></g><g><g><path fill="#be5cde" d="M27.76 37.924c-.116 0-.232 0-.348-.1-.232-.098-.232-.297-.232-.495l.464-2.48c0-.297.348-.495.696-.396.348 0 .58.297.464.595l-.232 1.487 1.508-.694c.232-.099.347-.099.58 0l1.507.694-.464-1.586c0-.199 0-.298.116-.397l1.276-1.09-1.74-.2c-.232 0-.348-.098-.464-.297l-.695-1.289-.696 1.29c-.116.297-.464.396-.812.198-.348-.1-.464-.397-.232-.695l1.276-2.28c0-.1.232-.199.464-.199.231 0 .463.1.58.298l1.16 2.082 2.55.298c.233 0 .349.198.465.297.116.199 0 .397-.116.496l-1.856 1.587.464 2.28c0 .2 0 .398-.232.497-.232.099-.464.099-.58 0l-2.435-.992-2.204 1.09h-.232z"/></g></g><g><g><path fill="#be5cde" d="M14.075 37.924s-.116 0-.232-.1l-2.204-.991-2.203.992c-.232.099-.464.099-.696 0a.705.705 0 0 1-.232-.496l.464-2.281-1.856-1.587C7 33.361 7 33.164 7 32.965c.116-.198.232-.297.464-.297l2.552-.298 1.16-2.082c0-.199.231-.298.463-.298s.464.1.58.298l1.276 2.28c.116.199 0 .496-.232.695-.464.099-.812 0-.928-.298l-.696-1.289-.696 1.29c-.116.198-.232.297-.464.297l-1.74.198 1.277 1.091c.116.1.231.298.116.397L9.9 36.535l1.507-.694c.232-.099.348-.099.58 0l1.508.694-.464-1.586c0-.298.116-.496.464-.595.348 0 .58.099.696.396l.464 2.48a.705.705 0 0 1-.232.496c-.116.198-.232.198-.348.198z"/></g></g></g></g></svg>