<svg xmlns="http://www.w3.org/2000/svg" width="18" height="18" viewBox="0 0 18 18"><g><g><g/><g><path fill="#ddd" d="M0 10.202c0 .231.082.427.246.589a.82.82 0 0 0 .598.242h2.812a.82.82 0 0 0 .598-.242.796.796 0 0 0 .246-.589V1.89a.796.796 0 0 0-.246-.59.82.82 0 0 0-.598-.242H.844a.82.82 0 0 0-.598.243A.796.796 0 0 0 0 1.89zm2.25-2.217a.82.82 0 0 1 .598.243.796.796 0 0 1 .246.589c0 .23-.082.427-.246.588a.82.82 0 0 1-.598.243.82.82 0 0 1-.598-.243.796.796 0 0 1-.246-.588c0-.231.082-.427.246-.59a.82.82 0 0 1 .598-.242zm9.457 9.594c.258-.046.527-.161.809-.346.304-.162.539-.45.703-.866.187-.416.281-.912.281-1.49 0-.576-.188-1.223-.563-1.939-.374-.739-.574-1.189-.597-1.35h3.55c.587 0 1.079-.197 1.477-.59.422-.415.633-.888.633-1.42 0-.692-.223-1.258-.668-1.696h-.035c.187-.393.258-.855.21-1.386a2.577 2.577 0 0 0-.527-1.385c.141-.462.153-.924.036-1.386-.118-.485-.317-.889-.598-1.212.14-.6.07-1.108-.21-1.524A1.915 1.915 0 0 0 15.503.4C15.223.24 14.87.135 14.449.09a6.868 6.868 0 0 0-1.09-.104A15.006 15.006 0 0 0 12.2-.05h-.105c-1.125 0-2.531.37-4.219 1.108-.82.37-1.43.554-1.828.554a.44.44 0 0 0-.317.139.371.371 0 0 0-.105.277V9.44c0 .116.047.208.14.277.376.393.739.843 1.09 1.351.375.485.727.958 1.055 1.42.328.462.656.843.985 1.143.328.346.62 1.027.878 2.043.329 1.34.727 2.01 1.196 2.01.258 0 .504-.035.738-.105z"/></g></g></g></svg>