<svg xmlns="http://www.w3.org/2000/svg" width="18" height="18" viewBox="0 0 18 18"><g><g><g/><g><path fill="#ddd" d="M.844 7.708a.82.82 0 0 0-.598.243A.796.796 0 0 0 0 8.54v8.312c0 .23.082.427.246.589a.82.82 0 0 0 .598.242h2.812a.82.82 0 0 0 .598-.242.796.796 0 0 0 .246-.589V8.54a.796.796 0 0 0-.246-.59.82.82 0 0 0-.598-.242zm.562 7.759c0-.231.082-.428.246-.59a.82.82 0 0 1 .598-.242.82.82 0 0 1 .598.243.796.796 0 0 1 .246.589c0 .23-.082.427-.246.588a.82.82 0 0 1-.598.243.82.82 0 0 1-.598-.243.795.795 0 0 1-.246-.588zm11.813-14.2C13.055.85 12.82.561 12.516.4c-.282-.184-.551-.3-.809-.346a2.59 2.59 0 0 0-.738-.104c-.469 0-.867.67-1.196 2.009-.257 1.016-.55 1.697-.878 2.043-.375.347-.88.97-1.512 1.87-.61.878-1.149 1.56-1.617 2.044a.328.328 0 0 0-.141.277v7.412c0 .116.035.208.105.277a.44.44 0 0 0 .317.139c.398 0 1.008.184 1.828.554 1.688.739 3.094 1.108 4.219 1.108h.105c.68 0 1.207-.011 1.582-.034a5.328 5.328 0 0 0 1.336-.277c.492-.162.856-.405 1.09-.728.281-.415.352-.923.21-1.524a2.82 2.82 0 0 0 .599-1.177 2.652 2.652 0 0 0-.036-1.42c.305-.393.48-.855.528-1.386.047-.53-.024-.993-.211-1.385h.035c.445-.439.668-1.005.668-1.697 0-.531-.211-.993-.633-1.386a1.964 1.964 0 0 0-1.476-.623H12.34c.023-.162.223-.6.598-1.316.375-.74.562-1.397.562-1.975 0-.577-.094-1.073-.281-1.489z"/></g></g></g></svg>