<svg xmlns="http://www.w3.org/2000/svg" width="11" height="15" viewBox="0 0 11 15"><g><g><g><g><path fill="#494ecc" d="M10.777 5.273c0 .954-.257 1.888-.744 2.702l-4.08 6.811A.44.44 0 0 1 5.58 15h-.003a.44.44 0 0 1-.374-.208L1.017 8.046A5.262 5.262 0 0 1 .23 5.273 5.28 5.28 0 0 1 5.503 0a5.28 5.28 0 0 1 5.274 5.273zM9.279 7.524a4.39 4.39 0 0 0 .622-2.25c0-2.424-1.974-4.4-4.398-4.4a4.41 4.41 0 0 0-4.4 4.4c0 .818.232 1.617.661 2.31l3.806 6.132z"/></g></g></g><g><path fill="#494ecc" d="M8.133 5.277a2.632 2.632 0 0 1-2.636 2.636A2.633 2.633 0 0 1 2.86 5.277 2.64 2.64 0 0 1 5.497 2.64a2.64 2.64 0 0 1 2.636 2.637zm-.876 0c0-.97-.791-1.764-1.76-1.764a1.77 1.77 0 0 0-1.764 1.764 1.762 1.762 0 1 0 3.524 0z"/></g></g></svg>