<svg xmlns="http://www.w3.org/2000/svg" width="180" height="39" viewBox="0 0 180 39"><defs><linearGradient id="24vxa" x1="29.04" x2="29.04" y1="38.19" y2=".63" gradientUnits="userSpaceOnUse"><stop offset="0" stop-color="#9b00cd"/><stop offset="1" stop-color="#00cdff"/></linearGradient></defs><g><g><g><path fill="url(#24vxa)" d="M8.487 33.002c-.299.23-.471.541-.494.909-.023.38.103.713.367.977l2.932 2.933c.264.264.597.391.965.368.38-.035.69-.196.92-.495l8.275-10.833a.829.829 0 0 0-.068-1.104l-.966-.966a.841.841 0 0 0-1.103-.08zm28.138-15.881H26.52v2.84h10.104zm0 3.945H26.52v2.84h10.104zm0-11.834H26.52v2.829h10.104zm-1.678-3.53H28.2L26.52 8.117h10.104zm1.678 7.475H26.52v2.84h10.104zm-14.92-8.453a13.89 13.89 0 0 0-4.092 9.867c0 3.864 1.564 7.349 4.092 9.879a13.903 13.903 0 0 0 9.874 4.094c3.85 0 7.333-1.564 9.862-4.094a14.004 14.004 0 0 0 3.414-5.555.352.352 0 0 0-.058-.299.308.308 0 0 0-.264-.138h-2.138a.577.577 0 0 0-.54.356 11.112 11.112 0 0 1-2.414 3.623 11.044 11.044 0 0 1-7.862 3.266c-3.08 0-5.862-1.254-7.874-3.266a11.1 11.1 0 0 1-3.16-6.44h5.068v-2.84h-5.069a11.166 11.166 0 0 1 3.161-6.452A11.089 11.089 0 0 1 31.58 3.47c3.069 0 5.85 1.242 7.862 3.255a11.167 11.167 0 0 1 3.16 6.451H37.81v2.841h7.195a.51.51 0 0 0 .494-.471 13.89 13.89 0 0 0-4.057-10.822A13.896 13.896 0 0 0 31.579.63a13.903 13.903 0 0 0-9.874 4.094z"/></g><g><path fill="#2d50cd" d="M121.07 23.444a1 1 0 0 1-.851-.449c-1.954-2.817-3.896-5.623-5.85-8.429a.811.811 0 0 1 .011-.966l5.38-7.394a.998.998 0 0 1 .839-.426h2.931c.08 0 .149.046.195.115a.21.21 0 0 1-.023.218l-5.896 7.901 6.436 9.097c.046.069.058.149.023.218-.046.069-.103.115-.184.115zm-7.943-.425c0 .23-.195.414-.425.414h-2.414a.412.412 0 0 1-.413-.414v-6.245c-1.667.621-3.242.931-4.736.931-2.253 0-3.989-.54-5.207-1.621-1.218-1.093-1.828-2.645-1.828-4.68v-5.21c0-.23.184-.414.414-.414h2.414c.23 0 .425.184.425.414v4.853c0 1.242.357 2.196 1.081 2.852.724.655 1.758.978 3.103.978 1.529 0 2.966-.311 4.334-.932V6.194c0-.23.184-.414.413-.414h2.414c.23 0 .425.184.425.414zM83.231 5.78c.23 0 .414.184.414.414v12.121L93.128 5.78h2.632c.23 0 .413.184.413.414v16.825c0 .23-.184.414-.413.414h-2.391a.422.422 0 0 1-.425-.414V10.92l-9.472 12.512H80.83a.42.42 0 0 1-.414-.414V6.194a.42.42 0 0 1 .414-.414zm-5.368 10.017c.586.735.885 1.644.885 2.736 0 1.553-.575 2.76-1.713 3.611-1.149.863-2.804 1.289-4.965 1.289h-3a.412.412 0 0 1-.414-.414v-1.691c0-.23.184-.414.414-.414h2.897c2.321 0 3.47-.874 3.47-2.634 0-1.713-1.149-2.564-3.47-2.564H66.92v7.302c0 .23-.184.414-.414.414h-2.391a.422.422 0 0 1-.425-.414V6.194c0-.23.195-.414.425-.414h7.471c1.977 0 3.529.391 4.644 1.184 1.103.782 1.655 1.91 1.655 3.347 0 .931-.218 1.725-.667 2.403-.448.667-1.092 1.185-1.93 1.541 1.126.3 1.988.817 2.574 1.541zm-6.552-2.485c1.058 0 1.862-.206 2.414-.62.563-.426.84-1.047.84-1.875 0-.817-.277-1.449-.84-1.875-.552-.425-1.356-.643-2.414-.643h-4.39v5.014zM58.725 6.529c1.127.506 2 1.23 2.61 2.173.597.943.907 2.058.907 3.358 0 1.277-.31 2.392-.908 3.335-.609.955-1.482 1.679-2.609 2.185-1.138.506-2.471.759-4 .759h-1.839a.412.412 0 0 1-.414-.414V15.98c0-.23.184-.414.414-.414h1.69c1.425 0 2.517-.31 3.253-.908.735-.61 1.103-1.472 1.103-2.599 0-1.127-.368-1.99-1.103-2.599-.736-.61-1.828-.909-3.253-.909h-3.84v14.467c0 .23-.183.414-.413.414h-2.437a.422.422 0 0 1-.425-.413V6.194c0-.23.195-.414.425-.414h6.84c1.528 0 2.861.253 4 .747zM15.68 23.017c0 .23-.195.414-.425.414h-2.39a.412.412 0 0 1-.415-.413V8.551H3.3v14.466c0 .23-.195.414-.424.414H.484a.412.412 0 0 1-.414-.413V6.194c0-.23.184-.414.414-.414h14.77c.23 0 .425.184.425.414zM127.771 5.78c.23 0 .414.184.414.414v12.121l9.483-12.535h2.632c.23 0 .414.184.414.414v16.825c0 .23-.184.414-.414.414h-2.402a.42.42 0 0 1-.414-.414V10.92l-9.483 12.512h-2.632a.412.412 0 0 1-.414-.414V6.194c0-.23.184-.414.414-.414z"/></g><g><g><text dominant-baseline="text-before-edge" style="font-kerning:normal" fill="#9b00cd" font-family="'Verdana','Verdana'" font-size="8.83" transform="translate(46 24)"><tspan style="font-kerning:normal">п</tspan></text></g></g><g><g><text dominant-baseline="text-before-edge" style="font-kerning:normal" fill="#9b00cd" font-family="'Verdana','Verdana'" font-size="8.83" transform="translate(54 24)"><tspan style="font-kerning:normal">о</tspan></text></g></g><g><g><text dominant-baseline="text-before-edge" style="font-kerning:normal" fill="#9b00cd" font-family="'Verdana','Verdana'" font-size="8.83" transform="translate(62 24)"><tspan style="font-kerning:normal">д</tspan></text></g></g><g><g><text dominant-baseline="text-before-edge" style="font-kerning:normal" fill="#9b00cd" font-family="'Verdana','Verdana'" font-size="8.83" transform="translate(70 24)"><tspan style="font-kerning:normal">б</tspan></text></g></g><g><g><text dominant-baseline="text-before-edge" style="font-kerning:normal" fill="#9b00cd" font-family="'Verdana','Verdana'" font-size="8.83" transform="translate(77 24)"><tspan style="font-kerning:normal">о</tspan></text></g></g><g><g><text dominant-baseline="text-before-edge" style="font-kerning:normal" fill="#9b00cd" font-family="'Verdana','Verdana'" font-size="8.83" transform="translate(85 24)"><tspan style="font-kerning:normal">р</tspan></text></g></g><g><g><text dominant-baseline="text-before-edge" style="font-kerning:normal" fill="#9b00cd" font-family="'Verdana','Verdana'" font-size="8.83" transform="translate(97 24)"><tspan style="font-kerning:normal">н</tspan></text></g></g><g><g><text dominant-baseline="text-before-edge" style="font-kerning:normal" fill="#9b00cd" font-family="'Verdana','Verdana'" font-size="8.83" transform="translate(105 24)"><tspan style="font-kerning:normal">о</tspan></text></g></g><g><g><text dominant-baseline="text-before-edge" style="font-kerning:normal" fill="#9b00cd" font-family="'Verdana','Verdana'" font-size="8.83" transform="translate(112 24)"><tspan style="font-kerning:normal">в</tspan></text></g></g><g><g><text dominant-baseline="text-before-edge" style="font-kerning:normal" fill="#9b00cd" font-family="'Verdana','Verdana'" font-size="8.83" transform="translate(120 24)"><tspan style="font-kerning:normal">о</tspan></text></g></g><g><g><text dominant-baseline="text-before-edge" style="font-kerning:normal" fill="#9b00cd" font-family="'Verdana','Verdana'" font-size="8.83" transform="translate(127 24)"><tspan style="font-kerning:normal">с</tspan></text></g></g><g><g><text dominant-baseline="text-before-edge" style="font-kerning:normal" fill="#9b00cd" font-family="'Verdana','Verdana'" font-size="8.83" transform="translate(134 24)"><tspan style="font-kerning:normal">т</tspan></text></g></g><g><g><text dominant-baseline="text-before-edge" style="font-kerning:normal" fill="#9b00cd" font-family="'Verdana','Verdana'" font-size="8.83" transform="translate(141 24)"><tspan style="font-kerning:normal">р</tspan></text></g></g><g><g><text dominant-baseline="text-before-edge" style="font-kerning:normal" fill="#9b00cd" font-family="'Verdana','Verdana'" font-size="8.83" transform="translate(149 24)"><tspan style="font-kerning:normal">о</tspan></text></g></g><g><g><text dominant-baseline="text-before-edge" style="font-kerning:normal" fill="#9b00cd" font-family="'Verdana','Verdana'" font-size="8.83" transform="translate(157 24)"><tspan style="font-kerning:normal">е</tspan></text></g></g><g><g><text dominant-baseline="text-before-edge" style="font-kerning:normal" fill="#9b00cd" font-family="'Verdana','Verdana'" font-size="8.83" transform="translate(164 24)"><tspan style="font-kerning:normal">к</tspan></text></g></g><g><path fill="#9b00cd" d="M179.92 6.148a.28.28 0 0 0-.012-.253.23.23 0 0 0-.207-.115h-2.437a.617.617 0 0 0-.552.333l-5.195 10.028-5.046-10.016a.6.6 0 0 0-.563-.345h-2.69c-.092 0-.172.035-.218.115a.28.28 0 0 0-.012.253l6.84 12.8-.276.425c-.69 1.093-1.564 1.645-2.621 1.645-.368 0-.805-.081-1.333-.219a.411.411 0 0 0-.506.276l-.563 1.817a.421.421 0 0 0 .252.518 6.523 6.523 0 0 0 2.23.402c1.092 0 2.104-.31 3.035-.943.93-.632 1.735-1.575 2.402-2.84zm-35.081 17.457c.575 0 1.057-.196 1.46-.587.402-.39.609-.897.609-1.506 0-.621-.195-1.127-.598-1.506-.39-.391-.885-.587-1.471-.587-.586 0-1.08.196-1.471.587-.403.379-.598.885-.598 1.506 0 .61.207 1.115.61 1.506.401.391.884.587 1.459.587zm11.15-17.825h-6.851a.412.412 0 0 0-.414.414v16.825c0 .23.184.414.414.414h2.448c.23 0 .414-.184.414-.414V8.552h3.839c1.425 0 2.506.299 3.253.908.736.61 1.103 1.472 1.103 2.599 0 1.127-.367 1.99-1.103 2.599-.747.598-1.828.909-3.253.909h-1.69a.412.412 0 0 0-.413.414v1.943c0 .23.183.414.413.414h1.84c1.528 0 2.862-.253 3.988-.759 1.138-.506 2.011-1.23 2.61-2.185.608-.943.907-2.058.907-3.335 0-1.3-.299-2.415-.908-3.358-.598-.943-1.471-1.667-2.61-2.173-1.125-.495-2.459-.748-3.988-.748z"/></g></g></g></svg>