<svg xmlns="http://www.w3.org/2000/svg" width="16" height="12" viewBox="0 0 16 12"><g><g><g/><g><g><g><path fill="#999" d="M14.047-.09c1.079 0 1.956.88 1.953 1.96v8.26c0 1.079-.877 1.956-1.956 1.956H1.957A1.958 1.958 0 0 1 0 10.13V1.867C0 .787.877-.09 1.957-.09zm1.06 10.22V1.87c0-.586-.478-1.063-1.063-1.063H1.957C1.37.807.894 1.284.894 1.87v8.26c0 .586.477 1.062 1.063 1.062h12.09c.586 0 1.062-.476 1.062-1.062z"/></g><g><path fill="#999" d="M10.095 5.902l3.913-3.51a.45.45 0 0 0 .033-.631.45.45 0 0 0-.632-.034L8.013 6.571 6.96 5.63a.662.662 0 0 0-.08-.073L2.596 1.724a.446.446 0 0 0-.632.037.446.446 0 0 0 .037.632L5.96 5.932 2.017 9.623a.449.449 0 0 0 .613.656l4.002-3.745 1.086.97a.447.447 0 0 0 .596-.003l1.115-1 3.98 3.781a.446.446 0 0 0 .616-.649z"/></g></g></g></g></g></svg>