<svg width="15" height="15" viewBox="0 0 15 15" fill="none" xmlns="http://www.w3.org/2000/svg">
<path d="M9.26378 10.0537C9.44332 10.5647 9.5538 11.0619 9.59524 11.5452C9.63667 12.0286 9.57452 12.5051 9.40879 12.9746C9.27068 13.4442 9.029 13.8516 8.68373 14.1969C8.54562 14.335 8.3799 14.404 8.18655 14.404C7.9932 14.404 7.82747 14.335 7.68936 14.1969L4.87198 11.3795L2.71752 13.534C2.6899 13.5616 2.65537 13.5823 2.61394 13.5961L1.12238 14.0933C1.03952 14.1209 0.963561 14.1002 0.894507 14.0311C0.825454 13.9621 0.804738 13.8861 0.832359 13.8033L1.32954 12.3117C1.34335 12.2703 1.36407 12.2358 1.39169 12.2081L3.54616 10.0537L0.728779 7.23629C0.590672 7.09819 0.521619 6.93246 0.521619 6.73911C0.521619 6.54576 0.590672 6.38003 0.728779 6.24192C1.22596 5.74474 1.84744 5.45472 2.59322 5.37185C3.339 5.28899 4.09858 5.38566 4.87198 5.66188L7.56507 3.46598L6.69499 2.5959C6.55689 2.4578 6.48783 2.29207 6.48783 2.09872C6.48783 1.90537 6.55689 1.73964 6.69499 1.60154L7.68936 0.607167C7.82747 0.46906 7.9932 0.400007 8.18655 0.400007C8.3799 0.400007 8.54562 0.46906 8.68373 0.607167L14.3185 6.24192C14.4566 6.38003 14.5256 6.54576 14.5256 6.73911C14.5256 6.93246 14.4566 7.09819 14.3185 7.23629L13.3241 8.23066C13.186 8.36877 13.0203 8.43782 12.8269 8.43782C12.6336 8.43782 12.4679 8.36877 12.3297 8.23066L11.4597 7.36059L9.26378 10.0537Z" fill="white"/>
</svg>
