<svg xmlns="http://www.w3.org/2000/svg" width="16" height="16" viewBox="0 0 16 16"><g><g><path fill="#999" d="M15.163 2.961c.54.54.837 1.257.837 2.02 0 .763-.297 1.48-.837 2.02l-.331.331-.844-.844-3.07 3.07a3.19 3.19 0 0 1 .633 1.918c0 .86-.334 1.666-.941 2.274l-1.533 1.532-3.066-3.065-3.781 3.782H0v-2.23l3.782-3.782L.716 6.922 2.25 5.389a3.22 3.22 0 0 1 4.19-.308l3.072-3.07-.845-.844.332-.332a2.86 2.86 0 0 1 4.04 0zM5.35 11.554l-.904-.904-3.507 3.507v.904h.903zm7.976-5.729l-3.152-3.151-3.71 3.71-.33-.332a2.28 2.28 0 0 0-3.221 0l-.87.87 7.035 7.035.87-.87c.43-.43.667-1.002.667-1.61 0-.609-.237-1.18-.667-1.61l-.332-.332zm1.466.14c.177-.294.271-.632.271-.984 0-.512-.2-.994-.561-1.357l-2.127-2.126a1.922 1.922 0 0 0-2.34-.29z"/></g></g></svg>