<svg width="17" height="17" viewBox="0 0 17 17" fill="none" xmlns="http://www.w3.org/2000/svg">
<path d="M2.65625 2.81445C4.27214 1.19857 6.22005 0.390625 8.5 0.390625C10.7799 0.390625 12.7168 1.19857 14.3105 2.81445C15.9264 4.4082 16.7344 6.34505 16.7344 8.625C16.7344 10.9049 15.9264 12.8529 14.3105 14.4688C12.7168 16.0625 10.7799 16.8594 8.5 16.8594C6.22005 16.8594 4.27214 16.0625 2.65625 14.4688C1.0625 12.8529 0.265625 10.9049 0.265625 8.625C0.265625 6.34505 1.0625 4.4082 2.65625 2.81445ZM13.2812 9.55469V7.69531C13.2812 7.42969 13.1484 7.29688 12.8828 7.29688H9.82812V4.24219C9.82812 3.97656 9.69531 3.84375 9.42969 3.84375H7.57031C7.30469 3.84375 7.17188 3.97656 7.17188 4.24219V7.29688H4.11719C3.85156 7.29688 3.71875 7.42969 3.71875 7.69531V9.55469C3.71875 9.82031 3.85156 9.95312 4.11719 9.95312H7.17188V13.0078C7.17188 13.2734 7.30469 13.4062 7.57031 13.4062H9.42969C9.69531 13.4062 9.82812 13.2734 9.82812 13.0078V9.95312H12.8828C13.1484 9.95312 13.2812 9.82031 13.2812 9.55469Z" fill="#6AD181"/>
</svg>
