<svg xmlns="http://www.w3.org/2000/svg" width="13" height="13" viewBox="0 0 13 13"><g><g><path fill="#ddd" d="M13 6.5c0 3.584-2.916 6.5-6.5 6.5A6.507 6.507 0 0 1 0 6.5C0 2.916 2.916 0 6.5 0S13 2.916 13 6.5zm-5.958 3.52a.813.813 0 1 0-1.627.003.813.813 0 0 0 1.627-.002zm0-2.49a2.705 2.705 0 0 0 2.166-2.655A2.712 2.712 0 0 0 6.5 2.167a2.712 2.712 0 0 0-2.708 2.708v.27c0 .15.12.272.27.272h1.084a.27.27 0 0 0 .27-.271v-.271a1.085 1.085 0 0 1 2.167 0c0 .597-.486 1.083-1.083 1.083s-1.083.486-1.083 1.084v1.354c0 .15.12.27.27.27h1.084a.27.27 0 0 0 .27-.27z"/></g></g></svg>