<svg xmlns="http://www.w3.org/2000/svg" width="35" height="35" viewBox="0 0 35 35"><g><g><g/><g><path fill="#232323" d="M31.14 20.715a2.91 2.91 0 0 1 3.88 1.061.457.457 0 0 1-.133.613l-10.6 7.278a.447.447 0 0 1-.056.033 7.93 7.93 0 0 1-4.901.692l-6.129-1.129a1.813 1.813 0 0 0-1.351.165l-3.013 1.905.968 3.174a.457.457 0 0 1-.438.59H2.004a.457.457 0 0 1-.454-.401L-.087 21.277a.457.457 0 0 1 .454-.512h4.91a.457.457 0 0 1 .437.324l.576 1.892c.492-.147.945-.4 1.329-.74l1.015-.904a7.213 7.213 0 0 1 7.536-.757l.42.203c.597.288 1.25.437 1.912.438h3.056l2.297-1.249a3.24 3.24 0 0 1 3.71.335l.426-.23.01-.005c.964-.488 2.228-.145 2.958.741zm-5.82 1.84c.237.301.423.64.55 1l.236-.124 4.02-2.169c-.448-.427-1.15-.656-1.707-.377zm-1.997-1.254c.471.103.916.303 1.305.588l2.044-1.1a2.324 2.324 0 0 0-2.364-.023l-.01.006zM8.75 34.183L4.938 21.68H.883l1.525 12.504zm25.227-12.278a1.997 1.997 0 0 0-2.403-.385l-5.039 2.717-.477.251c.005.073.008.147.008.22a.457.457 0 0 1-.457.458h-.02l-3.478-.158a16.755 16.755 0 0 0-3.05.14.457.457 0 0 1-.125-.905 17.696 17.696 0 0 1 3.216-.148l2.955.133a2.579 2.579 0 0 0-2.529-2.094h-4.077a5.334 5.334 0 0 1-2.31-.529l-.42-.203a6.302 6.302 0 0 0-6.544.63l-1 .89a4.438 4.438 0 0 1-1.67.934l2.003 6.57 2.812-1.777a2.725 2.725 0 0 1 2.008-.282l6.114 1.126a7.01 7.01 0 0 0 4.302-.598z"/></g><g><path fill="#232323" d="M4.292 31.272a1.44 1.44 0 0 1 1.816-.18 1.439 1.439 0 1 1-1.816.18zm1.017.492a.526.526 0 1 0 .001 1.052.526.526 0 0 0-.001-1.052z"/></g><g><path fill="#232323" d="M20.978 4.879a3.47 3.47 0 0 1-6.938 0V3.373a3.47 3.47 0 0 1 6.938 0zm-6.024 0a2.555 2.555 0 0 0 5.11 0V3.373a2.555 2.555 0 0 0-5.11 0z"/></g><g><path fill="#232323" d="M11.912 17.758a.457.457 0 0 1-.457-.457v-1.05H3.787a.457.457 0 0 1-.457-.457v-2.966a3.424 3.424 0 0 1 3.337-3.423.458.458 0 0 1 .38.186 2.097 2.097 0 0 0 3.308.08c.102-.123.228-.278.47-.26a3.398 3.398 0 0 1 1.559.49 3.825 3.825 0 0 1 2.82-1.34.456.456 0 0 1 .38.184 2.46 2.46 0 0 0 3.882.095c.116-.14.235-.284.471-.274a3.842 3.842 0 0 1 2.682 1.33 3.388 3.388 0 0 1 1.68-.49.457.457 0 0 1 .38.185 2.097 2.097 0 0 0 3.309.08c.101-.123.227-.278.47-.26a3.426 3.426 0 0 1 3.208 3.417v2.966a.457.457 0 0 1-.457.457h-7.656v1.05a.457.457 0 0 1-.457.457zm11.219-7.102c.278.54.422 1.14.422 1.75v2.931h7.199v-2.509a2.513 2.513 0 0 0-2.138-2.482 3.012 3.012 0 0 1-4.51-.012 2.47 2.47 0 0 0-.973.321zm-10-.212a2.953 2.953 0 0 0-.762 1.961v4.438h10.27v-4.438A2.935 2.935 0 0 0 20.106 9.5a3.375 3.375 0 0 1-5.099-.012 2.952 2.952 0 0 0-1.875.956zm-1.676 4.893v-2.932c0-.606.143-1.204.418-1.744a2.494 2.494 0 0 0-.892-.315 3.012 3.012 0 0 1-4.509-.012 2.527 2.527 0 0 0-2.228 2.494v2.51z"/></g><g><path fill="#232323" d="M29.407 6.242a3.094 3.094 0 0 1-6.187 0V4.923a3.094 3.094 0 0 1 6.187 0zm-5.273 0a2.18 2.18 0 0 0 4.359 0V4.923a2.18 2.18 0 0 0-4.359 0z"/></g><g><path fill="#232323" d="M11.777 6.242a3.093 3.093 0 1 1-6.187 0V4.923a3.094 3.094 0 0 1 6.187 0zm-5.273 0a2.18 2.18 0 1 0 4.359 0V4.923a2.18 2.18 0 0 0-4.359 0z"/></g></g></g></svg>