<svg xmlns="http://www.w3.org/2000/svg" width="37" height="36" viewBox="0 0 37 36"><g><g><g/><g><g><g><path fill="#232323" d="M10.19 19.347v2.701h2.26c.35 0 .729.265.729.692v4.485a.535.535 0 0 1-.542.527.535.535 0 0 1-.542-.527v-4.122H6.659a.535.535 0 0 1-.542-.527v-4.66H4.475a.535.535 0 0 1-.542-.527c0-.292.242-.528.542-.528h1.642v-1.915h-1.83a.535.535 0 0 1-.542-.527c0-.291.242-.527.542-.527h1.83v-1.327H1.224v22.383h10.87v-5.271c0-.292.243-.528.543-.528.299 0 .542.236.542.528v5.467c0 .474-.359.859-.799.859H.938c-.447 0-.798-.377-.798-.859V12.368c0-.48.35-.858.798-.858h5.558c.395 0 .705.304.705.692v6.09h1.905v-1.581c0-.292.243-.528.542-.528.3 0 .542.236.542.528v1.581h2.447c.299 0 .542.236.542.527a.535.535 0 0 1-.542.528zm-1.084 2.701v-2.701H7.2v2.701z"/></g><g><path fill="#232323" d="M31.118 24.39v3.161h1.868c.753 0 1.365.594 1.365 1.324v3.44h.595c1.045 0 1.895.827 1.895 1.843v.961c0 .486-.406.88-.905.88H21.69c-.5 0-.908-.394-.908-.88v-.96c0-1.017.852-1.844 1.898-1.844h.595v-3.44c0-.73.61-1.324 1.362-1.324h1.699V6.478H25.28a.882.882 0 0 1-.893-.868V5.56H12.786V7.38l2.005 2.074h.493a.85.85 0 0 1 .862.836v2.466a.852.852 0 0 1-.862.838H9.2a.85.85 0 0 1-.86-.838v-2.466a.85.85 0 0 1 .86-.836h.495l2.005-2.074V5.561H9.123c-.548 0-.993-.391-.993-.872v-2.9c0-.48.445-.872.993-.872h15.265V.868c0-.478.4-.868.893-.868h6.893c.493 0 .893.39.893.868v.049h2.809c.546 0 .99.391.99.872v2.9a.813.813 0 0 1-.254.58c-.005.007-.01.014-.017.02a1.07 1.07 0 0 1-.72.272h-2.808v.049c0 .479-.4.868-.893.868h-1.056V24.39zm2.744-22.418l1.92 1.814V1.972zm-.795 2.535h1.922L33.067 2.69zm-20.87 0L9.514 1.971h-.3v2.534zm-2.772 6v2.032h5.637v-2.032zm2.818-2.15l-1.058 1.096h2.117zm1.29-4.058l2.463-2.327H11.07zm6.262.208l-2.463-2.328-2.463 2.328h2.012zm1.336-.208l2.463-2.327h-4.926zm3.257.208V2.692l-1.921 1.815zm.25 24.099a.278.278 0 0 0-.278.27v3.439h3.126c.3 0 .542.236.542.527a.535.535 0 0 1-.542.528h-4.805a.803.803 0 0 0-.814.788v.787h13.89v-.787a.801.801 0 0 0-.811-.789H30.11a.535.535 0 0 1-.542-.527c0-.291.243-.527.542-.527h3.156v-3.44a.275.275 0 0 0-.28-.269zm2.783-21.36v4.785l2.398-2.392zm2.613 1.097V6.478h-1.87zm-2.398 4.984l2.398 2.392v-4.784zm-.215 1.296v4.784l2.398-2.392zm.215 6.08l2.398 2.392v-4.784zm-.215 1.296v4.784l2.398-2.392zm.744 5.552h1.87v-1.864zm3.818-22.127v-4.37h-6.511v4.37h6.511z"/></g><g><path fill="#232323" d="M10.794 27.62a.8.8 0 0 1-.808.787H3.33a.8.8 0 0 1-.811-.788v-2.15a.8.8 0 0 1 .81-.789h6.656a.8.8 0 0 1 .808.788zm-4.678-.267v-1.618H3.604v1.618zm3.594 0v-1.618H7.2v1.618z"/></g><g><path fill="#232323" d="M9.986 29.98a.8.8 0 0 1 .808.788v2.151a.8.8 0 0 1-.808.788H3.33a.8.8 0 0 1-.811-.788v-2.15a.8.8 0 0 1 .81-.789zm-3.87 2.673v-1.618H3.604v1.618zm3.594 0v-1.618H7.2v1.618z"/></g></g></g></g></g></svg>