<svg xmlns="http://www.w3.org/2000/svg" width="31" height="37" viewBox="0 0 31 37"><g><g><g/><g><path fill="#232323" d="M30.712 7.403v8.295c0 2.488-.216 6.242-2.083 10.104-2.355 4.878-6.692 8.63-12.885 11.154a.608.608 0 0 1-.457 0C9.094 34.43 4.757 30.678 2.402 25.802.536 21.94.32 18.187.32 15.699V7.403c0-.335.271-.606.606-.606 1.427 0 2.485-.4 3.143-1.187 1.171-1.401.786-3.63.782-3.653a.607.607 0 0 1 .498-.706C5.659 1.199 12.959 0 15.516 0c2.556 0 9.857 1.2 10.167 1.25a.605.605 0 0 1 .497.707c-.006.034-.386 2.256.782 3.653.658.788 1.716 1.187 3.143 1.187.335 0 .607.271.607.606zm-1.213.584c-1.51-.11-2.676-.65-3.473-1.607-1.108-1.33-1.168-3.101-1.108-4.025-1.794-.286-7.343-1.143-9.402-1.143-2.06 0-7.609.857-9.403 1.143.06.924 0 2.694-1.108 4.025-.796.957-1.963 1.496-3.473 1.607v7.711c0 3.529 0 14.227 13.984 20.04 13.983-5.813 13.983-16.511 13.983-20.04zm-1.49.803a.606.606 0 0 1 .445.585v6.323c0 3.263 0 13.192-12.693 18.798a.605.605 0 0 1-.49 0C2.577 28.89 2.577 18.961 2.577 15.698V9.376c0-.274.182-.513.446-.585a5.38 5.38 0 0 0 2.785-1.742 6.102 6.102 0 0 0 1.32-3.34.606.606 0 0 1 .512-.536c2.246-.342 6.254-.918 7.876-.918 1.621 0 5.63.576 7.875.918a.606.606 0 0 1 .512.537 6.096 6.096 0 0 0 1.32 3.339 5.387 5.387 0 0 0 2.785 1.741zm-.767 1.03a6.58 6.58 0 0 1-2.95-1.997 7.126 7.126 0 0 1-1.534-3.522c-1.974-.295-5.766-.834-7.242-.834-1.477 0-5.268.54-7.242.836A7.13 7.13 0 0 1 6.74 7.824a6.58 6.58 0 0 1-2.95 1.998v5.876c0 3.047-.002 12.275 11.726 17.58 11.726-5.305 11.726-14.532 11.726-17.58zm-3.383 3.484a1.921 1.921 0 0 1-.417 2.093l-8.921 8.921a1.92 1.92 0 0 1-2.716 0L7.59 20.102a1.92 1.92 0 1 1 2.715-2.715l2.858 2.857 7.563-7.564a1.92 1.92 0 0 1 3.133.623zm-1.273 1.235a.708.708 0 0 0 0-1.001.725.725 0 0 0-1.002 0L13.59 21.53a.605.605 0 0 1-.857 0l-3.286-3.286a.708.708 0 0 0-1.001 1l4.215 4.217c.28.266.72.266 1.001 0l8.922-8.922z"/></g></g></g></svg>