<svg xmlns="http://www.w3.org/2000/svg" width="29" height="29" viewBox="0 0 29 29"><g><g><path fill="#232323" d="M28.542 4.806a.483.483 0 0 1 .458.478v23.2a.483.483 0 0 1-.483.483h-26.1A2.42 2.42 0 0 1 0 26.551V10.117A2.41 2.41 0 0 1 1.933 7.75V5.284c0-.267.217-.483.484-.483h.74L27.104.039a.483.483 0 0 1 .568.38zM8.114 4.801h19.442l-.739-3.719zM1.386 9.09a1.454 1.454 0 0 0 .005 2.053c.073.071.154.135.241.19.028.02.06.032.088.048.058.033.119.062.181.087l.032.01V8.75c-.204.072-.39.19-.545.343zm26.647 9.243h-6.766v3.867h6.766zm0-5.8H2.417a2.41 2.41 0 0 1-.436-.043c-.045-.008-.089-.022-.134-.033a2.32 2.32 0 0 1-.682-.282c-.044-.027-.088-.052-.13-.082-.022-.016-.047-.027-.068-.043v14.5c0 .8.649 1.45 1.45 1.45h25.616v-4.834h-7.25a.483.483 0 0 1-.483-.483v-4.833c0-.267.216-.484.483-.484h7.25zm-9.217-.967a3.383 3.383 0 0 0-6.698 0zm9.217-5.8H2.9v5.8h8.245a4.35 4.35 0 0 1 8.643 0h8.245z"/></g></g></svg>