<svg xmlns="http://www.w3.org/2000/svg" width="28" height="30" viewBox="0 0 28 30"><g><g><g/><g><path fill="#232323" d="M1.418 29.032h15.968V30H.933a.483.483 0 0 1-.484-.484V2.42c0-.267.216-.484.484-.484h1.451V.484c0-.268.217-.484.484-.484h19.355c.268 0 .484.216.484.484v11.129h-.968V.968H3.353v.967h13.065c.134 0 .255.055.343.143l3.87 3.87a.483.483 0 0 1 .142.342v4.355h-.968v-3.87h-3.387a.483.483 0 0 1-.484-.485V2.903H1.418zM16.902 5.806h2.219L16.9 3.587z"/></g><g><path fill="#232323" d="M27.062 14.514c.268 0 .484.217.484.484v7.837a5.334 5.334 0 0 1-2.682 4.622l-4.336 2.478a.483.483 0 0 1-.48 0l-4.336-2.478a5.334 5.334 0 0 1-2.682-4.622v-7.837c0-.267.216-.484.484-.484h.729c2.16 0 4.192-.951 5.576-2.61l.097-.118a.5.5 0 0 1 .744 0l.098.118a7.238 7.238 0 0 0 5.576 2.61zm-.484.968h-.244c-2.31 0-4.49-.96-6.046-2.647a8.202 8.202 0 0 1-6.045 2.647h-.245v7.353c0 1.56.84 3.008 2.194 3.782l4.096 2.34 4.096-2.341a4.363 4.363 0 0 0 2.194-3.781z"/></g><g><path fill="#232323" d="M25.615 21.293a5.329 5.329 0 0 1-5.322 5.322 5.329 5.329 0 0 1-5.323-5.322 5.329 5.329 0 0 1 5.323-5.323 5.329 5.329 0 0 1 5.322 5.323zm-.968 0a4.36 4.36 0 0 0-4.354-4.355 4.36 4.36 0 0 0-4.355 4.355 4.36 4.36 0 0 0 4.355 4.354 4.36 4.36 0 0 0 4.354-4.354z"/></g><g><path fill="#232323" d="M20.063 22.793l-.879-.88-.684.685 1.452 1.452a.483.483 0 0 0 .805-.203l1.452-4.84-.927-.277z"/></g><g><path fill="#232323" d="M2.39 7.74h12.58v.968H2.39z"/></g><g><path fill="#232323" d="M2.39 9.68h12.58v.968H2.39z"/></g><g><path fill="#232323" d="M2.39 11.61h12.58v.968H2.39z"/></g><g><path fill="#232323" d="M2.39 13.55h9.677v.968H2.39z"/></g><g><path fill="#232323" d="M2.39 15.48h9.677v.968H2.39z"/></g><g><path fill="#232323" d="M2.39 17.42h9.677v.968H2.39z"/></g><g><path fill="#232323" d="M2.39 23.23h9.677v.968H2.39z"/></g><g><path fill="#232323" d="M2.39 25.16h9.677v.968H2.39z"/></g><g><path fill="#232323" d="M2.39 27.1h9.677v.968H2.39z"/></g><g><path fill="#232323" d="M2.87 3.87h.968v.968H2.87z"/></g><g><path fill="#232323" d="M4.81 3.87h.968v.968H4.81z"/></g><g><path fill="#232323" d="M6.74 3.87h.968v.968H6.74z"/></g><g><path fill="#232323" d="M8.68 3.87h6.29v.968H8.68z"/></g></g></g></svg>