<svg xmlns="http://www.w3.org/2000/svg" width="17" height="15" viewBox="0 0 17 15"><g><g><g/><g><path fill="#232323" d="M.296 5.432L6.139.385c.266-.221.554-.254.864-.1.31.134.464.366.464.698v2.656c1.152.022 2.17.089 3.055.2.886.088 1.749.276 2.59.564.841.266 1.538.63 2.092 1.096.553.442.996 1.029 1.328 1.76.332.73.498 1.582.498 2.556s-.266 1.937-.797 2.889c-.531.93-1.184 1.67-1.959 2.224-.243.177-.487.188-.73.033-.222-.154-.288-.365-.2-.63.2-.687.332-1.306.399-1.86.066-.553.055-1.04-.033-1.46a2.327 2.327 0 0 0-.465-1.096 2.59 2.59 0 0 0-.83-.797c-.332-.222-.753-.399-1.262-.532a7.627 7.627 0 0 0-1.66-.298 25.22 25.22 0 0 0-2.026-.133v2.922c0 .332-.154.575-.464.73-.31.133-.598.089-.864-.133L.296 6.628A.758.758 0 0 1 .03 6.03c0-.244.089-.443.266-.598z"/></g></g></g></svg>