<svg xmlns="http://www.w3.org/2000/svg" width="34" height="34" viewBox="0 0 34 34"><g><g><g/><g><g><g><path fill="#494ecc" d="M33.805 12.944a.666.666 0 0 1 .195.47V31.21a2.792 2.792 0 0 1-2.789 2.789h-8.5a2.792 2.792 0 0 1-2.789-2.79V20.109a9.986 9.986 0 0 1-6.676-2.937 10.13 10.13 0 0 1-.707-.784l-3.836 3.836a.664.664 0 0 1-.47.194H7.016v1.218a.664.664 0 0 1-.664.664H5.133v1.219a.664.664 0 0 1-.664.664H3.25V25.4a.664.664 0 0 1-.664.664H1.328v3.021h3.45l7.13-7.13a.664.664 0 1 1 .94.938L5.523 30.22a.664.664 0 0 1-.47.194H.664A.664.664 0 0 1 0 29.75V25.44c0-.176.07-.345.194-.47l.04-.04a.664.664 0 0 1 .47-.194h1.218v-1.218c0-.367.298-.664.664-.664h1.219v-1.218c0-.367.297-.664.664-.664h1.218v-1.219c0-.367.297-.664.664-.664h1.607l3.805-3.804c-2.353-3.87-1.859-8.996 1.482-12.338 3.12-3.12 7.797-3.757 11.553-1.913A5.047 5.047 0 0 1 27.864 0a5.08 5.08 0 0 1 5.073 5.074v7.002zm-7.73-11.16a10.019 10.019 0 0 1 4.322 7.754l.018.016 1.194 1.194V5.074a3.75 3.75 0 0 0-3.745-3.746c-.648 0-1.257.165-1.79.455zM24.118 6.96a.664.664 0 0 1-1.328 0V5.497a1.611 1.611 0 0 0-.471 2.601 1.611 1.611 0 0 0 2.748-1.138 1.6 1.6 0 0 0-.949-1.466zm2.412 9.273a8.673 8.673 0 0 0 2.557-6.173 8.673 8.673 0 0 0-2.557-6.173A8.793 8.793 0 0 0 25 2.663c-.354.42-.619.919-.761 1.466.475.13.923.381 1.296.753.554.555.86 1.293.86 2.078 0 .784-.306 1.522-.86 2.077a2.929 2.929 0 0 1-2.078.86 2.929 2.929 0 0 1-2.077-.86 2.941 2.941 0 0 1 0-4.155 2.921 2.921 0 0 1 1.509-.803c.15-.755.469-1.45.915-2.045a8.712 8.712 0 0 0-3.446-.704 8.673 8.673 0 0 0-6.174 2.556c-3.403 3.404-3.403 8.943 0 12.346a8.705 8.705 0 0 0 6.173 2.553 8.7 8.7 0 0 0 6.173-2.552zm6.142-2.544l-2.343-2.344a10.008 10.008 0 0 1-2.86 5.827 9.983 9.983 0 0 1-6.219 2.906V31.21c0 .806.656 1.46 1.461 1.46h8.5c.806 0 1.46-.654 1.46-1.46z"/></g></g></g><g><g><g><path fill="#494ecc" d="M16.976 6.684a.664.664 0 1 0-.94-.94 6.117 6.117 0 0 0 0 8.64.662.662 0 0 0 .94 0c.259-.258.259-.679 0-.938a4.787 4.787 0 0 1 0-6.762z"/></g></g></g><g><g><g><path fill="#494ecc" d="M19.09 14.677l-.01-.003a.665.665 0 1 0 .011.003z"/></g></g></g><g><g><g><path fill="#494ecc" d="M29.788 29.09h-5.644a.664.664 0 0 0 0 1.328h5.644a.664.664 0 0 0 0-1.328z"/></g></g></g><g><g><g><path fill="#494ecc" d="M14.553 20.255a.669.669 0 0 0-.469-.195.67.67 0 0 0-.47.195.67.67 0 0 0-.194.47.67.67 0 0 0 .664.664.668.668 0 0 0 .664-.665.666.666 0 0 0-.195-.47z"/></g></g></g></g></g></svg>