<svg xmlns="http://www.w3.org/2000/svg" width="20" height="20" viewBox="0 0 20 20"><g><g><g/><g><path fill="#494ecc" d="M16.025 6.25A3.129 3.129 0 0 1 12.9 3.125 3.129 3.129 0 0 1 16.025 0a3.129 3.129 0 0 1 3.125 3.125 3.129 3.129 0 0 1-3.125 3.125zm0-5c-1.033 0-1.875.84-1.875 1.875 0 1.034.842 1.875 1.875 1.875S17.9 4.16 17.9 3.125a1.877 1.877 0 0 0-1.875-1.875z"/></g><g><path fill="#494ecc" d="M16.025 20a3.129 3.129 0 0 1-3.125-3.125 3.129 3.129 0 0 1 3.125-3.125 3.129 3.129 0 0 1 3.125 3.125A3.129 3.129 0 0 1 16.025 20zm0-5c-1.033 0-1.875.84-1.875 1.875 0 1.034.842 1.875 1.875 1.875s1.875-.84 1.875-1.875A1.877 1.877 0 0 0 16.025 15z"/></g><g><path fill="#494ecc" d="M3.945 13.13A3.129 3.129 0 0 1 .82 10.005 3.129 3.129 0 0 1 3.945 6.88a3.129 3.129 0 0 1 3.125 3.125 3.129 3.129 0 0 1-3.125 3.125zm0-5c-1.033 0-1.875.84-1.875 1.875 0 1.034.842 1.875 1.875 1.875s1.875-.84 1.875-1.875A1.877 1.877 0 0 0 3.945 8.13z"/></g><g><path fill="#494ecc" d="M6.126 9.389a.623.623 0 0 1-.31-1.168l7.732-4.408a.625.625 0 0 1 .618 1.086L6.434 9.307a.626.626 0 0 1-.308.082z"/></g><g><path fill="#494ecc" d="M13.856 16.27a.62.62 0 0 1-.308-.083l-7.733-4.409a.625.625 0 0 1 .619-1.085l7.732 4.408a.625.625 0 0 1-.31 1.168z"/></g></g></g></svg>