<svg width="16" height="16" viewBox="0 0 16 16" fill="none" xmlns="http://www.w3.org/2000/svg">
<path d="M12.8223 5C11.4443 5 10.3223 3.87866 10.3223 2.5C10.3223 1.12134 11.4443 0 12.8223 0C14.2003 0 15.3223 1.12134 15.3223 2.5C15.3223 3.87866 14.2003 5 12.8223 5ZM12.8223 1C11.9956 1 11.3223 1.67261 11.3223 2.5C11.3223 3.32739 11.9956 4 12.8223 4C13.6489 4 14.3223 3.32739 14.3223 2.5C14.3223 1.67261 13.6489 1 12.8223 1Z" fill="black"/>
<path d="M12.8223 16C11.4443 16 10.3223 14.8787 10.3223 13.5C10.3223 12.1213 11.4443 11 12.8223 11C14.2003 11 15.3223 12.1213 15.3223 13.5C15.3223 14.8787 14.2003 16 12.8223 16ZM12.8223 12C11.9956 12 11.3223 12.6726 11.3223 13.5C11.3223 14.3274 11.9956 15 12.8223 15C13.6489 15 14.3223 14.3274 14.3223 13.5C14.3223 12.6726 13.6489 12 12.8223 12Z" fill="black"/>
<path d="M3.15625 10.5C1.7782 10.5 0.65625 9.37866 0.65625 8C0.65625 6.62134 1.7782 5.5 3.15625 5.5C4.5343 5.5 5.65625 6.62134 5.65625 8C5.65625 9.37866 4.5343 10.5 3.15625 10.5ZM3.15625 6.5C2.32959 6.5 1.65625 7.17261 1.65625 8C1.65625 8.82739 2.32959 9.5 3.15625 9.5C3.98291 9.5 4.65625 8.82739 4.65625 8C4.65625 7.17261 3.98291 6.5 3.15625 6.5Z" fill="black"/>
<path d="M4.89691 7.51343C4.72284 7.51343 4.55353 7.42273 4.46222 7.26148C4.3255 7.02149 4.40888 6.71607 4.64887 6.57947L10.8349 3.05274C11.0742 2.9148 11.3802 2.99878 11.5162 3.2395C11.6529 3.47949 11.5695 3.78479 11.3295 3.92151L5.1435 7.44812C5.06549 7.49207 4.9809 7.51343 4.89691 7.51343Z" fill="black"/>
<path d="M11.0816 13.0138C10.9976 13.0138 10.9129 12.9924 10.8348 12.9478L4.64881 9.42112C4.40882 9.28452 4.32557 8.9791 4.46217 8.73911C4.59815 8.49851 4.90357 8.41514 5.14356 8.55247L11.3295 12.0791C11.5695 12.2158 11.6528 12.5211 11.5162 12.7611C11.4242 12.9231 11.2549 13.0138 11.0816 13.0138Z" fill="black"/>
</svg>
