<svg xmlns="http://www.w3.org/2000/svg" width="34" height="40" viewBox="0 0 34 40"><g><g><g/><g><g><path fill="#232323" d="M33.17 0a.547.547 0 0 1 .547.546v38.907a.547.547 0 0 1-.546.547H.827a.547.547 0 0 1-.547-.547V.547A.547.547 0 0 1 .827 0zM12.429 38.906V9.416H3.874v29.49zm9.647 0V9.416H13.52v29.49zM32.624 1.094H1.374v37.812H2.78V8.87a.547.547 0 0 1 .547-.547h19.295a.547.547 0 0 1 .546.547v30.037h9.456z"/></g><g><path fill="#232323" d="M3.327 6.915a.547.547 0 0 1-.547-.547V3.087a.547.547 0 0 1 .547-.547H30.67a.547.547 0 0 1 .546.547v3.281a.547.547 0 0 1-.546.547zm.547-1.094h26.25V3.634H3.874z"/></g><g><path fill="#232323" d="M30.674 8.32a.547.547 0 0 1 .547.547v5.547a.546.546 0 0 1-.547.547h-5.547a.547.547 0 0 1-.547-.547V8.867a.547.547 0 0 1 .547-.547zm-.547 1.094h-4.453v4.453h4.453z"/></g><g><path fill="#232323" d="M30.674 16.37a.547.547 0 0 1 .547.547v5.547a.547.547 0 0 1-.547.547h-5.547a.547.547 0 0 1-.547-.547v-5.547a.547.547 0 0 1 .547-.547zm-.547 1.094h-4.453v4.453h4.453z"/></g><g><path fill="#232323" d="M27.177 12.814h1.443a.547.547 0 0 0 .474-.82l-.722-1.25a.547.547 0 0 0-.947 0l-.722 1.25a.547.547 0 0 0 .474.82z"/></g><g><path fill="#232323" d="M27.425 20.59a.547.547 0 0 0 .947 0l.722-1.25a.547.547 0 0 0-.474-.82h-1.443a.547.547 0 0 0-.474.82z"/></g><g><path fill="#232323" d="M30.674 24.42a.547.547 0 0 1 .547.547v2.496a.546.546 0 0 1-.547.547h-5.547a.547.547 0 0 1-.547-.547v-2.496a.547.547 0 0 1 .547-.547zm-.547 1.094h-4.453v1.402h4.453z"/></g></g></g></g></svg>