<svg xmlns="http://www.w3.org/2000/svg" width="40" height="34" viewBox="0 0 40 34"><g><g><g/><g><g><g><path fill="#232323" d="M39.088 25.962c.503 0 .912.409.912.912v5.713c0 .503-.41.912-.912.912H.915a.913.913 0 0 1-.912-.912v-5.978A.588.588 0 0 1 0 26.548v-1.94a.586.586 0 0 1 1.172 0v1.354h5.3v-5.194h-5.3v1.489a.586.586 0 1 1-1.172 0v-2.075a.59.59 0 0 1 .003-.061v-6.243A.59.59 0 0 1 0 13.817V7.45l.003-.061V1.412C.003.909.413.5.915.5h19.817a.586.586 0 1 1 0 1.172h-6.614v5.193h11.77V1.672h-2.792a.586.586 0 1 1 0-1.172h3.052c.503 0 .912.41.912.912v5.453h5.557c.502 0 .912.41.912.912v5.454h5.559c.503 0 .912.409.912.912v5.713c0 .503-.41.912-.912.912h-5.56v5.194zM27.06 14.402v5.194h11.768v-5.193zm-6.474-1.171h11.77V8.037h-11.77zm-6.468 1.172v5.193h11.767v-5.193zm5.296-6.366H7.644v5.194h11.77zM1.175 6.865h11.77V1.672H1.176zm-.003 6.366h5.3V8.037h-5.3zm11.774 6.365v-5.193H1.176v5.193zm0 7.538H1.176v5.193h11.77zm6.468-1.172v-5.194H7.644v5.194zm6.471 6.365v-5.193H14.118v5.193zm6.472-6.365v-5.194h-11.77v5.194zm6.471 1.172H27.06v5.193h11.768z"/></g></g></g></g></g></svg>