<svg xmlns="http://www.w3.org/2000/svg" width="32" height="38" viewBox="0 0 32 38"><g><g><g/><g><path fill="#232323" d="M31.626.808a.626.626 0 0 1-.04.3L30.38 4.12v33.005a.625.625 0 0 1-.625.625H1.005a.625.625 0 0 1-.625-.625v-2.5A.625.625 0 0 1 1.005 34H2.88v-1.875a.625.625 0 0 1 .625-.625h1.25V4.12L3.55 1.107A.625.625 0 0 1 4.13.25h26.875a.625.625 0 0 1 .621.558zM5.053 1.5l.75 1.875h23.529l.75-1.875zM4.13 34h10.625v-1.25H4.13zm8.125-10H9.13v7.5h3.125zM1.63 36.5h13.125v-1.25H1.63zm27.5 0V34h-3.125v-1.25h3.125v-10h-1.875V21.5h1.875v-6.875h-1.875v-1.25h1.875v-8.75H6.005v1.25h1.25v1.25h-1.25v13.75h1.25v1.25h-1.25V31.5H7.88v-8.125a.625.625 0 0 1 .625-.625h4.375a.625.625 0 0 1 .625.625V31.5h1.875a.625.625 0 0 1 .625.625V34h2.5v1.25h-2.5v1.25z"/></g><g><path fill="#232323" d="M12.25 14.63a.625.625 0 0 1 .625.625v5a.625.625 0 0 1-.625.625H9.125a.625.625 0 0 1-.625-.625v-5a.625.625 0 0 1 .625-.625zm-.625 1.25H9.75v3.75h1.875z"/></g><g><path fill="#232323" d="M12.25 6.5a.625.625 0 0 1 .625.625v5a.625.625 0 0 1-.625.625H9.125a.625.625 0 0 1-.625-.625v-5a.625.625 0 0 1 .625-.625zm-.625 1.25H9.75v3.75h1.875z"/></g><g><path fill="#232323" d="M19.13 14.63a.625.625 0 0 1 .625.625v5a.625.625 0 0 1-.625.625h-3.125a.625.625 0 0 1-.625-.625v-5a.625.625 0 0 1 .625-.625zm-.625 1.25H16.63v3.75h1.875z"/></g><g><path fill="#232323" d="M19.13 6.5a.625.625 0 0 1 .625.625v5a.625.625 0 0 1-.625.625h-3.125a.625.625 0 0 1-.625-.625v-5a.625.625 0 0 1 .625-.625zm-.625 1.25H16.63v3.75h1.875z"/></g><g><path fill="#232323" d="M22.875 20.88a.625.625 0 0 1-.625-.625v-5a.625.625 0 0 1 .625-.625H26a.625.625 0 0 1 .625.625v5a.625.625 0 0 1-.625.625zm.625-1.25h1.875v-3.75H23.5z"/></g><g><path fill="#232323" d="M19.13 22.75a.625.625 0 0 1 .625.625v5a.625.625 0 0 1-.625.625h-3.125a.625.625 0 0 1-.625-.625v-5a.625.625 0 0 1 .625-.625zM18.505 24H16.63v3.75h1.875z"/></g><g><path fill="#232323" d="M22.875 29a.625.625 0 0 1-.625-.625v-5a.625.625 0 0 1 .625-.625H26a.625.625 0 0 1 .625.625v5A.625.625 0 0 1 26 29zm.625-1.25h1.875V24H23.5z"/></g><g><path fill="#232323" d="M22.875 12.75a.625.625 0 0 1-.625-.625v-5a.625.625 0 0 1 .625-.625H26a.625.625 0 0 1 .625.625v5a.625.625 0 0 1-.625.625zm.625-1.25h1.875V7.75H23.5z"/></g><g><path fill="#232323" d="M24.13 30.25h1.875v1.25H24.13z"/></g><g><path fill="#232323" d="M21.63 33.38h1.875v1.25H21.63z"/></g><g><path fill="#232323" d="M13.5 12.75h1.875V14H13.5z"/></g><g><path fill="#232323" d="M18.5 31.5h1.25v1.25H18.5z"/></g></g></g></svg>