<svg xmlns="http://www.w3.org/2000/svg" width="38" height="38" viewBox="0 0 38 38"><g><g><g/><g><path fill="#232323" d="M2.933 25.067a.625.625 0 0 1-.183-.442v-3.75a.625.625 0 0 1 .625-.625h1.25a1.875 1.875 0 1 1 0 3.75H4v.625a.625.625 0 0 1-1.067.442zM4 21.5v1.25h.625a.625.625 0 0 0 0-1.25z"/></g><g><path fill="#232323" d="M37.125.25a.625.625 0 0 1 .625.625v36.25a.624.624 0 0 1-.625.625H.875a.625.625 0 0 1-.625-.625V.875A.625.625 0 0 1 .875.25zM1.5 1.5v1.25h35V1.5zm25 12.5a.625.625 0 0 0-.625.625v.625h1.25V14zm5.798-1.25l.357-2.5h-6.06l.358 2.5zm-3.923 2.5h2.5V14h-2.5zm5 0v-.625A.625.625 0 0 0 32.75 14h-.625v1.25zM32.642 9a1.878 1.878 0 0 0-1.767-1.25h-2.5A1.878 1.878 0 0 0 26.608 9zm-5.517 7.5v1.25h5V16.5zm3.125 10h2.5v-1.25h-2.5zm3.125-2.5a.624.624 0 0 1 .625.625V26.5h2.5V19h-6.25v5zm3.125-6.25V4H9v13.75h3.125V16.5H11.5a.624.624 0 0 1-.625-.625v-1.25a1.877 1.877 0 0 1 1.09-1.702l-.025-.173h-1.065a.624.624 0 1 1 0-1.25h.887l-.256-1.787v-.008a.631.631 0 0 1-.006-.08A3.129 3.129 0 0 1 14.625 6.5h2.5a3.129 3.129 0 0 1 3.125 3.125.638.638 0 0 1-.006.08v.008l-.255 1.787h.886a.624.624 0 1 1 0 1.25H19.81l-.025.173a1.877 1.877 0 0 1 1.09 1.702v1.25a.624.624 0 0 1-.625.625h-.625v1.25h2.5v-.625a.624.624 0 1 1 1.25 0v.625h2.5V16.5h-.625a.624.624 0 0 1-.625-.625v-1.25a1.877 1.877 0 0 1 1.09-1.702l-.025-.173h-1.065a.624.624 0 1 1 0-1.25h.887l-.256-1.787v-.008a.631.631 0 0 1-.006-.08A3.129 3.129 0 0 1 28.375 6.5h2.5A3.129 3.129 0 0 1 34 9.625a.638.638 0 0 1-.006.08v.008l-.255 1.787h.886a.624.624 0 1 1 0 1.25H33.56l-.025.173a1.877 1.877 0 0 1 1.09 1.702v1.25A.624.624 0 0 1 34 16.5h-.625v1.25zM12.75 14a.625.625 0 0 0-.625.625v.625h1.25V14zm5.798-1.25l.357-2.5h-6.06l.358 2.5zm-3.923 2.5h2.5V14h-2.5zm5 0v-.625A.625.625 0 0 0 19 14h-.625v1.25zM18.892 9a1.878 1.878 0 0 0-1.767-1.25h-2.5A1.878 1.878 0 0 0 12.858 9zm-5.517 7.5v1.25h5V16.5zM7.75 19H1.5v7.5h6.25zm0-1.25V6.5H1.5v11.25zM7.75 4H1.5v1.25h6.25zM1.5 36.5h6.25v-8.75H1.5zm26.25 0H29V19H9v17.5h1.25v-6.875a.624.624 0 1 1 1.25 0V36.5h15v-5.208l-14.615-6.09a.625.625 0 0 1 .48-1.154l14.135 5.89v-.313a.624.624 0 1 1 1.25 0zm8.75 0v-8.75h-6.25v8.75z"/></g></g></g></svg>