<svg xmlns="http://www.w3.org/2000/svg" width="38" height="40" viewBox="0 0 38 40"><g><g><g/><g><g><path fill="#232323" d="M35.875 21.88c1.034 0 1.875.841 1.875 1.875a.625.625 0 1 1-1.25 0 .626.626 0 0 0-.625-.625h-.512l1.45 8.706a5.63 5.63 0 0 1-.724 3.82l-.839 1.397v2.249a.704.704 0 0 1-.703.703H3.453a.704.704 0 0 1-.703-.703v-2.249l-.839-1.397a5.63 5.63 0 0 1-.725-3.82l1.451-8.706h-.512a.626.626 0 0 0-.625.625.625.625 0 0 1-1.25 0c0-1.034.841-1.875 1.875-1.875h33.75zm-3.983 13.132a4.38 4.38 0 0 0 .564-2.97L30.97 23.13h-1.897l1.035 9.31a5.645 5.645 0 0 1-.368 2.711l-.442 1.104h1.848zm-3.94 1.243l.627-1.568a4.388 4.388 0 0 0 .286-2.108l-1.05-9.449h-1.889l.768 9.676a5.604 5.604 0 0 1-.199 1.989l-.417 1.46zm-3.174 0l.515-1.803a4.36 4.36 0 0 0 .155-1.547l-.775-9.775H22.76l.163 10.436c.002.134 0 .27-.008.404l-.129 2.285zm-3.244 0l.133-2.355c.006-.104.008-.21.006-.314L21.51 23.13h-1.885v13.125zm-3.159 0V23.13h-1.886l-.181 10.437c-.002.115 0 .233.008.349l.146 2.339zm-9.673 0l-.442-1.104a5.644 5.644 0 0 1-.368-2.71l1.035-9.311H7.029l-1.485 8.912a4.38 4.38 0 0 0 .564 2.97l.746 1.243zm3.218 0l-.418-1.453a5.608 5.608 0 0 1-.201-2.002l.772-9.67h-1.889l-1.05 9.449a4.39 4.39 0 0 0 .287 2.108l.627 1.568zm1.3 0h1.99l-.142-2.261a5.6 5.6 0 0 1-.01-.45l.181-10.414h-1.912l-.78 9.769c-.042.526.01 1.05.156 1.557zm-10.8-4.213a4.38 4.38 0 0 0 .563 2.97l.746 1.243h1.667l-.36-.6a5.63 5.63 0 0 1-.725-3.819l1.451-8.706H3.904zM34 37.505h-2.5H28.376h-3.125-.002H12.752h-.002-3.122-.003H6.502 6.5 4v1.25h30zm1.017-2.493a4.38 4.38 0 0 0 .564-2.97l-1.485-8.912h-1.858l1.45 8.706a5.63 5.63 0 0 1-.724 3.82l-.36.599h1.667z"/></g><g><path fill="#232323" d="M7.125 20.625c.345 0 .625-.28.625-.625V1.25h22.5V20a.625.625 0 1 0 1.25 0V1.25C31.5.56 30.94 0 30.25 0H7.75C7.06 0 6.5.56 6.5 1.25V20c0 .345.28.625.625.625z"/></g><g><path fill="#232323" d="M27.75 20v-9.375h-8.125V20a.625.625 0 1 1-1.25 0V3.75H10.25v5.625h6.25a.625.625 0 0 1 0 1.25h-6.25V20A.625.625 0 1 1 9 20V3.125c0-.345.28-.625.625-.625h18.75c.345 0 .625.28.625.625V20a.625.625 0 1 1-1.25 0zm0-10.625V3.75h-8.125v5.625z"/></g></g></g></g></svg>