<svg xmlns="http://www.w3.org/2000/svg" width="40" height="40" viewBox="0 0 40 40"><g><g><g/><g><path fill="#232323" d="M1.333 26A1.335 1.335 0 0 1 0 24.667v-9.334c0-.736.597-1.332 1.333-1.333h13.334c.736 0 1.332.597 1.333 1.333v9.334A1.335 1.335 0 0 1 14.667 26zm0-1.333h13.334v-9.334H1.333z"/></g><g><path fill="#232323" d="M1.333 40A1.335 1.335 0 0 1 0 38.667v-9.334c0-.735.597-1.332 1.333-1.333h5.334c.736 0 1.332.598 1.333 1.333v9.334c0 .736-.597 1.332-1.333 1.333zm0-1.333h5.334v-9.334H1.333z"/></g><g><path fill="#232323" d="M38.667 0c.736 0 1.332.597 1.333 1.333v37.334c0 .736-.597 1.332-1.333 1.333H11.333A1.335 1.335 0 0 1 10 38.667v-9.334c0-.736.597-1.332 1.333-1.333h9.304c-.022-.376-.04-.746-.044-1.098-.003-.298.014-.6.023-.902h-1.283A1.335 1.335 0 0 1 18 24.667v-9.334c0-.736.597-1.332 1.333-1.333h1.322a13.537 13.537 0 0 0-.965-2H1.333A1.335 1.335 0 0 1 0 10.667V1.333C0 .597.597.001 1.333 0zM1.333 10.667h17.473a11.312 11.312 0 0 0-2.824-2.662l-.215-.139c-1.318-.853-2.812-1.82-3.18-3.733a17.903 17.903 0 0 1-.092-2.8H1.333zm18 14h1.351c.043-.509.1-1.014.186-1.503.082-.467.182-.92.281-1.37.261-.996.403-2.02.422-3.05a13.897 13.897 0 0 0-.49-3.41h-1.75zm-8 14h13.178a18.38 18.38 0 0 1-3.74-9.334h-9.438zM38.667 1.333H13.822c-.028.856-.003 1.713.076 2.566.258 1.337 1.341 2.037 2.593 2.847l.219.142a12.94 12.94 0 0 1 3.931 4.095 15.108 15.108 0 0 1 2.266 7.74 14.204 14.204 0 0 1-.453 3.358c-.096.431-.191.867-.27 1.315a15.796 15.796 0 0 0-.217 1.97 19.618 19.618 0 0 0-.04 1.519c.006.544.037 1.124.09 1.722a16.758 16.758 0 0 0 4.263 10.06h12.387z"/></g><g><path fill="#232323" d="M15.235 3.757c.2.692.882 1.163 1.98 1.873l.226.146a14.218 14.218 0 0 1 4.328 4.5 16.519 16.519 0 0 1 1.738 3.812.667.667 0 1 0 1.272-.4 17.866 17.866 0 0 0-1.877-4.116 15.542 15.542 0 0 0-4.734-4.913l-.228-.148a6.098 6.098 0 0 1-1.408-1.084l-.01-.134a.667.667 0 1 0-1.33.088c.006.096.013.183.02.255.004.041.011.081.023.12z"/></g><g><path fill="#232323" d="M24.241 18.697a15.634 15.634 0 0 1-.493 3.71c-.088.4-.177.803-.25 1.218a14.557 14.557 0 0 0-.2 1.833c-.03.469-.042.943-.037 1.408.006.51.035 1.05.086 1.61a15.736 15.736 0 0 0 3.317 8.613.667.667 0 1 0 1.028-.85 14.62 14.62 0 0 1-3.018-7.886 19.827 19.827 0 0 1-.079-1.503c-.006-.432.005-.871.034-1.317a13.32 13.32 0 0 1 .182-1.676c.07-.395.156-.781.249-1.206.332-1.3.505-2.634.515-3.975a.666.666 0 0 0-.667-.656h-.01a.664.664 0 0 0-.657.677z"/></g></g></g></svg>