<svg xmlns="http://www.w3.org/2000/svg" width="40" height="36" viewBox="0 0 40 36"><g><g><g/><g><g><g><g><path fill="#232323" d="M39.219.39c.431 0 .781.35.781.781v15.925a.781.781 0 0 1-.296.612L17.341 35.44a.781.781 0 0 1-.485.169h-14.2a.781.781 0 0 1-.781-.781V26.14H.78A.781.781 0 0 1 0 25.359v-3.126c0-.431.35-.78.781-.78h14.844v-5.844h-1.562a.781.781 0 0 1-.782-.781v-3.126c0-.431.35-.78.782-.78h14.843V5.077h-1.562a.781.781 0 0 1-.782-.781V1.17c0-.431.35-.781.782-.781zM28.906 14.046v-1.562H14.844v1.562zm-13.28 10.531v-1.562H1.562v1.562zM38.437 6.584V5.078h-7.97v9.75c0 .431-.349.78-.78.78h-12.5v9.75c0 .432-.35.782-.782.782H3.437v1.48h3.206a.781.781 0 0 1 0 1.563H3.437v4.864h13.147l21.853-17.33v-8.57h-3.205a.781.781 0 1 1 0-1.563zm0-4.631H28.124v1.562h10.313z"/></g><g><path fill="#232323" d="M8.91 27.62H8.89a.781.781 0 1 0 0 1.563h.019a.781.781 0 0 0 0-1.563z"/></g><g><path fill="#232323" d="M32.971 8.143h.019a.781.781 0 0 0 0-1.563h-.019a.781.781 0 1 0 0 1.563z"/></g></g></g></g></g></g></svg>