<svg xmlns="http://www.w3.org/2000/svg" width="38" height="38" viewBox="0 0 38 38"><g><g><g/><g><path fill="#232323" d="M3.375 37.75A3.129 3.129 0 0 1 .25 34.625V3.375A3.129 3.129 0 0 1 3.375.25h32.5c.345 0 .625.28.625.625v25.366l1.067 1.067a.625.625 0 0 1 .183.442v9.375c0 .345-.28.625-.625.625h-15a.625.625 0 0 1-.625-.625V32.75h-15v4.375c0 .345-.28.625-.625.625zm27.5-1.25v-6.25h-2.5v6.25zm5.625-8.491l-1.067-1.067a.625.625 0 0 1-.183-.442v-5h-1.875v1.875a.625.625 0 0 1-1.067.442l-2.683-2.683-6.875 6.875V36.5h4.375v-6.875c0-.345.28-.625.625-.625h3.75c.346 0 .625.28.625.625V36.5H36.5zM3.375 1.5A1.877 1.877 0 0 0 1.5 3.375c0 1.034.841 1.875 1.875 1.875h2.5c.345 0 .625.28.625.625V31.5h15v-3.75c0-.166.066-.325.183-.442l7.5-7.5a.625.625 0 0 1 .884 0l2.058 2.058v-.991c0-.345.28-.625.625-.625h2.5V1.5zM1.5 34.625c0 1.034.841 1.875 1.875 1.875H5.25v-30H3.375A3.109 3.109 0 0 1 1.5 5.873z"/></g><g><path fill="#232323" d="M9.005 25.88a.625.625 0 0 1-.625-.625V4.005c0-.345.28-.625.625-.625h23.75c.345 0 .625.28.625.625v12.5c0 .345-.28.625-.625.625h-12.5v8.125c0 .345-.28.625-.625.625h-4.375a.625.625 0 0 1-.625-.625v-1.768a1.878 1.878 0 0 0-1.25 1.768c0 .345-.28.625-.625.625zM32.13 4.63h-7.5v6.313a3.13 3.13 0 0 1 2.5 3.062c0 .345-.28.625-.625.625H24.63v1.25h7.5zm-22.5 0v6.25h4.375v1.25H9.63v12.5h2.563a3.13 3.13 0 0 1 3.062-2.5c.345 0 .625.28.625.625v1.875h3.125v-8.125c0-.345.28-.625.625-.625h3.75v-1.875c0-.345.28-.625.625-.625h1.768a1.879 1.879 0 0 0-1.768-1.25.625.625 0 0 1-.625-.625V4.63h-5.625v6.875c0 .345-.28.625-.625.625h-1.25v-1.25h.625V4.63z"/></g><g><path fill="#232323" d="M7.75 29H9v1.25H7.75z"/></g><g><path fill="#232323" d="M10.25 29h1.25v1.25h-1.25z"/></g><g><path fill="#232323" d="M12.75 29H14v1.25h-1.25z"/></g></g></g></svg>