<svg xmlns="http://www.w3.org/2000/svg" width="38" height="40" viewBox="0 0 38 40"><g><g><g/><g><g><g><g><path fill="#232323" d="M35.848 18.01l-3.056 3.057V38a2 2 0 0 1-2 2H2.79a2 2 0 0 1-2-2V8.67c0-.014.009-.027.009-.04a.653.653 0 0 1 .038-.186.653.653 0 0 1 .167-.267l8.667-8a.66.66 0 0 1 .413-.169c.014-.001.027-.008.041-.008h20.667a2 2 0 0 1 2 2v8.053a4.628 4.628 0 0 1 3.058 1.356l-.002-.003.005.005a4.667 4.667 0 0 1-.005 6.6zM3.164 8h5.628a.667.667 0 0 0 .667-.667V2.19zm28.295 14.4L18.886 34.973a.672.672 0 0 1-.067.054l-.037.029a.638.638 0 0 1-.09.047c-.013.006-.026.014-.04.019a.656.656 0 0 1-.11.03c-.011.002-.02.013-.033.013l-6.6.942a.651.651 0 0 1-.19 0 .667.667 0 0 1-.564-.754l.933-6.555.006-.042c0-.005.005-.007.005-.011a.666.666 0 0 1 .106-.267l.018-.022a.752.752 0 0 1 .058-.074L29.252 11.41a4.68 4.68 0 0 1 2.207-1.238V2a.667.667 0 0 0-.667-.667h-20v6a2 2 0 0 1-2 2H2.125V38c0 .368.299.667.667.667h28a.667.667 0 0 0 .667-.667zM14.168 34.038l-.47.47 3.703-.528-.332-.665-1.041-2.078-2.745-1.372-.528 3.701.47-.47a.667.667 0 0 1 .943.942zm17.441-13.671l-4.711-4.717L13.88 28.667l2.512 1.26 8.147-8.146a.667.667 0 1 1 .943.943l-8.145 8.143.623 1.246.632 1.268zm1.887-1.887l-4.711-4.711-.942.938 4.709 4.716zm1.411-1.413a3.333 3.333 0 0 0-2.714-5.671c-.191.018-.38.054-.564.107a3.334 3.334 0 0 0-1.437.848l-.467.474 4.716 4.708z"/></g><g><path fill="#232323" d="M26.407 20.84a.667.667 0 0 0 .96 0l.942-.942a.667.667 0 0 0-.943-.943l-.942.943a.667.667 0 0 0-.017.943z"/></g><g><path fill="#232323" d="M6.117 18.663h14a.667.667 0 0 0 0-1.333h-14a.667.667 0 0 0 0 1.333z"/></g><g><path fill="#232323" d="M6.117 22.663h10a.667.667 0 0 0 0-1.333h-10a.667.667 0 0 0 0 1.333z"/></g><g><path fill="#232323" d="M12.783 25.997a.667.667 0 0 0-.666-.667h-6a.667.667 0 0 0 0 1.333h6a.667.667 0 0 0 .666-.666z"/></g><g><path fill="#232323" d="M11.457 14.663h12.666a.667.667 0 0 0 0-1.333H11.457a.667.667 0 0 0 0 1.333z"/></g><g><path fill="#232323" d="M6.117 14.663h2.666a.667.667 0 0 0 0-1.333H6.117a.667.667 0 0 0 0 1.333z"/></g></g></g></g></g></g></svg>