<svg xmlns="http://www.w3.org/2000/svg" width="40" height="40" viewBox="0 0 40 40"><g><g><g/><g><path fill="#232323" d="M8.891 29.088l.682-1.25 1.097.599-.681 1.25z"/></g><g><path fill="#232323" d="M15.079 20.336a1.845 1.845 0 0 1 1.747-.952l.09-1.247a3.112 3.112 0 0 0-2.934 1.601l-3.732 6.843 1.097.598z"/></g><g><path fill="#232323" d="M39.38 5.889L27.139 18.13H39.38v21.25H.63V18.13h11.428a5.575 5.575 0 0 1 4.642-2.5c1.334 0 2.594.468 3.601 1.32l2.57-2.57-1.25-1.25 12.5-12.5h.884a4.38 4.38 0 0 1 4.375 4.375zM35.005 1.88a3.129 3.129 0 0 0 3.125 3.125zm2.319 4.298a4.385 4.385 0 0 1-3.491-3.492l-8.57 8.569 3.492 3.491zM23.389 13.13l3.491 3.491.991-.991-3.491-3.491zm.366 2.134l-4.353 4.353c.096.5.491.895.992.99l4.352-4.352zM11.338 19.38H8.13v3.75h1.163zm-5.708 5v3.75h.936l2.045-3.75zm-1.25 0h-2.5v3.75h2.5zm-2.5 5v3.75h4.636a3.593 3.593 0 0 1-.886-2.363c0-.476.099-.948.281-1.387zm3.75 5v3.75h5v-3.75zm18.75-10v3.75h5v-3.75zm7.5 8.75v-3.75h-5v3.75zm-6.25 0v-3.75h-5v3.75zm-2.5-6.305c-.42.517-.936.96-1.529 1.305h1.529zM12.456 33.13h6.924v-3.75h-.048zm-.576 5h5v-3.75h-5zm6.25 0h5v-3.75h-5zm6.25 0h5v-3.75h-5zm6.25 0h5v-3.75h-5zm7.5-5v-3.75h-5v3.75zm0-5v-3.75h-1.25v3.75zm-2.5-3.75h-5v3.75h5zm-3.75-1.25v-3.75h-5v3.75zm-6.25-3.75h-2.241l-.329.329a5.532 5.532 0 0 1 1.311 3.421h1.259zM7.169 29.635a2.366 2.366 0 0 0 3.206 3.206l10.496-5.724a4.336 4.336 0 0 0 1.302-6.521L20.89 21.88h-.259a2.503 2.503 0 0 1-2.5-2.5v-.259l1.285-1.285a4.334 4.334 0 0 0-6.522 1.304zM1.88 19.38v3.75h5v-3.75zm0 18.75h2.5v-3.75h-2.5zm36.25 0v-3.75h-1.25v3.75zm0-18.75h-5v3.75h5zm-11.509-1.25l-.991-.991-.991.991z"/></g></g></g></svg>