<svg xmlns="http://www.w3.org/2000/svg" width="36" height="40" viewBox="0 0 36 40"><g><g><g/><g><g><path fill="#232323" d="M18.081 16.683h.612a.547.547 0 0 0 0-1.094h-.586l.218-1.44a.547.547 0 0 0-1.081-.164l-.222 1.465a1.072 1.072 0 0 0 1.06 1.233z"/></g><g><path fill="#232323" d="M17.961 19.841a3.241 3.241 0 0 0 2.508-1.045.547.547 0 1 0-.843-.695 2.183 2.183 0 0 1-1.665.646 2.184 2.184 0 0 1-1.664-.646.547.547 0 0 0-.844.695 3.242 3.242 0 0 0 2.508 1.045z"/></g><g><path fill="#232323" d="M34.339 30.058a7.568 7.568 0 0 1 1.552 4.578v4.818a.547.547 0 0 1-.547.547H.657a.547.547 0 0 1-.547-.547v-4.818a7.568 7.568 0 0 1 5.559-7.28 18.062 18.062 0 0 1 3.614-.484c.574-.038 1.166-.076 1.736-.142.222-.025.443-.054.662-.09.04-.007.081-.017.12-.029l.04-.01a1.663 1.663 0 0 0 1.172-1.184c.018-.06.031-.12.04-.182l.302-2.359a7.382 7.382 0 0 1-2.206-2.969c-.32-.866-.556-1.76-.706-2.671a22.24 22.24 0 0 1-.048-.238c-.166.034-.335.051-.504.052a2.674 2.674 0 0 1-.257-5.337V3.674c0-.135.05-.265.14-.366A11.51 11.51 0 0 1 18 .001a11.51 11.51 0 0 1 8.228 3.307c.091.1.141.231.141.366v8.05a2.674 2.674 0 0 1-.335 5.327 2.586 2.586 0 0 1-.428-.04l-.046.225c-.15.91-.386 1.804-.706 2.67a7.386 7.386 0 0 1-2.206 2.968l.302 2.36a1.662 1.662 0 0 0 .18.54 1.574 1.574 0 0 0 1.07.827l.102.034c.315.06.637.1.884.127.408.044.83.076 1.239.107.255.019.511.038.761.06l.49.04c.895.045 1.785.174 2.656.384a7.568 7.568 0 0 1 4.007 2.705zm-18.577-.717l1.336-1.438-3.277-1.599c-.206.36-.482.673-.812.923zm4.478.001l2.744-2.109a2.676 2.676 0 0 1-.81-.925l-3.27 1.596zm7.02-15.96a1.582 1.582 0 0 0-.898-.552c-.009.48-.064.956-.164 1.424l-.369 1.685c.067.01.135.016.203.017a1.582 1.582 0 0 0 1.228-2.573zm-4.683-2.287a2.7 2.7 0 0 0 2.64-2.149H10.783a2.7 2.7 0 0 0 2.64 2.149zm-11.85-3.241h14.546V3.899a10.828 10.828 0 0 0-14.545 0zm-1.954 7.64c.297.296.699.463 1.118.463.093 0 .187-.01.278-.027l-.366-1.673a7.529 7.529 0 0 1-.165-1.437 1.58 1.58 0 0 0-.865 2.674zm3.39 4a6.28 6.28 0 0 0 2.033 2.647.536.536 0 0 1 .12.087 6.316 6.316 0 0 0 7.37 0 .545.545 0 0 1 .12-.087 6.288 6.288 0 0 0 2.033-2.648 13.8 13.8 0 0 0 .646-2.47c.054-.274.108-.547.167-.816v-.008l.005-.023.473-2.153c.095-.442.143-.892.144-1.344v-1.62a3.776 3.776 0 0 1-2.617 1.126c.054.142.083.293.084.445a1.302 1.302 0 0 1-2.604 0c.001-.15.029-.3.082-.442h-4.437c.053.142.081.291.083.442a1.302 1.302 0 0 1-2.604 0c0-.152.03-.303.083-.446a3.776 3.776 0 0 1-2.616-1.125v1.62c0 .452.049.903.144 1.345l.471 2.152c.061.28.117.563.173.848.139.842.355 1.67.647 2.47zm2.206 4.07l-.215 1.687L18 27.126l3.847-1.875-.216-1.688a7.4 7.4 0 0 1-3.63.946 7.4 7.4 0 0 1-3.632-.946zM1.203 38.907h3.79v-1.826a.547.547 0 0 1 1.093 0v1.826h11.367v-9.781l-1.23 1.323a.572.572 0 0 1-.734.063l-3.635-2.795c-.233.039-.471.07-.71.097-.597.069-1.203.108-1.79.147a16.975 16.975 0 0 0-3.397.446 6.472 6.472 0 0 0-4.754 6.23zm33.594-4.27a6.471 6.471 0 0 0-4.753-6.228c-.807-.192-1.63-.309-2.458-.349a50.211 50.211 0 0 1-.497-.04c-.247-.022-.497-.04-.747-.06-.418-.03-.85-.063-1.278-.11a12.395 12.395 0 0 1-.917-.13l-3.635 2.793a.542.542 0 0 1-.734-.063l-1.23-1.324v9.781h11.366v-1.826a.547.547 0 0 1 1.094 0v1.826h3.79z"/></g><g><path fill="#232323" d="M20.147 32.21a.547.547 0 0 0-.547.547v.84a.547.547 0 1 0 1.094 0v-.84a.547.547 0 0 0-.547-.547z"/></g><g><path fill="#232323" d="M20.147 35.69a.547.547 0 0 0-.547.547v.84a.547.547 0 0 0 1.094 0v-.84a.547.547 0 0 0-.547-.547z"/></g><g><path fill="#232323" d="M8.627 36.859a.547.547 0 0 1-.547-.547v-1.875a.547.547 0 0 1 .547-.547H15.5a.547.547 0 0 1 .547.547v1.875a.547.547 0 0 1-.547.547zm.547-1.094h5.779v-.781h-5.78z"/></g></g></g></g></svg>