<svg xmlns="http://www.w3.org/2000/svg" width="40" height="40" viewBox="0 0 40 40"><g><g><g/><g><path fill="#232323" d="M37.612 32.637v2.479h1.841a.547.547 0 0 1 .547.547v3.789a.547.547 0 0 1-.547.547H.547A.55.55 0 0 1 0 39.45v-3.788a.547.547 0 0 1 .547-.547h9.805v-6.61C4.415 27.95 0 24.71 0 20.839c0-2.063 1.224-3.979 3.457-5.43a10.178 10.178 0 0 1-.332-2.608c0-3.027 1.272-5.698 3.206-6.823a5.714 5.714 0 0 1-.081-.954c0-2.786 1.98-5.053 4.414-5.054 1.544 0 2.98.942 3.773 2.437.349-.094.709-.142 1.07-.143 3.34 0 6.056 4.172 6.056 9.299a13.773 13.773 0 0 1-.567 3.948c2.132 1.438 3.3 3.317 3.3 5.328 0 3.872-4.414 7.111-10.352 7.667v6.61h11.188v-2.48H23.29a.547.547 0 0 1-.547-.546v-2.695a.547.547 0 0 1 .547-.547h1.84v-3.925a2.112 2.112 0 0 1 2.11-2.11h8.262a2.112 2.112 0 0 1 2.11 2.11v3.925h1.84a.547.547 0 0 1 .547.547v2.695a.548.548 0 0 1-.547.547zm-11.386-3.79h10.292v-3.924a1.017 1.017 0 0 0-1.015-1.016H27.24a1.017 1.017 0 0 0-1.015 1.016zm-2.388 2.696h15.068v-1.601H23.838zm10.66 3.573v-2.48h-6.25v2.48zm-8.272 0h.927v-2.48h-.927zm-15.874-7.71v-2.198c-3.052-.327-4.435-2.957-4.901-4.122a1.69 1.69 0 0 1 .57-1.998c.201-.145.431-.243.675-.288l.233-.045a1.67 1.67 0 0 1 1.87 1.018c.271.683.749 1.48 1.553 1.766V10.815a1.68 1.68 0 0 1 1.678-1.678h.237a1.68 1.68 0 0 1 1.678 1.678v5.535c.481-.2.877-.561 1.12-1.023a1.683 1.683 0 0 1 1.977-.762l.231.076a1.669 1.669 0 0 1 1.039.984 1.686 1.686 0 0 1-.103 1.443 5.718 5.718 0 0 1-4.264 2.96v7.379c5.237-.526 9.258-3.343 9.258-6.568 0-1.729-1.116-3.374-3.143-4.633a.546.546 0 0 1-.23-.642c.43-1.29.645-2.643.639-4.003 0-4.524-2.226-8.204-4.961-8.204-.396.001-.788.079-1.155.229a.547.547 0 0 1-.71-.3c-.564-1.37-1.706-2.223-2.979-2.223-1.83 0-3.32 1.776-3.32 3.96 0 .376.047.752.138 1.117a.547.547 0 0 1-.306.63c-1.741.79-2.957 3.269-2.957 6.031a8.985 8.985 0 0 0 .4 2.69.547.547 0 0 1-.24.633c-2.119 1.269-3.285 2.943-3.285 4.715 0 3.225 4.021 6.042 9.258 6.568zm.934-3.095c.1.103.157.24.157.384v10.421h1.406V19.532a.547.547 0 0 1 .521-.546 4.658 4.658 0 0 0 3.883-2.454.596.596 0 0 0-.104-.722.574.574 0 0 0-.219-.13l-.23-.075a.586.586 0 0 0-.688.267 3.198 3.198 0 0 1-2.574 1.703.548.548 0 0 1-.588-.545v-6.215a.585.585 0 0 0-.585-.584h-.237a.585.585 0 0 0-.585.584v11.377a.546.546 0 0 1-.568.547c-1.36-.052-2.459-.962-3.094-2.562a.577.577 0 0 0-.648-.348l-.236.045a.571.571 0 0 0-.403.29.602.602 0 0 0-.03.515c.411 1.028 1.669 3.423 4.442 3.469.144.002.28.061.38.163zm27.62 11.899H1.094v2.694h37.812zm-2.388-3.573h-.927v2.479h.927z"/></g></g></g></svg>