<svg xmlns="http://www.w3.org/2000/svg" width="38" height="38" viewBox="0 0 38 38"><g><g><g/><g><path fill="#232323" d="M37.125 6.5c.345 0 .625.28.625.625v25c0 .345-.28.625-.625.625H32.75v4.375c0 .345-.28.625-.625.625h-10a.625.625 0 0 1-.625-.625V32.75H2.75a2.503 2.503 0 0 1-2.5-2.5V8.375A3.129 3.129 0 0 1 3.375 5.25h1.25c.345 0 .625.28.625.625V6.5zM1.5 28.086a2.481 2.481 0 0 1 1.25-.336H4V6.5h-.625A1.877 1.877 0 0 0 1.5 8.375zM27.75 34H26.5v2.5h1.25zm3.75-2.779l-4.375-2.734-4.375 2.734V36.5h2.5v-3.125c0-.345.28-.625.625-.625h2.5c.345 0 .625.28.625.625V36.5h2.5zm5-23.471H5.25v20.625c0 .345-.28.625-.625.625H2.75a1.251 1.251 0 0 0 0 2.5H21.5v-.625c0-.216.111-.416.294-.53l5-3.125a.627.627 0 0 1 .662 0l5 3.125a.626.626 0 0 1 .294.53v.625h3.75z"/></g><g><path fill="#232323" d="M30.247 25.245v1.19l-2.797-1.722a.624.624 0 0 0-.655 0l-8.125 5 .655 1.064 7.798-4.798 7.797 4.798.655-1.064-4.077-2.509v-1.959z"/></g><g><path fill="#232323" d="M5.255 4A1.877 1.877 0 0 1 3.38 2.125C3.38 1.091 4.221.25 5.255.25H32.13c.123 0 .244.037.347.105l1.875 1.25a.626.626 0 0 1 0 1.04l-1.875 1.25A.629.629 0 0 1 32.13 4zm2.5-1.25h24.186l.937-.625-.937-.625H7.755zm-2.5 0h1.25V1.5h-1.25a.626.626 0 0 0 0 1.25z"/></g><g><path fill="#232323" d="M7.125 26.5H22.75v-1.25h-7.5v-4.375h7.5v-1.25h-7.5v-5H14V25.25H7.75v-15H14v1.875h1.25V10.25H29v9.375h-3.75v1.25H29V24h1.25V9.625A.625.625 0 0 0 29.625 9h-22.5a.625.625 0 0 0-.625.625v16.25c0 .345.28.625.625.625z"/></g></g></g></svg>