<svg xmlns="http://www.w3.org/2000/svg" width="40" height="40" viewBox="0 0 40 40"><g><g><g/><g><g><g><path fill="#232323" d="M39.333 6.33c.369 0 .667.298.667.667V38.33a.667.667 0 0 1-1.333 0V7.663H32v31.334a.667.667 0 0 1-.667.666H8.667A.667.667 0 0 1 8 38.997V11.663H1.333V38.33a.667.667 0 0 1-1.333 0V10.997c0-.369.299-.667.667-.667H8V.997c0-.369.298-.667.667-.667h22.666c.369 0 .667.298.667.667V6.33zm-20 26h-2.666v6h2.666zm4 0h-2.666v6h2.666zm7.334-30.667H9.333V38.33h6v-6.667c0-.368.299-.666.667-.666h8c.368 0 .667.298.667.666v6.667h6z"/></g></g></g><g><g><g><path fill="#232323" d="M15.337 3c.368 0 .666.298.666.667v4a.667.667 0 0 1-.666.666h-4a.667.667 0 0 1-.667-.666v-4c0-.368.298-.667.667-.667zm-.667 1.333h-2.667V7h2.667z"/></g></g></g><g><g><g><path fill="#232323" d="M21.997 3c.368 0 .666.298.666.667v4a.667.667 0 0 1-.666.666h-4a.667.667 0 0 1-.667-.666v-4c0-.368.298-.667.667-.667zm-.667 1.333h-2.667V7h2.667z"/></g></g></g><g><g><g><path fill="#232323" d="M28.667 3c.368 0 .666.298.666.667v4a.667.667 0 0 1-.666.666h-4A.667.667 0 0 1 24 7.667v-4c0-.368.298-.667.667-.667zM28 4.333h-2.667V7H28z"/></g></g></g><g><g><g><path fill="#232323" d="M15.337 9.67c.368 0 .666.298.666.667v4a.667.667 0 0 1-.666.666h-4a.667.667 0 0 1-.667-.666v-4c0-.368.298-.667.667-.667zm-.667 1.333h-2.667v2.667h2.667z"/></g></g></g><g><g><g><path fill="#232323" d="M21.997 9.67c.368 0 .666.298.666.667v4a.667.667 0 0 1-.666.666h-4a.667.667 0 0 1-.667-.666v-4c0-.368.298-.667.667-.667zm-.667 1.333h-2.667v2.667h2.667z"/></g></g></g><g><g><g><path fill="#232323" d="M28.667 9.67c.368 0 .666.298.666.667v4a.667.667 0 0 1-.666.666h-4a.667.667 0 0 1-.667-.666v-4c0-.368.298-.667.667-.667zM28 11.003h-2.667v2.667H28z"/></g></g></g><g><g><g><path fill="#232323" d="M15.337 16.33c.368 0 .666.298.666.667v4a.667.667 0 0 1-.666.666h-4a.667.667 0 0 1-.667-.666v-4c0-.369.298-.667.667-.667zm-.667 1.333h-2.667v2.667h2.667z"/></g></g></g><g><g><g><path fill="#232323" d="M21.997 16.33c.368 0 .666.298.666.667v4a.667.667 0 0 1-.666.666h-4a.667.667 0 0 1-.667-.666v-4c0-.369.298-.667.667-.667zm-.667 1.333h-2.667v2.667h2.667z"/></g></g></g><g><g><g><path fill="#232323" d="M28.667 16.33c.368 0 .666.298.666.667v4a.667.667 0 0 1-.666.666h-4a.667.667 0 0 1-.667-.666v-4c0-.369.298-.667.667-.667zM28 17.663h-2.667v2.667H28z"/></g></g></g><g><g><g><path fill="#232323" d="M15.337 23c.368 0 .666.298.666.667v4a.667.667 0 0 1-.666.666h-4a.667.667 0 0 1-.667-.666v-4c0-.369.298-.667.667-.667zm-.667 1.333h-2.667V27h2.667z"/></g></g></g><g><g><g><path fill="#232323" d="M21.997 23c.368 0 .666.298.666.667v4a.667.667 0 0 1-.666.666h-4a.667.667 0 0 1-.667-.666v-4c0-.369.298-.667.667-.667zm-.667 1.333h-2.667V27h2.667z"/></g></g></g><g><g><g><path fill="#232323" d="M28.667 23c.368 0 .666.298.666.667v4a.667.667 0 0 1-.666.666h-4a.667.667 0 0 1-.667-.666v-4c0-.369.298-.667.667-.667zM28 24.333h-2.667V27H28z"/></g></g></g><g><g><g><path fill="#232323" d="M4.003 13h-.666a.667.667 0 0 0-.667.667v.666c0 .368.298.667.667.667h.666a.667.667 0 0 0 .667-.667v-.666A.667.667 0 0 0 4.003 13z"/></g></g></g><g><g><g><path fill="#232323" d="M6.663 13h-.666a.667.667 0 0 0-.667.667v.666c0 .368.298.667.667.667h.666a.667.667 0 0 0 .667-.667v-.666A.667.667 0 0 0 6.663 13z"/></g></g></g><g><g><g><path fill="#232323" d="M4.003 15.67h-.666a.667.667 0 0 0-.667.667v.666c0 .369.298.667.667.667h.666a.667.667 0 0 0 .667-.667v-.666a.667.667 0 0 0-.667-.667z"/></g></g></g><g><g><g><path fill="#232323" d="M6.663 15.67h-.666a.667.667 0 0 0-.667.667v.666c0 .369.298.667.667.667h.666a.667.667 0 0 0 .667-.667v-.666a.667.667 0 0 0-.667-.667z"/></g></g></g><g><g><g><path fill="#232323" d="M4.003 18.33h-.666a.667.667 0 0 0-.667.667v.666c0 .368.298.667.667.667h.666a.667.667 0 0 0 .667-.667v-.666a.667.667 0 0 0-.667-.667z"/></g></g></g><g><g><g><path fill="#232323" d="M6.663 18.33h-.666a.667.667 0 0 0-.667.667v.666c0 .368.298.667.667.667h.666a.667.667 0 0 0 .667-.667v-.666a.667.667 0 0 0-.667-.667z"/></g></g></g><g><g><g><path fill="#232323" d="M4.003 21h-.666a.667.667 0 0 0-.667.667v.666c0 .368.298.667.667.667h.666a.667.667 0 0 0 .667-.667v-.666A.667.667 0 0 0 4.003 21z"/></g></g></g><g><g><g><path fill="#232323" d="M6.663 21h-.666a.667.667 0 0 0-.667.667v.666c0 .368.298.667.667.667h.666a.667.667 0 0 0 .667-.667v-.666A.667.667 0 0 0 6.663 21z"/></g></g></g><g><g><g><path fill="#232323" d="M4.003 23.67h-.666a.667.667 0 0 0-.667.667v.666c0 .368.298.667.667.667h.666a.667.667 0 0 0 .667-.667v-.666a.667.667 0 0 0-.667-.667z"/></g></g></g><g><g><g><path fill="#232323" d="M6.663 23.67h-.666a.667.667 0 0 0-.667.667v.666c0 .368.298.667.667.667h.666a.667.667 0 0 0 .667-.667v-.666a.667.667 0 0 0-.667-.667z"/></g></g></g><g><g><g><path fill="#232323" d="M4.003 26.33h-.666a.667.667 0 0 0-.667.667v.666c0 .368.298.667.667.667h.666a.667.667 0 0 0 .667-.667v-.666a.667.667 0 0 0-.667-.667z"/></g></g></g><g><g><g><path fill="#232323" d="M6.663 26.33h-.666a.667.667 0 0 0-.667.667v.666c0 .368.298.667.667.667h.666a.667.667 0 0 0 .667-.667v-.666a.667.667 0 0 0-.667-.667z"/></g></g></g><g><g><g><path fill="#232323" d="M4.003 29h-.666a.667.667 0 0 0-.667.667v.666c0 .368.298.667.667.667h.666a.667.667 0 0 0 .667-.667v-.666A.667.667 0 0 0 4.003 29z"/></g></g></g><g><g><g><path fill="#232323" d="M6.663 29h-.666a.667.667 0 0 0-.667.667v.666c0 .368.298.667.667.667h.666a.667.667 0 0 0 .667-.667v-.666A.667.667 0 0 0 6.663 29z"/></g></g></g><g><g><g><path fill="#232323" d="M4.003 31.67h-.666a.667.667 0 0 0-.667.667v.666c0 .368.298.667.667.667h.666a.667.667 0 0 0 .667-.667v-.666a.667.667 0 0 0-.667-.667z"/></g></g></g><g><g><g><path fill="#232323" d="M6.663 31.67h-.666a.667.667 0 0 0-.667.667v.666c0 .368.298.667.667.667h.666a.667.667 0 0 0 .667-.667v-.666a.667.667 0 0 0-.667-.667z"/></g></g></g><g><g><g><path fill="#232323" d="M4.003 34.33h-.666a.667.667 0 0 0-.667.667v.666c0 .369.298.667.667.667h.666a.667.667 0 0 0 .667-.667v-.666a.667.667 0 0 0-.667-.667z"/></g></g></g><g><g><g><path fill="#232323" d="M6.663 34.33h-.666a.667.667 0 0 0-.667.667v.666c0 .369.298.667.667.667h.666a.667.667 0 0 0 .667-.667v-.666a.667.667 0 0 0-.667-.667z"/></g></g></g><g><g><g><path fill="#232323" d="M36.663 9c.369 0 .667.298.667.667v2.666a.667.667 0 0 1-.667.667h-2.666a.667.667 0 0 1-.667-.667V9.667c0-.368.298-.667.667-.667zm-.666 1.333h-1.334v1.334h1.334z"/></g></g></g><g><g><g><path fill="#232323" d="M36.663 14.33c.369 0 .667.298.667.667v2.666a.667.667 0 0 1-.667.667h-2.666a.667.667 0 0 1-.667-.667v-2.666c0-.369.298-.667.667-.667zm-.666 1.333h-1.334v1.334h1.334z"/></g></g></g><g><g><g><path fill="#232323" d="M36.663 19.67c.369 0 .667.298.667.667v2.666a.667.667 0 0 1-.667.667h-2.666a.667.667 0 0 1-.667-.667v-2.666c0-.368.298-.667.667-.667zm-.666 1.333h-1.334v1.334h1.334z"/></g></g></g><g><g><g><path fill="#232323" d="M36.663 25c.369 0 .667.298.667.667v2.666a.667.667 0 0 1-.667.667h-2.666a.667.667 0 0 1-.667-.667v-2.666c0-.369.298-.667.667-.667zm-.666 1.333h-1.334v1.334h1.334z"/></g></g></g><g><g><g><path fill="#232323" d="M36.663 30.33c.369 0 .667.298.667.667v2.666a.667.667 0 0 1-.667.667h-2.666a.667.667 0 0 1-.667-.667v-2.666c0-.369.298-.667.667-.667zm-.666 1.333h-1.334v1.334h1.334z"/></g></g></g></g></g></svg>