<svg xmlns="http://www.w3.org/2000/svg" width="36" height="22" viewBox="0 0 36 22"><g><g><path fill="#232323" d="M2.694 21.494a.655.655 0 0 1-.675-.641v-7.741H.904a.676.676 0 0 1-.435-1.183l7.92-6.86a.664.664 0 0 1 .87.001l1.343 1.165L17.614.162a.664.664 0 0 1 .87 0l6.999 6.077 1.35-1.168a.664.664 0 0 1 .87.001l7.9 6.861a.673.673 0 0 1-.435 1.179h-1.281v7.74a.634.634 0 0 1-.65.641zm.653-1.328h5.975v-7.054H3.347zm16.68-4.15h-3.9v4.15h3.9zm5.229 4.15v-9.793H10.65v9.793h4.15v-4.8a.672.672 0 0 1 .658-.677h5.24a.67.67 0 0 1 .657.677v4.8zm7.303-7.054h-5.975v7.054h5.975zm-6.063-5.985l2.363 2.052a.685.685 0 0 1-.435 1.194h-1.84v1.41h6.806L27.267 6.46zM9.429 9.045h17.217L18.05 1.581zm-6.744 2.739h6.637v-1.41H7.648a.68.68 0 0 1-.622-.45.692.692 0 0 1 .187-.753l2.375-2.054-.764-.658z"/></g></g></svg>