<svg xmlns="http://www.w3.org/2000/svg" width="38" height="38" viewBox="0 0 38 38"><g><g><g/><g><g><path fill="#232323" d="M.25 37.755V23.38H1.5v1.875h1.25v-1.25H4v1.25h3.75v1.25H6.5v1.25H9v-6.25h6.25V19.63h1.25v1.875h5V19.63h1.25v18.125zm10-1.25H21.5v-13.75H10.25zM4 27.755h1.25v-1.25H4zm-2.5 0h1.25v-1.25H1.5zm0 8.75H9v-7.5H1.5z"/></g><g><path fill="#232323" d="M37.126.25a.625.625 0 0 1 .625.625v10a.625.625 0 0 1-.625.625h-2.5v26.25h-7.5V11.5h-2.5a.625.625 0 0 1-.625-.625v-2.5c0-.146.051-.288.144-.4l2.27-2.725h-10.54v2.5h-1.874v2.8l5.822 4.075h3.553v3.75h-20v-3.75h2.942l6.433-4.093V7.75h-1.875v-2.5h-7.5a.625.625 0 0 1-.48-1.026L6.02.474A.625.625 0 0 1 6.5.25zM30.51 1.5l2.274 2.274L35.438 1.5zM29 1.759L26.76 4h4.482zM8.743 4l-2.2-2.199L4.71 4zm3.75-2.5H8.01l2.24 2.241zM4.626 15.875v1.25h17.5v-1.25zm8.734-4.25l-4.713 3h8.996zm1.266-6.375h-2.5V6.5h2.5zM16.242 4l-2.241-2.241L11.76 4zm1.509-.259L19.992 1.5H15.51zM23.742 4l-2.241-2.241L19.26 4zm3.75-2.5H23.01l2.24 2.241zM25.96 7.75h4.916v-2.5h-2.832zm4.916 17.866l2.241-2.241-2.241-2.241-2.241 2.241zm0 1.768l-2.28 2.28 2.28 2.735 2.28-2.735zm0-8.018l2.241-2.241-2.241-2.241-2.241 2.241zm0-6.25l1.616-1.616H29.26zm-2.5-.732v3.232L29.992 14zm0 6.25v3.232l1.616-1.616zm0 6.25v3.232l1.616-1.616zm0 6.468v4.046l1.687-2.023zm4.29 5.148l-1.79-2.148-1.789 2.148zm.71-5.148l-1.688 2.023 1.688 2.023zm0-6.468L31.76 26.5l1.616 1.616zm0-6.25L31.76 20.25l1.616 1.616zm0-6.25L31.76 14l1.616 1.616zM36.5 5.25h-4.375v3.125A.625.625 0 0 1 31.5 9h-6.25v1.25H36.5zm0-3.017L34.438 4h2.063z"/></g><g><path fill="#232323" d="M11.5 24h8.75v7.5H11.5zm1.25 6.25H19v-5h-6.25z"/></g><g><path fill="#232323" d="M2.75 30.25h5V34h-5zM4 32.75h2.5V31.5H4z"/></g><g><path fill="#232323" d="M19 34h-2.5v1.25h3.75v-2.5H19z"/></g><g><path fill="#232323" d="M15.25 34H14v1.25h1.25z"/></g><g><path fill="#232323" d="M34.63 6.5h-1.25v1.25h1.25z"/></g></g></g></g></svg>