<svg xmlns="http://www.w3.org/2000/svg" width="40" height="40" viewBox="0 0 40 40"><g><g><g/><g><path fill="#232323" d="M37.91 39.566a.658.658 0 0 1-.466-1.124l.292-.292H7.67l.292.292a.658.658 0 1 1-.931.93l-1.4-1.398a.656.656 0 0 1-.192-.474v-.008c0-.227.114-.426.288-.545l1.337-1.336a.658.658 0 1 1 .93.93l-.291.292h30.065l-.292-.291a.658.658 0 1 1 .931-.931l1.4 1.399c.13.13.194.302.192.474v.008a.657.657 0 0 1-.288.544l-1.337 1.336a.656.656 0 0 1-.465.194zM2.074 34.99a.657.657 0 0 1-.545-.288L.193 33.366a.658.658 0 1 1 .93-.931l.292.291V2.661l-.291.292a.658.658 0 1 1-.931-.931L1.592.623A.645.645 0 0 1 2.065.43a.674.674 0 0 1 .553.289l1.336 1.336a.658.658 0 1 1-.93.93l-.292-.29v30.064l.292-.291a.658.658 0 1 1 .93.93l-1.399 1.4a.652.652 0 0 1-.473.192h-.008zm5.456-1.862a.658.658 0 0 1-.658-.658V1.089c0-.364.294-.659.658-.659h19.01c.363 0 .658.295.658.659v12.777H39.34c.364 0 .659.294.659.658v17.945a.658.658 0 0 1-.658.659zm19.64-1.317h11.513V15.182H27.17zm-12.61 0h11.293v-8.817H14.56zm-6.372 0h5.054v-8.817H8.188zm17.665-10.134v-7.153c0-.067.01-.131.029-.192V7.458H8.188v14.219zM17.68 6.141h8.203V1.747h-8.203zm-9.49 0h8.173V1.747H8.188z"/></g></g></g></svg>