<svg xmlns="http://www.w3.org/2000/svg" width="40" height="40" viewBox="0 0 40 40"><g><g><g/><g><g><g><path fill="#232323" d="M18.34 4.7c.602 0 1.093.49 1.093 1.094v12.42c0 .604-.49 1.095-1.094 1.095H8.394c-.603 0-1.094-.491-1.094-1.094V5.794c0-.603.49-1.094 1.094-1.094zm-.046 13.47V5.839H8.44V18.17z"/></g></g></g><g><g><g><path fill="#232323" d="M18.34 20.6c.602 0 1.093.49 1.093 1.094v12.42c0 .604-.49 1.095-1.094 1.095H8.394c-.603 0-1.094-.491-1.094-1.094V21.694c0-.603.49-1.094 1.094-1.094zm-.046 13.47V21.74H8.44V34.07z"/></g></g></g><g><g><g><path fill="#232323" d="M31.61 4.7c.602 0 1.093.49 1.093 1.094v12.42c0 .604-.49 1.095-1.094 1.095h-9.945c-.603 0-1.094-.491-1.094-1.094V5.794c0-.603.49-1.094 1.094-1.094zm-.046 1.139H21.71V18.17h9.855z"/></g></g></g><g><g><g><path fill="#232323" d="M31.61 20.6c.602 0 1.093.49 1.093 1.094v12.42c0 .604-.49 1.095-1.094 1.095h-9.945c-.603 0-1.094-.491-1.094-1.094V21.694c0-.603.49-1.094 1.094-1.094zm-.046 1.139H21.71V34.07h9.855z"/></g></g></g><g><g><g><path fill="#232323" d="M38.554 35.91c.629 0 1.14.51 1.14 1.14v1.812c0 .63-.511 1.141-1.14 1.141H1.44C.81 40.003.3 39.491.3 38.862V37.05c0-.63.512-1.14 1.14-1.14h1.157v-5.614a.57.57 0 1 1 1.138 0v5.613h1.36V3.727c0-.676.55-1.227 1.226-1.227h27.352c.677 0 1.228.55 1.228 1.227V35.91h1.358V8.604a.57.57 0 1 1 1.139 0v27.305zm-32.321 0h27.53V3.726a.089.089 0 0 0-.09-.088H6.321a.089.089 0 0 0-.088.088zm32.323 1.14l-37.115-.002-.002 1.814 37.115.002z"/></g></g></g><g><g><g><path fill="#232323" d="M36.327 0H3.674C3.082 0 2.6.482 2.6 1.074v26.517a.57.57 0 0 0 1.139 0V1.139h32.523v4.753a.57.57 0 0 0 1.139 0V1.074C37.4.482 36.919 0 36.327 0z"/></g></g></g></g></g></svg>