<svg xmlns="http://www.w3.org/2000/svg" width="18" height="17" viewBox="0 0 18 17"><defs><clipPath id="emnia"><path fill="#fff" d="M0 2a2 2 0 0 1 2-2h14a2 2 0 0 1 2 2v13a2 2 0 0 1-2 2H2a2 2 0 0 1-2-2z"/></clipPath></defs><g><g><path fill="#fff" d="M0 2a2 2 0 0 1 2-2h14a2 2 0 0 1 2 2v13a2 2 0 0 1-2 2H2a2 2 0 0 1-2-2z"/><path fill="none" stroke="#ddd" stroke-miterlimit="20" stroke-width="2" d="M0 2a2 2 0 0 1 2-2h14a2 2 0 0 1 2 2v13a2 2 0 0 1-2 2H2a2 2 0 0 1-2-2z" clip-path="url(&quot;#emnia&quot;)"/></g></g></svg>