<svg xmlns="http://www.w3.org/2000/svg" width="16" height="16" viewBox="0 0 16 16"><g><g><g/><g><path fill="#232323" d="M7.21 6.877c0 .184-.15.333-.333.333H.843a.333.333 0 0 1-.333-.333V.843C.51.66.66.51.843.51h6.034c.184 0 .333.15.333.333zm-.667-5.7H1.177v5.366h5.366z"/></g><g><path fill="#232323" d="M15.51 6.877c0 .184-.15.333-.333.333H9.143a.333.333 0 0 1-.333-.333V.843c0-.184.15-.333.333-.333h6.034c.184 0 .333.15.333.333zm-.667-5.7H9.477v5.366h5.366z"/></g><g><path fill="#232323" d="M7.21 15.177c0 .184-.15.333-.333.333H.843a.333.333 0 0 1-.333-.333V9.143c0-.184.15-.333.333-.333h6.034c.184 0 .333.15.333.333zm-.667-5.7H1.177v5.333h5.366z"/></g><g><path fill="#232323" d="M15.51 15.177c0 .184-.15.333-.333.333H9.143a.333.333 0 0 1-.333-.333V9.143c0-.184.15-.333.333-.333h6.034c.184 0 .333.15.333.333zm-.667-5.7H9.477v5.333h5.366z"/></g></g></g></svg>