<svg xmlns="http://www.w3.org/2000/svg" width="20" height="18" viewBox="0 0 20 18"><g><g><path fill="#ffd963" d="M8.198 1.115l.895.448-.898-.442zm3.604.006l-.894.44.891-.446zm-.894.44l-.003.001-.897.442.002.004A.38.38 0 0 0 10.006 2a.367.367 0 0 0-.014 0 .357.357 0 0 0-.004.008l.002-.004-1.795-.883-1.8 3.656.517-.078.15.988.896.442-.23.47-.518.077-4.558.687-.005-.004-.005-.033a.15.15 0 0 1 .008-.02l-.002.003a.124.124 0 0 1-.007.01l-.01.01a.202.202 0 0 1-.034.03L.733 6.73a2.018 2.018 0 0 0-.05 1.092c.092.378.292.694.546.948l.707-.707.674-.694.013-.001.01-.002.01-.01a.35.35 0 0 1-.003-.004l-.007-.007-.023.024-.012.001c-.022.002-.032.005-.032.005h.002a.152.152 0 0 0 .03-.016L.732 6.73c.11-.349.306-.683.622-.938a1.94 1.94 0 0 1 1.016-.409l4.024-.606-.23.469 1.793.883 2.03-4.121-.001.002L9.97 2a.095.095 0 0 0-.01.002L9.968 2l-.875-.437-.895-.448c.162-.323.4-.616.734-.824A2 2 0 0 1 10 0c.362 0 .731.083 1.066.291.335.208.573.501.735.824l-.895.448zm-.003.002l.897-.442 1.8 3.656-.517-.078-.298 1.977 4.559.687.005-.004.005-.033a.313.313 0 0 1 .006.021.358.358 0 0 1-.004.005l.006-.007 1.394 1.435-2.935 2.851-.089-.518-.985.168-.697-.717.697.717-.986.169-.089-.519.378-.367 3.294-3.2h.004v-.005l.008-.007a.432.432 0 0 1-.004.003l.013.013v.001l.694.693.48.494.091.086.126.138.005-.005.005-.005c.254-.254.455-.57.546-.948.092-.378.059-.75-.05-1.092a1.933 1.933 0 0 0-.621-.938 1.94 1.94 0 0 0-1.016-.41l-4.025-.605.231.469-.897.441-.149.99-.517-.079-.23-.469-2.03-4.121v.002L10.028 2c.007 0 .01.002.01.002L10.03 2zm4.918 10.068l.693 4.044-.986.169-.948.15-.019-.028a.14.14 0 0 1 .017-.027c.004-.004 0 .003-.023.018l-.017.012-.003.002-.774-4.521.986-.169.697.717zm-.293 4.213h.003-.003l.988-.156c.055.352.03.725-.125 1.085a1.952 1.952 0 0 1-.67.808l-.6-.8-.533-.776-.008-.012.008.012zm.177 1.75c-.281.207-.617.36-1 .394-.394.036-.761-.06-1.08-.228l.005.003.46-.888.003-.005-.002.005.452-.854v-.002l.005-.007.04-.007 1.1 1.6.017-.011zm-2.08.166l-3.628-1.883.46-.24-.46-.887.46-.888-.46.888-.46-.888.46-.239.46.24 4.072 2.113.006-.005.002.009.014.007-.004.009-.002.003h.003a.161.161 0 0 0-.003.013h-.003v-.005l.003-.008-.004.008-.448.863.45-.85c0-.002 0-.007-.002-.013l-.45.868-.468.884h.001zm-3.628-1.883l-3.613 1.875.026-.015-.507-.862-.441-.85.004-.004a.158.158 0 0 1 .03.008c.007.003-.001 0-.024-.016a.391.391 0 0 1-.018-.015l.003-.018 4.08-2.117.46.887-.46.888zm-4.543.121l-.003.015-1.971-.338.692-4.044.378.367.697-.717.985.169-.775 4.53-.015.007a.256.256 0 0 0 .012.011zm-1.282-4.367L1.24 8.78l.697-.717.694-.694v-.001l.003-.002.015-.002h.004l3.294 3.2-.697.717-.986-.168zm1.731 5.244l.46.887.021-.01c-.309.176-.67.286-1.065.262a1.935 1.935 0 0 1-1.047-.401l1.157-1.544zm10.61-1.2l.003.013-.985.155zm-1.965.337l.007-.015zm.003-.024a.177.177 0 0 0-.002.008h-.002zm-.002.008a.153.153 0 0 1 .007 0v.001l-.008.001.001-.002zm.003-.008a.193.193 0 0 1 .01-.022l.018.027-.013.003a.236.236 0 0 1-.009-.005zm.003.01v-.002h.005zm-.01.014h.003l-.004.007v-.007zm-11.065-.337l.982.168-.984-.155zm2.841-4.744l-.089.519-.985-.169.697-.717zM1.234 8.775L1.23 8.77l.707-.707-.697.717zM2.64 7.352a.345.345 0 0 1-.004-.005.359.359 0 0 1 .006-.021l.005.033zm7.369-5.38zm-.049.03zm7.408 5.372zm-2.823 8.649v-.003.003zm.012-.066l.006.009zm-.069.047zm.074-.007l.007-.001.01.004-.004-.001a.111.111 0 0 0-.013-.002zm-.002-.006l-.002.005.002-.005zm.02.009zm-9.203.024zm.058-.046l.002.004a.103.103 0 0 1 .004.007l.003-.001a.111.111 0 0 1-.01-.01zm.006.011l-.012.007.016.002a.17.17 0 0 0-.004-.009zm.012.038zM2.63 7.375zm.02-.069z"/></g></g></svg>