<svg xmlns="http://www.w3.org/2000/svg" width="16" height="18" viewBox="0 0 16 18"><g><g><g><path fill="#232323" d="M10.58 3.15c.782 0 1.42.638 1.424 1.423v12.006c0 .785-.638 1.423-1.423 1.423H2.213A1.424 1.424 0 0 1 .79 16.579V4.573c0-.785.638-1.423 1.423-1.423zm.425 1.423a.428.428 0 0 0-.428-.428H2.209a.428.428 0 0 0-.427.428v12.002c0 .236.191.428.427.428h8.368a.428.428 0 0 0 .428-.428z"/></g><g><path fill="#232323" d="M13.78 0H5.414C4.628 0 3.99.638 3.99 1.423c0 .276.221.498.498.498a.496.496 0 0 0 .497-.498c0-.236.192-.428.428-.428h8.368c.236 0 .427.192.427.428v12.006a.428.428 0 0 1-.427.428.496.496 0 0 0-.498.497c0 .277.221.498.498.498.785 0 1.423-.638 1.423-1.423V1.423C15.204.638 14.566 0 13.78 0z"/></g></g></g></svg>