<svg xmlns="http://www.w3.org/2000/svg" width="338" height="152" viewBox="0 0 338 152"><defs><mask id="j83lb" width="2" height="2" x="-1" y="-1"><path fill="#fff" d="M3 0h332v145H3z"/><path d="M11 0a8 8 0 0 0-8 8v116a8 8 0 0 0 8 8h35.566l12.87 12.87L72.305 132H327a8 8 0 0 0 8-8V8a8 8 0 0 0-8-8z"/></mask><filter id="j83la" width="360" height="177" x="-11" y="-14" filterUnits="userSpaceOnUse"><feOffset dy="4" in="SourceGraphic" result="FeOffset1023Out"/><feGaussianBlur in="FeOffset1023Out" result="FeGaussianBlur1024Out" stdDeviation="1.6 1.6"/></filter><clipPath id="j83lc"><path fill="#fff" d="M11 0a8 8 0 0 0-8 8v116a8 8 0 0 0 8 8h35.566l12.87 12.87L72.305 132H327a8 8 0 0 0 8-8V8a8 8 0 0 0-8-8z"/></clipPath></defs><g><g><g filter="url(#j83la)"><path fill="none" d="M11 0a8 8 0 0 0-8 8v116a8 8 0 0 0 8 8h35.566l12.87 12.87L72.305 132H327a8 8 0 0 0 8-8V8a8 8 0 0 0-8-8z" mask="url(&quot;#j83lb&quot;)"/><path fill="#bcbcbc" fill-opacity=".25" d="M11 0a8 8 0 0 0-8 8v116a8 8 0 0 0 8 8h35.566l12.87 12.87L72.305 132H327a8 8 0 0 0 8-8V8a8 8 0 0 0-8-8z"/></g><path fill="#fff" d="M11 0a8 8 0 0 0-8 8v116a8 8 0 0 0 8 8h35.566l12.87 12.87L72.305 132H327a8 8 0 0 0 8-8V8a8 8 0 0 0-8-8z"/><path fill="none" stroke="#ddd" stroke-miterlimit="20" stroke-width="2" d="M11 0a8 8 0 0 0-8 8v116a8 8 0 0 0 8 8h35.566v0l12.87 12.87v0L72.305 132v0H327a8 8 0 0 0 8-8V8a8 8 0 0 0-8-8z" clip-path="url(&quot;#j83lc&quot;)"/></g></g></svg>