<svg xmlns="http://www.w3.org/2000/svg" width="39" height="45" viewBox="0 0 39 45"><g><g><g/><g><path fill="#ddd" d="M11.515 18.502c-2.107-2.107-3.175-4.686-3.175-7.664 0-2.978 1.068-5.556 3.175-7.663C13.622 1.068 16.2 0 19.18 0c2.977 0 5.556 1.068 7.663 3.175 2.107 2.107 3.175 4.686 3.175 7.663 0 2.978-1.068 5.556-3.175 7.663-2.107 2.108-4.685 3.176-7.663 3.176-2.978 0-5.556-1.069-7.664-3.175zm-.538-7.664c0 2.285.786 4.182 2.403 5.799 1.618 1.616 3.514 2.403 5.799 2.403 2.285 0 4.181-.786 5.798-2.403s2.403-3.514 2.403-5.799c0-2.284-.786-4.181-2.403-5.798s-3.514-2.403-5.798-2.403c-2.285 0-4.182.786-5.799 2.403s-2.403 3.514-2.403 5.798z"/></g><g><path fill="#ddd" d="M38.234 37.264c0 2.35-.747 4.252-2.22 5.654-1.455 1.383-3.379 2.085-5.718 2.085H8.628c-2.34 0-4.264-.702-5.719-2.085C1.437 41.515.69 39.613.69 37.264c0-.903.03-1.798.09-2.657.06-.879.183-1.836.365-2.844.182-1.018.417-1.98.699-2.859.29-.91.686-1.806 1.175-2.666a10.053 10.053 0 0 1 1.771-2.31c.7-.67 1.557-1.207 2.546-1.6.987-.39 2.08-.588 3.25-.588.46 0 .904.188 1.76.747.537.35 1.155.747 1.838 1.184.588.375 1.387.727 2.372 1.046.963.311 1.94.469 2.904.469a9.43 9.43 0 0 0 2.905-.47c.986-.318 1.785-.67 2.374-1.045.69-.441 1.307-.84 1.835-1.184.858-.558 1.302-.747 1.762-.747 1.17 0 2.263.198 3.25.588.99.393 1.846.93 2.545 1.6a10.05 10.05 0 0 1 1.772 2.31c.49.86.885 1.757 1.176 2.666a22.4 22.4 0 0 1 .7 2.859c.18 1.01.303 1.966.364 2.843.06.857.09 1.751.09 2.658zm-2.637 0c0-.845-.029-1.678-.085-2.474a24.177 24.177 0 0 0-.33-2.562 19.763 19.763 0 0 0-.615-2.52 11.478 11.478 0 0 0-.957-2.168 7.43 7.43 0 0 0-1.302-1.707c-.452-.432-1.022-.787-1.693-1.053a6.072 6.072 0 0 0-2.077-.4c-.093.049-.257.143-.524.316-.542.354-1.15.745-1.856 1.197-.78.497-1.782.945-2.982 1.333a12.07 12.07 0 0 1-3.715.597c-1.24 0-2.49-.201-3.716-.597-1.198-.387-2.201-.836-2.98-1.332-.69-.441-1.316-.844-1.858-1.198a7.031 7.031 0 0 0-.523-.316 6.068 6.068 0 0 0-2.077.4c-.671.266-1.241.62-1.693 1.053A7.451 7.451 0 0 0 5.31 27.54c-.398.703-.72 1.432-.956 2.168a19.804 19.804 0 0 0-.615 2.52 23.982 23.982 0 0 0-.33 2.561c-.055.8-.083 1.632-.083 2.475 0 1.621.458 2.846 1.4 3.743.961.914 2.237 1.36 3.901 1.36h21.667c1.664 0 2.94-.446 3.9-1.36.943-.897 1.401-2.121 1.402-3.743z"/></g></g></g></svg>