<svg xmlns="http://www.w3.org/2000/svg" width="18" height="15" viewBox="0 0 18 15"><g><g><path fill="#999" d="M8.586 6.738C7.91 7.413 7.09 7.75 6.125 7.75a3.441 3.441 0 0 1-2.488-1.012A3.441 3.441 0 0 1 2.625 4.25c0-.966.337-1.786 1.012-2.46C4.329 1.095 5.159.75 6.125.75s1.786.346 2.46 1.04a3.306 3.306 0 0 1 1.04 2.46c0 .966-.346 1.796-1.04 2.488zm0 1.887c1.003 0 1.86.365 2.57 1.094.73.71 1.094 1.568 1.094 2.57v1.148c0 .365-.128.675-.383.93a1.266 1.266 0 0 1-.93.383H1.314c-.365 0-.675-.128-.93-.383a1.266 1.266 0 0 1-.383-.93V12.29c0-1.003.355-1.86 1.066-2.57.73-.73 1.595-1.094 2.598-1.094h.465a4.748 4.748 0 0 0 1.996.438c.693 0 1.358-.146 1.996-.438zm8.832-3.5c.146.146.137.292-.027.438l-3.856 3.855c-.146.146-.3.137-.465-.027l-2.215-2.243c-.164-.145-.164-.3 0-.464l.766-.739c.146-.164.3-.164.465 0l1.23 1.23 2.871-2.843c.165-.146.32-.137.465.027z"/></g></g></svg>