<svg xmlns="http://www.w3.org/2000/svg" width="22" height="13" viewBox="0 0 22 13"><g><g><g/><g><path fill="#494ecc" d="M21.425 1.372c-.078.383-.393 1.008-.943 1.876a57.348 57.348 0 0 1-1.454 2.297c-.446.638-.682.97-.708.995-.157.23-.236.396-.236.498 0 .102.079.28.236.536l.236.268.629.612c.236.23.498.498.786.804.288.306.55.613.786.919.262.28.485.574.668.88.21.307.354.562.433.766.183.638-.079.957-.786.957h-2.32a1.3 1.3 0 0 1-.471-.077 1.676 1.676 0 0 1-.433-.267 3.33 3.33 0 0 1-.432-.422c-.131-.153-.328-.37-.59-.65-.262-.281-.524-.55-.786-.804-1.048-.97-1.82-1.455-2.319-1.455-.314 0-.498.09-.55.268-.052.179-.079.689-.079 1.531.026.408.04.74.04.995 0 .307-.105.537-.315.69-.21.127-.668.191-1.376.191-1.231 0-2.476-.357-3.734-1.072-1.258-.715-2.358-1.735-3.301-3.062a25.03 25.03 0 0 1-2.241-3.484c-.576-1.174-.956-2.067-1.14-2.68C.842 1.87.75 1.436.75 1.181c0-.434.262-.651.786-.651h2.32c.287 0 .497.064.628.191.157.128.288.358.393.69.55 1.556 1.219 2.947 2.005 4.172.812 1.225 1.428 1.838 1.847 1.838.157 0 .262-.051.315-.153.078-.128.118-.358.118-.69v-3.33a3.002 3.002 0 0 0-.197-.919c-.105-.255-.21-.434-.314-.536l-.315-.383a.674.674 0 0 1-.118-.344c0-.102.026-.191.079-.268a.693.693 0 0 1 .196-.191.713.713 0 0 1 .315-.077h3.655c.42 0 .63.28.63.842v4.44c0 .435.117.652.353.652.262 0 .629-.23 1.1-.69.499-.535.983-1.186 1.455-1.952.472-.765.825-1.403 1.061-1.914l.354-.727c.184-.434.511-.651.983-.651h2.319c.629 0 .865.28.707.842z"/></g></g></g></svg>