<svg xmlns="http://www.w3.org/2000/svg" width="20" height="12" viewBox="0 0 20 12"><g><g><path fill="#fff" d="M19.557 1.272c-.071.355-.358.936-.86 1.742a53.435 53.435 0 0 1-1.329 2.133c-.406.592-.622.9-.646.924-.143.213-.215.367-.215.462 0 .095.072.26.215.498l.215.248.575.57c.215.212.454.461.718.746.263.284.502.568.717.853.24.26.443.533.61.817.192.285.323.522.395.711.168.593-.072.889-.718.889h-2.117a1.17 1.17 0 0 1-.43-.071 1.526 1.526 0 0 1-.395-.249 3.064 3.064 0 0 1-.395-.39c-.12-.143-.3-.345-.539-.605-.239-.26-.478-.51-.717-.747-.957-.9-1.663-1.35-2.118-1.35-.287 0-.454.082-.502.248-.048.166-.072.64-.072 1.422.024.38.036.687.036.924 0 .285-.096.498-.287.64-.192.119-.61.178-1.256.178-1.125 0-2.261-.332-3.41-.995-1.148-.664-2.153-1.612-3.014-2.844A23.293 23.293 0 0 1 1.972 4.79c-.526-1.09-.873-1.92-1.04-2.488C.763 1.734.68 1.33.68 1.094.68.691.92.49 1.398.49h2.117c.263 0 .455.06.574.178.144.118.264.332.36.64.502 1.445 1.112 2.737 1.83 3.874.741 1.138 1.304 1.706 1.686 1.706.144 0 .24-.047.288-.142.071-.118.107-.332.107-.64V3.014a2.827 2.827 0 0 0-.18-.853c-.095-.237-.19-.403-.286-.498l-.287-.355a.633.633 0 0 1-.108-.32c0-.095.024-.178.072-.25a.638.638 0 0 1 .18-.177.642.642 0 0 1 .286-.071h3.338c.383 0 .574.26.574.782v4.123c0 .403.108.605.323.605.24 0 .574-.214 1.005-.64.454-.498.897-1.102 1.328-1.813.43-.71.753-1.303.969-1.777l.323-.676c.167-.403.466-.604.897-.604h2.117c.575 0 .79.26.646.782z"/></g></g></svg>