<svg xmlns="http://www.w3.org/2000/svg" width="22" height="18" viewBox="0 0 22 18"><g><g><g/><g><path fill="#494ecc" d="M14.382 8.01a.892.892 0 0 1-.006 1.57l-4.86 2.613a.891.891 0 0 1-1.316-.786V6.134c0-.319.163-.606.438-.768a.885.885 0 0 1 .883-.015zm-1.26.78L9.489 6.803v3.94z"/></g><g><path fill="#494ecc" d="M21.838 4.593c.007.074.162 1.828.162 3.589v1.646a45.62 45.62 0 0 1-.162 3.589l-.002.022c-.022.173-.233 1.715-.962 2.507-.875.964-1.863 1.068-2.337 1.119a4.88 4.88 0 0 0-.123.013l-.039.004c-2.908.212-7.3.24-7.345.241H11.018c-.223-.003-5.488-.082-7.168-.242l-.05-.007c-.053-.009-.13-.018-.22-.028-.565-.065-1.618-.185-2.45-1.096-.762-.801-.947-2.348-.966-2.522l-.001-.011A45.7 45.7 0 0 1 0 9.827V8.183c0-1.761.155-3.516.162-3.59l.002-.022c.022-.173.233-1.714.962-2.507.888-.976 1.88-1.09 2.357-1.146l.103-.012.04-.004C6.56.689 10.951.66 10.995.66L11 .66h.004c.044 0 4.436.03 7.345.24l.038.005.11.013c.482.055 1.485.17 2.37 1.111.766.802.952 2.377.97 2.554zm-1.127 3.589c0-1.657-.147-3.359-.157-3.469-.055-.502-.27-1.43-.62-1.794l-.005-.005c-.562-.6-1.174-.67-1.579-.715l-.113-.014C15.408 1.981 11.153 1.95 11 1.95c-.153.001-4.41.032-7.264.236l-.105.013c-.394.045-.989.114-1.554.735-.34.37-.567 1.287-.632 1.787a45.086 45.086 0 0 0-.156 3.462v1.646c0 1.653.146 3.351.156 3.468.055.492.271 1.404.62 1.768l.012.013c.508.557 1.167.633 1.65.688.094.01.184.021.268.035 1.628.151 6.816.23 7.034.234.195-.001 4.422-.033 7.235-.236l.137-.015c.41-.044.974-.104 1.522-.706.355-.387.577-1.362.632-1.786.013-.154.156-1.833.156-3.463z"/></g></g></g></svg>